ISO-10303-21;
HEADER;
/* Generated by software containing ST-Developer
 * from STEP Tools, Inc. (www.steptools.com) 
 */

FILE_DESCRIPTION(
/* description */ (''),
/* implementation_level */ '2;1');

FILE_NAME(
/* name */ 'Cover.step',
/* time_stamp */ '2026-05-04T22:03:14+05:00',
/* author */ (''),
/* organization */ (''),
/* preprocessor_version */ 'ST-DEVELOPER v20.1',
/* originating_system */ 'Autodesk Translation Framework v15.8.0.0',
/* authorisation */ '');

FILE_SCHEMA (('AUTOMOTIVE_DESIGN { 1 0 10303 214 3 1 1 }'));
ENDSEC;

DATA;
#10=MECHANICAL_DESIGN_GEOMETRIC_PRESENTATION_REPRESENTATION('',(#13),#796);
#11=SHAPE_REPRESENTATION_RELATIONSHIP('SRR','None',#803,#12);
#12=ADVANCED_BREP_SHAPE_REPRESENTATION('',(#14),#795);
#13=STYLED_ITEM('',(#821),#14);
#14=MANIFOLD_SOLID_BREP('Body53',#492);
#15=FACE_BOUND('',#73,.T.);
#16=FACE_BOUND('',#74,.T.);
#17=FACE_BOUND('',#75,.T.);
#18=FACE_BOUND('',#76,.T.);
#19=FACE_BOUND('',#82,.T.);
#20=FACE_BOUND('',#83,.T.);
#21=FACE_BOUND('',#89,.T.);
#22=FACE_BOUND('',#102,.T.);
#23=PLANE('',#509);
#24=PLANE('',#510);
#25=PLANE('',#517);
#26=PLANE('',#518);
#27=PLANE('',#519);
#28=PLANE('',#520);
#29=PLANE('',#521);
#30=PLANE('',#522);
#31=PLANE('',#523);
#32=PLANE('',#524);
#33=PLANE('',#525);
#34=PLANE('',#526);
#35=PLANE('',#527);
#36=PLANE('',#528);
#37=PLANE('',#529);
#38=PLANE('',#530);
#39=PLANE('',#531);
#40=PLANE('',#532);
#41=PLANE('',#533);
#42=PLANE('',#534);
#43=PLANE('',#535);
#44=PLANE('',#536);
#45=FACE_OUTER_BOUND('',#70,.T.);
#46=FACE_OUTER_BOUND('',#71,.T.);
#47=FACE_OUTER_BOUND('',#72,.T.);
#48=FACE_OUTER_BOUND('',#77,.T.);
#49=FACE_OUTER_BOUND('',#78,.T.);
#50=FACE_OUTER_BOUND('',#79,.T.);
#51=FACE_OUTER_BOUND('',#80,.T.);
#52=FACE_OUTER_BOUND('',#81,.T.);
#53=FACE_OUTER_BOUND('',#84,.T.);
#54=FACE_OUTER_BOUND('',#85,.T.);
#55=FACE_OUTER_BOUND('',#86,.T.);
#56=FACE_OUTER_BOUND('',#87,.T.);
#57=FACE_OUTER_BOUND('',#88,.T.);
#58=FACE_OUTER_BOUND('',#90,.T.);
#59=FACE_OUTER_BOUND('',#91,.T.);
#60=FACE_OUTER_BOUND('',#92,.T.);
#61=FACE_OUTER_BOUND('',#93,.T.);
#62=FACE_OUTER_BOUND('',#94,.T.);
#63=FACE_OUTER_BOUND('',#95,.T.);
#64=FACE_OUTER_BOUND('',#96,.T.);
#65=FACE_OUTER_BOUND('',#97,.T.);
#66=FACE_OUTER_BOUND('',#98,.T.);
#67=FACE_OUTER_BOUND('',#99,.T.);
#68=FACE_OUTER_BOUND('',#100,.T.);
#69=FACE_OUTER_BOUND('',#101,.T.);
#70=EDGE_LOOP('',(#334,#335,#336,#337));
#71=EDGE_LOOP('',(#338,#339,#340,#341));
#72=EDGE_LOOP('',(#342,#343,#344,#345));
#73=EDGE_LOOP('',(#346));
#74=EDGE_LOOP('',(#347,#348,#349,#350));
#75=EDGE_LOOP('',(#351));
#76=EDGE_LOOP('',(#352));
#77=EDGE_LOOP('',(#353,#354,#355,#356));
#78=EDGE_LOOP('',(#357,#358,#359,#360));
#79=EDGE_LOOP('',(#361,#362,#363,#364,#365));
#80=EDGE_LOOP('',(#366,#367,#368,#369,#370,#371));
#81=EDGE_LOOP('',(#372,#373,#374,#375,#376,#377));
#82=EDGE_LOOP('',(#378));
#83=EDGE_LOOP('',(#379));
#84=EDGE_LOOP('',(#380,#381,#382,#383));
#85=EDGE_LOOP('',(#384,#385,#386,#387,#388));
#86=EDGE_LOOP('',(#389,#390,#391,#392,#393,#394));
#87=EDGE_LOOP('',(#395,#396,#397,#398,#399));
#88=EDGE_LOOP('',(#400,#401,#402,#403,#404,#405));
#89=EDGE_LOOP('',(#406));
#90=EDGE_LOOP('',(#407,#408,#409,#410));
#91=EDGE_LOOP('',(#411,#412,#413,#414,#415));
#92=EDGE_LOOP('',(#416,#417,#418,#419));
#93=EDGE_LOOP('',(#420,#421,#422,#423));
#94=EDGE_LOOP('',(#424,#425,#426,#427));
#95=EDGE_LOOP('',(#428,#429,#430,#431));
#96=EDGE_LOOP('',(#432,#433,#434,#435));
#97=EDGE_LOOP('',(#436,#437,#438,#439));
#98=EDGE_LOOP('',(#440,#441,#442,#443));
#99=EDGE_LOOP('',(#444,#445,#446,#447));
#100=EDGE_LOOP('',(#448,#449,#450,#451));
#101=EDGE_LOOP('',(#452,#453,#454,#455,#456,#457,#458,#459));
#102=EDGE_LOOP('',(#460,#461,#462,#463));
#103=ELLIPSE('',#508,1.39522137852807,1.2645);
#104=ELLIPSE('',#511,1.39522137852807,1.2645);
#105=ELLIPSE('',#512,1.39522137852807,1.2645);
#106=LINE('',#665,#165);
#107=LINE('',#670,#166);
#108=LINE('',#672,#167);
#109=LINE('',#674,#168);
#110=LINE('',#675,#169);
#111=LINE('',#679,#170);
#112=LINE('',#681,#171);
#113=LINE('',#683,#172);
#114=LINE('',#684,#173);
#115=LINE('',#686,#174);
#116=LINE('',#688,#175);
#117=LINE('',#689,#176);
#118=LINE('',#697,#177);
#119=LINE('',#701,#178);
#120=LINE('',#705,#179);
#121=LINE('',#707,#180);
#122=LINE('',#709,#181);
#123=LINE('',#711,#182);
#124=LINE('',#712,#183);
#125=LINE('',#714,#184);
#126=LINE('',#716,#185);
#127=LINE('',#718,#186);
#128=LINE('',#720,#187);
#129=LINE('',#721,#188);
#130=LINE('',#724,#189);
#131=LINE('',#726,#190);
#132=LINE('',#727,#191);
#133=LINE('',#730,#192);
#134=LINE('',#731,#193);
#135=LINE('',#734,#194);
#136=LINE('',#736,#195);
#137=LINE('',#737,#196);
#138=LINE('',#740,#197);
#139=LINE('',#742,#198);
#140=LINE('',#744,#199);
#141=LINE('',#745,#200);
#142=LINE('',#748,#201);
#143=LINE('',#750,#202);
#144=LINE('',#752,#203);
#145=LINE('',#753,#204);
#146=LINE('',#756,#205);
#147=LINE('',#757,#206);
#148=LINE('',#758,#207);
#149=LINE('',#761,#208);
#150=LINE('',#762,#209);
#151=LINE('',#765,#210);
#152=LINE('',#766,#211);
#153=LINE('',#768,#212);
#154=LINE('',#770,#213);
#155=LINE('',#775,#214);
#156=LINE('',#776,#215);
#157=LINE('',#777,#216);
#158=LINE('',#780,#217);
#159=LINE('',#781,#218);
#160=LINE('',#784,#219);
#161=LINE('',#785,#220);
#162=LINE('',#787,#221);
#163=LINE('',#789,#222);
#164=LINE('',#791,#223);
#165=VECTOR('',#543,1.6);
#166=VECTOR('',#548,10.);
#167=VECTOR('',#549,10.);
#168=VECTOR('',#550,10.);
#169=VECTOR('',#551,10.);
#170=VECTOR('',#554,10.);
#171=VECTOR('',#555,10.);
#172=VECTOR('',#556,10.);
#173=VECTOR('',#557,10.);
#174=VECTOR('',#558,10.);
#175=VECTOR('',#559,10.);
#176=VECTOR('',#560,10.);
#177=VECTOR('',#569,1.6);
#178=VECTOR('',#574,1.6);
#179=VECTOR('',#577,10.);
#180=VECTOR('',#578,10.);
#181=VECTOR('',#579,10.);
#182=VECTOR('',#580,10.);
#183=VECTOR('',#581,10.);
#184=VECTOR('',#584,10.);
#185=VECTOR('',#585,10.);
#186=VECTOR('',#586,10.);
#187=VECTOR('',#587,10.);
#188=VECTOR('',#588,10.);
#189=VECTOR('',#591,10.);
#190=VECTOR('',#592,10.);
#191=VECTOR('',#593,10.);
#192=VECTOR('',#596,10.);
#193=VECTOR('',#597,10.);
#194=VECTOR('',#600,10.);
#195=VECTOR('',#601,10.);
#196=VECTOR('',#602,10.);
#197=VECTOR('',#605,10.);
#198=VECTOR('',#606,10.);
#199=VECTOR('',#607,10.);
#200=VECTOR('',#608,10.);
#201=VECTOR('',#611,10.);
#202=VECTOR('',#612,10.);
#203=VECTOR('',#613,10.);
#204=VECTOR('',#614,10.);
#205=VECTOR('',#617,10.);
#206=VECTOR('',#618,10.);
#207=VECTOR('',#619,10.);
#208=VECTOR('',#622,10.);
#209=VECTOR('',#623,10.);
#210=VECTOR('',#626,10.);
#211=VECTOR('',#627,10.);
#212=VECTOR('',#630,10.);
#213=VECTOR('',#633,10.);
#214=VECTOR('',#638,10.);
#215=VECTOR('',#639,10.);
#216=VECTOR('',#640,10.);
#217=VECTOR('',#643,10.);
#218=VECTOR('',#644,10.);
#219=VECTOR('',#647,10.);
#220=VECTOR('',#648,10.);
#221=VECTOR('',#651,10.);
#222=VECTOR('',#654,10.);
#223=VECTOR('',#657,10.);
#224=CIRCLE('',#507,1.2645);
#225=CIRCLE('',#514,1.2645);
#226=CIRCLE('',#516,1.2645);
#227=VERTEX_POINT('',#662);
#228=VERTEX_POINT('',#664);
#229=VERTEX_POINT('',#668);
#230=VERTEX_POINT('',#669);
#231=VERTEX_POINT('',#671);
#232=VERTEX_POINT('',#673);
#233=VERTEX_POINT('',#677);
#234=VERTEX_POINT('',#678);
#235=VERTEX_POINT('',#680);
#236=VERTEX_POINT('',#682);
#237=VERTEX_POINT('',#685);
#238=VERTEX_POINT('',#687);
#239=VERTEX_POINT('',#690);
#240=VERTEX_POINT('',#692);
#241=VERTEX_POINT('',#695);
#242=VERTEX_POINT('',#699);
#243=VERTEX_POINT('',#703);
#244=VERTEX_POINT('',#704);
#245=VERTEX_POINT('',#706);
#246=VERTEX_POINT('',#708);
#247=VERTEX_POINT('',#710);
#248=VERTEX_POINT('',#715);
#249=VERTEX_POINT('',#717);
#250=VERTEX_POINT('',#719);
#251=VERTEX_POINT('',#723);
#252=VERTEX_POINT('',#725);
#253=VERTEX_POINT('',#729);
#254=VERTEX_POINT('',#733);
#255=VERTEX_POINT('',#735);
#256=VERTEX_POINT('',#739);
#257=VERTEX_POINT('',#741);
#258=VERTEX_POINT('',#743);
#259=VERTEX_POINT('',#747);
#260=VERTEX_POINT('',#749);
#261=VERTEX_POINT('',#751);
#262=VERTEX_POINT('',#755);
#263=VERTEX_POINT('',#760);
#264=VERTEX_POINT('',#764);
#265=VERTEX_POINT('',#773);
#266=VERTEX_POINT('',#774);
#267=VERTEX_POINT('',#779);
#268=VERTEX_POINT('',#783);
#269=EDGE_CURVE('',#227,#227,#224,.T.);
#270=EDGE_CURVE('',#227,#228,#106,.T.);
#271=EDGE_CURVE('',#228,#228,#103,.F.);
#272=EDGE_CURVE('',#229,#230,#107,.T.);
#273=EDGE_CURVE('',#231,#229,#108,.T.);
#274=EDGE_CURVE('',#232,#231,#109,.T.);
#275=EDGE_CURVE('',#232,#230,#110,.T.);
#276=EDGE_CURVE('',#233,#234,#111,.T.);
#277=EDGE_CURVE('',#235,#233,#112,.T.);
#278=EDGE_CURVE('',#236,#235,#113,.T.);
#279=EDGE_CURVE('',#234,#236,#114,.T.);
#280=EDGE_CURVE('',#230,#237,#115,.T.);
#281=EDGE_CURVE('',#237,#238,#116,.T.);
#282=EDGE_CURVE('',#238,#229,#117,.T.);
#283=EDGE_CURVE('',#239,#239,#104,.F.);
#284=EDGE_CURVE('',#240,#240,#105,.F.);
#285=EDGE_CURVE('',#241,#241,#225,.T.);
#286=EDGE_CURVE('',#241,#240,#118,.T.);
#287=EDGE_CURVE('',#242,#242,#226,.T.);
#288=EDGE_CURVE('',#242,#239,#119,.T.);
#289=EDGE_CURVE('',#243,#244,#120,.T.);
#290=EDGE_CURVE('',#244,#245,#121,.T.);
#291=EDGE_CURVE('',#245,#246,#122,.T.);
#292=EDGE_CURVE('',#246,#247,#123,.T.);
#293=EDGE_CURVE('',#247,#243,#124,.T.);
#294=EDGE_CURVE('',#243,#231,#125,.T.);
#295=EDGE_CURVE('',#231,#248,#126,.T.);
#296=EDGE_CURVE('',#249,#248,#127,.T.);
#297=EDGE_CURVE('',#250,#249,#128,.T.);
#298=EDGE_CURVE('',#250,#244,#129,.T.);
#299=EDGE_CURVE('',#247,#251,#130,.T.);
#300=EDGE_CURVE('',#252,#251,#131,.T.);
#301=EDGE_CURVE('',#252,#232,#132,.T.);
#302=EDGE_CURVE('',#253,#246,#133,.T.);
#303=EDGE_CURVE('',#251,#253,#134,.T.);
#304=EDGE_CURVE('',#253,#254,#135,.T.);
#305=EDGE_CURVE('',#254,#255,#136,.T.);
#306=EDGE_CURVE('',#255,#252,#137,.T.);
#307=EDGE_CURVE('',#255,#256,#138,.T.);
#308=EDGE_CURVE('',#257,#256,#139,.T.);
#309=EDGE_CURVE('',#257,#258,#140,.T.);
#310=EDGE_CURVE('',#258,#232,#141,.T.);
#311=EDGE_CURVE('',#256,#259,#142,.T.);
#312=EDGE_CURVE('',#259,#260,#143,.T.);
#313=EDGE_CURVE('',#260,#261,#144,.T.);
#314=EDGE_CURVE('',#261,#257,#145,.T.);
#315=EDGE_CURVE('',#261,#262,#146,.T.);
#316=EDGE_CURVE('',#249,#262,#147,.T.);
#317=EDGE_CURVE('',#248,#258,#148,.T.);
#318=EDGE_CURVE('',#263,#260,#149,.T.);
#319=EDGE_CURVE('',#262,#263,#150,.T.);
#320=EDGE_CURVE('',#263,#264,#151,.T.);
#321=EDGE_CURVE('',#264,#250,#152,.T.);
#322=EDGE_CURVE('',#248,#238,#153,.T.);
#323=EDGE_CURVE('',#258,#237,#154,.T.);
#324=EDGE_CURVE('',#265,#266,#155,.T.);
#325=EDGE_CURVE('',#265,#235,#156,.T.);
#326=EDGE_CURVE('',#266,#233,#157,.T.);
#327=EDGE_CURVE('',#267,#265,#158,.T.);
#328=EDGE_CURVE('',#267,#236,#159,.T.);
#329=EDGE_CURVE('',#268,#267,#160,.T.);
#330=EDGE_CURVE('',#268,#234,#161,.T.);
#331=EDGE_CURVE('',#266,#268,#162,.T.);
#332=EDGE_CURVE('',#245,#264,#163,.T.);
#333=EDGE_CURVE('',#259,#254,#164,.T.);
#334=ORIENTED_EDGE('',*,*,#269,.F.);
#335=ORIENTED_EDGE('',*,*,#270,.T.);
#336=ORIENTED_EDGE('',*,*,#271,.F.);
#337=ORIENTED_EDGE('',*,*,#270,.F.);
#338=ORIENTED_EDGE('',*,*,#272,.F.);
#339=ORIENTED_EDGE('',*,*,#273,.F.);
#340=ORIENTED_EDGE('',*,*,#274,.F.);
#341=ORIENTED_EDGE('',*,*,#275,.T.);
#342=ORIENTED_EDGE('',*,*,#276,.F.);
#343=ORIENTED_EDGE('',*,*,#277,.F.);
#344=ORIENTED_EDGE('',*,*,#278,.F.);
#345=ORIENTED_EDGE('',*,*,#279,.F.);
#346=ORIENTED_EDGE('',*,*,#271,.T.);
#347=ORIENTED_EDGE('',*,*,#272,.T.);
#348=ORIENTED_EDGE('',*,*,#280,.T.);
#349=ORIENTED_EDGE('',*,*,#281,.T.);
#350=ORIENTED_EDGE('',*,*,#282,.T.);
#351=ORIENTED_EDGE('',*,*,#283,.T.);
#352=ORIENTED_EDGE('',*,*,#284,.T.);
#353=ORIENTED_EDGE('',*,*,#285,.F.);
#354=ORIENTED_EDGE('',*,*,#286,.T.);
#355=ORIENTED_EDGE('',*,*,#284,.F.);
#356=ORIENTED_EDGE('',*,*,#286,.F.);
#357=ORIENTED_EDGE('',*,*,#287,.F.);
#358=ORIENTED_EDGE('',*,*,#288,.T.);
#359=ORIENTED_EDGE('',*,*,#283,.F.);
#360=ORIENTED_EDGE('',*,*,#288,.F.);
#361=ORIENTED_EDGE('',*,*,#289,.T.);
#362=ORIENTED_EDGE('',*,*,#290,.T.);
#363=ORIENTED_EDGE('',*,*,#291,.T.);
#364=ORIENTED_EDGE('',*,*,#292,.T.);
#365=ORIENTED_EDGE('',*,*,#293,.T.);
#366=ORIENTED_EDGE('',*,*,#289,.F.);
#367=ORIENTED_EDGE('',*,*,#294,.T.);
#368=ORIENTED_EDGE('',*,*,#295,.T.);
#369=ORIENTED_EDGE('',*,*,#296,.F.);
#370=ORIENTED_EDGE('',*,*,#297,.F.);
#371=ORIENTED_EDGE('',*,*,#298,.T.);
#372=ORIENTED_EDGE('',*,*,#293,.F.);
#373=ORIENTED_EDGE('',*,*,#299,.T.);
#374=ORIENTED_EDGE('',*,*,#300,.F.);
#375=ORIENTED_EDGE('',*,*,#301,.T.);
#376=ORIENTED_EDGE('',*,*,#274,.T.);
#377=ORIENTED_EDGE('',*,*,#294,.F.);
#378=ORIENTED_EDGE('',*,*,#285,.T.);
#379=ORIENTED_EDGE('',*,*,#287,.T.);
#380=ORIENTED_EDGE('',*,*,#292,.F.);
#381=ORIENTED_EDGE('',*,*,#302,.F.);
#382=ORIENTED_EDGE('',*,*,#303,.F.);
#383=ORIENTED_EDGE('',*,*,#299,.F.);
#384=ORIENTED_EDGE('',*,*,#300,.T.);
#385=ORIENTED_EDGE('',*,*,#303,.T.);
#386=ORIENTED_EDGE('',*,*,#304,.T.);
#387=ORIENTED_EDGE('',*,*,#305,.T.);
#388=ORIENTED_EDGE('',*,*,#306,.T.);
#389=ORIENTED_EDGE('',*,*,#306,.F.);
#390=ORIENTED_EDGE('',*,*,#307,.T.);
#391=ORIENTED_EDGE('',*,*,#308,.F.);
#392=ORIENTED_EDGE('',*,*,#309,.T.);
#393=ORIENTED_EDGE('',*,*,#310,.T.);
#394=ORIENTED_EDGE('',*,*,#301,.F.);
#395=ORIENTED_EDGE('',*,*,#308,.T.);
#396=ORIENTED_EDGE('',*,*,#311,.T.);
#397=ORIENTED_EDGE('',*,*,#312,.T.);
#398=ORIENTED_EDGE('',*,*,#313,.T.);
#399=ORIENTED_EDGE('',*,*,#314,.T.);
#400=ORIENTED_EDGE('',*,*,#314,.F.);
#401=ORIENTED_EDGE('',*,*,#315,.T.);
#402=ORIENTED_EDGE('',*,*,#316,.F.);
#403=ORIENTED_EDGE('',*,*,#296,.T.);
#404=ORIENTED_EDGE('',*,*,#317,.T.);
#405=ORIENTED_EDGE('',*,*,#309,.F.);
#406=ORIENTED_EDGE('',*,*,#269,.T.);
#407=ORIENTED_EDGE('',*,*,#313,.F.);
#408=ORIENTED_EDGE('',*,*,#318,.F.);
#409=ORIENTED_EDGE('',*,*,#319,.F.);
#410=ORIENTED_EDGE('',*,*,#315,.F.);
#411=ORIENTED_EDGE('',*,*,#316,.T.);
#412=ORIENTED_EDGE('',*,*,#319,.T.);
#413=ORIENTED_EDGE('',*,*,#320,.T.);
#414=ORIENTED_EDGE('',*,*,#321,.T.);
#415=ORIENTED_EDGE('',*,*,#297,.T.);
#416=ORIENTED_EDGE('',*,*,#295,.F.);
#417=ORIENTED_EDGE('',*,*,#273,.T.);
#418=ORIENTED_EDGE('',*,*,#282,.F.);
#419=ORIENTED_EDGE('',*,*,#322,.F.);
#420=ORIENTED_EDGE('',*,*,#310,.F.);
#421=ORIENTED_EDGE('',*,*,#323,.T.);
#422=ORIENTED_EDGE('',*,*,#280,.F.);
#423=ORIENTED_EDGE('',*,*,#275,.F.);
#424=ORIENTED_EDGE('',*,*,#317,.F.);
#425=ORIENTED_EDGE('',*,*,#322,.T.);
#426=ORIENTED_EDGE('',*,*,#281,.F.);
#427=ORIENTED_EDGE('',*,*,#323,.F.);
#428=ORIENTED_EDGE('',*,*,#324,.F.);
#429=ORIENTED_EDGE('',*,*,#325,.T.);
#430=ORIENTED_EDGE('',*,*,#277,.T.);
#431=ORIENTED_EDGE('',*,*,#326,.F.);
#432=ORIENTED_EDGE('',*,*,#327,.F.);
#433=ORIENTED_EDGE('',*,*,#328,.T.);
#434=ORIENTED_EDGE('',*,*,#278,.T.);
#435=ORIENTED_EDGE('',*,*,#325,.F.);
#436=ORIENTED_EDGE('',*,*,#329,.F.);
#437=ORIENTED_EDGE('',*,*,#330,.T.);
#438=ORIENTED_EDGE('',*,*,#279,.T.);
#439=ORIENTED_EDGE('',*,*,#328,.F.);
#440=ORIENTED_EDGE('',*,*,#331,.F.);
#441=ORIENTED_EDGE('',*,*,#326,.T.);
#442=ORIENTED_EDGE('',*,*,#276,.T.);
#443=ORIENTED_EDGE('',*,*,#330,.F.);
#444=ORIENTED_EDGE('',*,*,#290,.F.);
#445=ORIENTED_EDGE('',*,*,#298,.F.);
#446=ORIENTED_EDGE('',*,*,#321,.F.);
#447=ORIENTED_EDGE('',*,*,#332,.F.);
#448=ORIENTED_EDGE('',*,*,#305,.F.);
#449=ORIENTED_EDGE('',*,*,#333,.F.);
#450=ORIENTED_EDGE('',*,*,#311,.F.);
#451=ORIENTED_EDGE('',*,*,#307,.F.);
#452=ORIENTED_EDGE('',*,*,#291,.F.);
#453=ORIENTED_EDGE('',*,*,#332,.T.);
#454=ORIENTED_EDGE('',*,*,#320,.F.);
#455=ORIENTED_EDGE('',*,*,#318,.T.);
#456=ORIENTED_EDGE('',*,*,#312,.F.);
#457=ORIENTED_EDGE('',*,*,#333,.T.);
#458=ORIENTED_EDGE('',*,*,#304,.F.);
#459=ORIENTED_EDGE('',*,*,#302,.T.);
#460=ORIENTED_EDGE('',*,*,#324,.T.);
#461=ORIENTED_EDGE('',*,*,#331,.T.);
#462=ORIENTED_EDGE('',*,*,#329,.T.);
#463=ORIENTED_EDGE('',*,*,#327,.T.);
#464=CYLINDRICAL_SURFACE('',#506,1.2645);
#465=CYLINDRICAL_SURFACE('',#513,1.2645);
#466=CYLINDRICAL_SURFACE('',#515,1.2645);
#467=ADVANCED_FACE('',(#45),#464,.F.);
#468=ADVANCED_FACE('',(#46),#23,.F.);
#469=ADVANCED_FACE('',(#47,#15,#16,#17,#18),#24,.F.);
#470=ADVANCED_FACE('',(#48),#465,.F.);
#471=ADVANCED_FACE('',(#49),#466,.F.);
#472=ADVANCED_FACE('',(#50),#25,.T.);
#473=ADVANCED_FACE('',(#51),#26,.T.);
#474=ADVANCED_FACE('',(#52,#19,#20),#27,.T.);
#475=ADVANCED_FACE('',(#53),#28,.T.);
#476=ADVANCED_FACE('',(#54),#29,.T.);
#477=ADVANCED_FACE('',(#55),#30,.T.);
#478=ADVANCED_FACE('',(#56),#31,.T.);
#479=ADVANCED_FACE('',(#57,#21),#32,.T.);
#480=ADVANCED_FACE('',(#58),#33,.T.);
#481=ADVANCED_FACE('',(#59),#34,.T.);
#482=ADVANCED_FACE('',(#60),#35,.F.);
#483=ADVANCED_FACE('',(#61),#36,.F.);
#484=ADVANCED_FACE('',(#62),#37,.F.);
#485=ADVANCED_FACE('',(#63),#38,.F.);
#486=ADVANCED_FACE('',(#64),#39,.F.);
#487=ADVANCED_FACE('',(#65),#40,.F.);
#488=ADVANCED_FACE('',(#66),#41,.F.);
#489=ADVANCED_FACE('',(#67),#42,.T.);
#490=ADVANCED_FACE('',(#68),#43,.T.);
#491=ADVANCED_FACE('',(#69,#22),#44,.F.);
#492=CLOSED_SHELL('',(#467,#468,#469,#470,#471,#472,#473,#474,#475,#476,
#477,#478,#479,#480,#481,#482,#483,#484,#485,#486,#487,#488,#489,#490,#491));
#493=DERIVED_UNIT_ELEMENT(#495,1.);
#494=DERIVED_UNIT_ELEMENT(#798,-3.);
#495=(
MASS_UNIT()
NAMED_UNIT(*)
SI_UNIT(.KILO.,.GRAM.)
);
#496=DERIVED_UNIT((#493,#494));
#497=MEASURE_REPRESENTATION_ITEM('density measure',
POSITIVE_RATIO_MEASURE(7850.),#496);
#498=PROPERTY_DEFINITION_REPRESENTATION(#503,#500);
#499=PROPERTY_DEFINITION_REPRESENTATION(#504,#501);
#500=REPRESENTATION('material name',(#502),#795);
#501=REPRESENTATION('density',(#497),#795);
#502=DESCRIPTIVE_REPRESENTATION_ITEM('Steel','Steel');
#503=PROPERTY_DEFINITION('material property','material name',#805);
#504=PROPERTY_DEFINITION('material property','density of part',#805);
#505=AXIS2_PLACEMENT_3D('',#660,#537,#538);
#506=AXIS2_PLACEMENT_3D('',#661,#539,#540);
#507=AXIS2_PLACEMENT_3D('',#663,#541,#542);
#508=AXIS2_PLACEMENT_3D('',#666,#544,#545);
#509=AXIS2_PLACEMENT_3D('',#667,#546,#547);
#510=AXIS2_PLACEMENT_3D('',#676,#552,#553);
#511=AXIS2_PLACEMENT_3D('',#691,#561,#562);
#512=AXIS2_PLACEMENT_3D('',#693,#563,#564);
#513=AXIS2_PLACEMENT_3D('',#694,#565,#566);
#514=AXIS2_PLACEMENT_3D('',#696,#567,#568);
#515=AXIS2_PLACEMENT_3D('',#698,#570,#571);
#516=AXIS2_PLACEMENT_3D('',#700,#572,#573);
#517=AXIS2_PLACEMENT_3D('',#702,#575,#576);
#518=AXIS2_PLACEMENT_3D('',#713,#582,#583);
#519=AXIS2_PLACEMENT_3D('',#722,#589,#590);
#520=AXIS2_PLACEMENT_3D('',#728,#594,#595);
#521=AXIS2_PLACEMENT_3D('',#732,#598,#599);
#522=AXIS2_PLACEMENT_3D('',#738,#603,#604);
#523=AXIS2_PLACEMENT_3D('',#746,#609,#610);
#524=AXIS2_PLACEMENT_3D('',#754,#615,#616);
#525=AXIS2_PLACEMENT_3D('',#759,#620,#621);
#526=AXIS2_PLACEMENT_3D('',#763,#624,#625);
#527=AXIS2_PLACEMENT_3D('',#767,#628,#629);
#528=AXIS2_PLACEMENT_3D('',#769,#631,#632);
#529=AXIS2_PLACEMENT_3D('',#771,#634,#635);
#530=AXIS2_PLACEMENT_3D('',#772,#636,#637);
#531=AXIS2_PLACEMENT_3D('',#778,#641,#642);
#532=AXIS2_PLACEMENT_3D('',#782,#645,#646);
#533=AXIS2_PLACEMENT_3D('',#786,#649,#650);
#534=AXIS2_PLACEMENT_3D('',#788,#652,#653);
#535=AXIS2_PLACEMENT_3D('',#790,#655,#656);
#536=AXIS2_PLACEMENT_3D('',#792,#658,#659);
#537=DIRECTION('axis',(0.,0.,1.));
#538=DIRECTION('refdir',(1.,0.,0.));
#539=DIRECTION('center_axis',(0.,0.422618261740698,-0.90630778703665));
#540=DIRECTION('ref_axis',(1.,0.,0.));
#541=DIRECTION('center_axis',(-1.16049512614037E-16,0.422618261740699,-0.90630778703665));
#542=DIRECTION('ref_axis',(1.,0.,0.));
#543=DIRECTION('',(0.,0.422618261740698,-0.90630778703665));
#544=DIRECTION('center_axis',(4.33584634246282E-17,-1.11022302462516E-16,
-1.));
#545=DIRECTION('ref_axis',(0.,-1.,9.94665651013407E-17));
#546=DIRECTION('center_axis',(-4.06422237407778E-17,1.,-1.11022302462516E-16));
#547=DIRECTION('ref_axis',(1.,4.06422237407778E-17,4.33584634246282E-17));
#548=DIRECTION('',(-1.,-4.06422237407778E-17,-4.33584634246282E-17));
#549=DIRECTION('',(4.33584634246282E-17,-1.11022302462516E-16,-1.));
#550=DIRECTION('',(1.,4.06422237407778E-17,4.33584634246282E-17));
#551=DIRECTION('',(4.33584634246282E-17,-1.11022302462516E-16,-1.));
#552=DIRECTION('center_axis',(-4.33584634246282E-17,1.11022302462516E-16,
1.));
#553=DIRECTION('ref_axis',(1.,4.06422237407778E-17,4.33584634246282E-17));
#554=DIRECTION('',(1.,4.06422237407778E-17,4.33584634246282E-17));
#555=DIRECTION('',(4.06422237407778E-17,-1.,1.11022302462516E-16));
#556=DIRECTION('',(-1.,-4.06422237407778E-17,-4.33584634246282E-17));
#557=DIRECTION('',(-4.06422237407778E-17,1.,-1.11022302462516E-16));
#558=DIRECTION('',(4.06422237407778E-17,-1.,1.11022302462516E-16));
#559=DIRECTION('',(1.,4.06422237407778E-17,4.33584634246282E-17));
#560=DIRECTION('',(-1.70651619658236E-16,1.,-1.11022302462516E-16));
#561=DIRECTION('center_axis',(4.33584634246282E-17,-1.11022302462516E-16,
-1.));
#562=DIRECTION('ref_axis',(0.,1.,-9.94665651013406E-17));
#563=DIRECTION('center_axis',(4.33584634246282E-17,-1.11022302462516E-16,
-1.));
#564=DIRECTION('ref_axis',(0.,1.,-9.94665651013406E-17));
#565=DIRECTION('center_axis',(0.,-0.422618261740699,-0.90630778703665));
#566=DIRECTION('ref_axis',(-1.,0.,0.));
#567=DIRECTION('center_axis',(5.64722589862884E-17,-0.4226182617407,-0.90630778703665));
#568=DIRECTION('ref_axis',(-1.,0.,0.));
#569=DIRECTION('',(0.,-0.422618261740699,-0.90630778703665));
#570=DIRECTION('center_axis',(0.,-0.422618261740699,-0.90630778703665));
#571=DIRECTION('ref_axis',(-1.,0.,0.));
#572=DIRECTION('center_axis',(5.64722589862884E-17,-0.4226182617407,-0.90630778703665));
#573=DIRECTION('ref_axis',(-1.,0.,0.));
#574=DIRECTION('',(0.,-0.422618261740699,-0.90630778703665));
#575=DIRECTION('center_axis',(0.707106781186541,0.707106781186554,-4.78455594248062E-17));
#576=DIRECTION('ref_axis',(-1.21526878066306E-17,-5.55111512312578E-17,
-1.));
#577=DIRECTION('',(0.671542934237823,-0.671542934237812,-0.313145613014975));
#578=DIRECTION('',(4.33584634246282E-17,-1.11022302462516E-16,-1.));
#579=DIRECTION('',(-0.707106781186554,0.707106781186541,-1.09163686443572E-16));
#580=DIRECTION('',(-4.33584634246282E-17,1.11022302462516E-16,1.));
#581=DIRECTION('',(0.671542934237824,-0.671542934237813,0.313145613014971));
#582=DIRECTION('center_axis',(0.422618261740699,5.19520049467207E-16,0.90630778703665));
#583=DIRECTION('ref_axis',(-9.91201067566999E-16,1.,-1.11022302462516E-16));
#584=DIRECTION('',(-0.671542934237818,-0.671542934237818,0.313145613014973));
#585=DIRECTION('',(9.91201067566999E-16,-1.,1.11022302462516E-16));
#586=DIRECTION('',(-0.671542934237818,0.671542934237818,0.313145613014973));
#587=DIRECTION('',(-0.671542934237823,-0.671542934237811,0.313145613014976));
#588=DIRECTION('',(-4.06422237407778E-17,1.,-1.11022302462516E-16));
#589=DIRECTION('center_axis',(-5.64722589862884E-17,0.4226182617407,0.90630778703665));
#590=DIRECTION('ref_axis',(-1.,-4.06422237407778E-17,-4.33584634246282E-17));
#591=DIRECTION('',(-1.,-4.06422237407778E-17,-4.33584634246282E-17));
#592=DIRECTION('',(0.671542934237824,0.671542934237813,-0.313145613014971));
#593=DIRECTION('',(0.671542934237817,-0.671542934237819,0.313145613014974));
#594=DIRECTION('center_axis',(-4.06422237407778E-17,1.,-1.11022302462516E-16));
#595=DIRECTION('ref_axis',(-1.,-4.06422237407778E-17,-4.33584634246282E-17));
#596=DIRECTION('',(1.,4.06422237407778E-17,4.33584634246282E-17));
#597=DIRECTION('',(4.33584634246282E-17,-1.11022302462516E-16,-1.));
#598=DIRECTION('center_axis',(-0.707106781186541,0.707106781186554,-1.09163686443573E-16));
#599=DIRECTION('ref_axis',(-9.8869614655887E-17,5.55111512312578E-17,1.));
#600=DIRECTION('',(-0.707106781186554,-0.707106781186541,4.78455594248043E-17));
#601=DIRECTION('',(-4.33584634246282E-17,1.11022302462516E-16,1.));
#602=DIRECTION('',(0.671542934237823,0.671542934237811,0.313145613014977));
#603=DIRECTION('center_axis',(-0.422618261740701,8.3444231305912E-17,0.906307787036649));
#604=DIRECTION('ref_axis',(4.06422237407778E-17,-1.,1.11022302462516E-16));
#605=DIRECTION('',(4.06422237407778E-17,-1.,1.11022302462516E-16));
#606=DIRECTION('',(-0.671542934237823,0.671542934237811,-0.313145613014977));
#607=DIRECTION('',(0.671542934237816,0.67154293423782,0.313145613014973));
#608=DIRECTION('',(-4.06422237407778E-17,1.,-1.11022302462516E-16));
#609=DIRECTION('center_axis',(-0.707106781186541,-0.707106781186554,4.78455594248062E-17));
#610=DIRECTION('ref_axis',(1.21526878066306E-17,5.55111512312578E-17,1.));
#611=DIRECTION('',(4.33584634246282E-17,-1.11022302462516E-16,-1.));
#612=DIRECTION('',(0.707106781186554,-0.707106781186541,1.09163686443572E-16));
#613=DIRECTION('',(-4.33584634246282E-17,1.11022302462516E-16,1.));
#614=DIRECTION('',(-0.671542934237825,0.671542934237813,0.31314561301497));
#615=DIRECTION('center_axis',(1.16049512614037E-16,-0.422618261740699,0.90630778703665));
#616=DIRECTION('ref_axis',(1.,3.67579065348186E-16,4.33584634246282E-17));
#617=DIRECTION('',(1.,4.06422237407778E-17,4.33584634246282E-17));
#618=DIRECTION('',(-0.671542934237825,-0.671542934237813,-0.31314561301497));
#619=DIRECTION('',(-1.,-3.67579065348186E-16,-4.33584634246282E-17));
#620=DIRECTION('center_axis',(4.06422237407778E-17,-1.,1.11022302462516E-16));
#621=DIRECTION('ref_axis',(1.,4.06422237407778E-17,4.33584634246282E-17));
#622=DIRECTION('',(-1.,-4.06422237407778E-17,-4.33584634246282E-17));
#623=DIRECTION('',(4.33584634246282E-17,-1.11022302462516E-16,-1.));
#624=DIRECTION('center_axis',(0.707106781186541,-0.707106781186554,1.09163686443573E-16));
#625=DIRECTION('ref_axis',(9.8869614655887E-17,-5.55111512312578E-17,-1.));
#626=DIRECTION('',(0.707106781186554,0.707106781186541,-4.78455594248043E-17));
#627=DIRECTION('',(-4.33584634246282E-17,1.11022302462516E-16,1.));
#628=DIRECTION('center_axis',(1.,1.70651619658236E-16,4.33584634246282E-17));
#629=DIRECTION('ref_axis',(1.70651619658236E-16,-1.,1.11022302462516E-16));
#630=DIRECTION('',(4.33584634246282E-17,-1.11022302462516E-16,-1.));
#631=DIRECTION('center_axis',(-1.,-4.06422237407778E-17,-4.33584634246282E-17));
#632=DIRECTION('ref_axis',(-4.06422237407778E-17,1.,-1.11022302462516E-16));
#633=DIRECTION('',(4.33584634246282E-17,-1.11022302462516E-16,-1.));
#634=DIRECTION('center_axis',(4.06422237407778E-17,-1.,1.11022302462516E-16));
#635=DIRECTION('ref_axis',(-1.,-4.06422237407778E-17,-4.33584634246282E-17));
#636=DIRECTION('center_axis',(-1.,-4.06422237407778E-17,-4.33584634246282E-17));
#637=DIRECTION('ref_axis',(4.06422237407778E-17,-1.,1.11022302462516E-16));
#638=DIRECTION('',(4.06422237407778E-17,-1.,1.11022302462516E-16));
#639=DIRECTION('',(-4.33584634246282E-17,1.11022302462516E-16,1.));
#640=DIRECTION('',(-4.33584634246282E-17,1.11022302462516E-16,1.));
#641=DIRECTION('center_axis',(-4.06422237407778E-17,1.,-1.11022302462516E-16));
#642=DIRECTION('ref_axis',(-1.,-4.06422237407778E-17,-4.33584634246282E-17));
#643=DIRECTION('',(-1.,-4.06422237407778E-17,-4.33584634246282E-17));
#644=DIRECTION('',(-4.33584634246282E-17,1.11022302462516E-16,1.));
#645=DIRECTION('center_axis',(1.,4.06422237407778E-17,4.33584634246282E-17));
#646=DIRECTION('ref_axis',(-4.06422237407778E-17,1.,-1.11022302462516E-16));
#647=DIRECTION('',(-4.06422237407778E-17,1.,-1.11022302462516E-16));
#648=DIRECTION('',(-4.33584634246282E-17,1.11022302462516E-16,1.));
#649=DIRECTION('center_axis',(4.06422237407778E-17,-1.,1.11022302462516E-16));
#650=DIRECTION('ref_axis',(1.,4.06422237407778E-17,4.33584634246282E-17));
#651=DIRECTION('',(1.,4.06422237407778E-17,4.33584634246282E-17));
#652=DIRECTION('center_axis',(1.,4.06422237407778E-17,4.33584634246282E-17));
#653=DIRECTION('ref_axis',(-4.06422237407778E-17,1.,-1.11022302462516E-16));
#654=DIRECTION('',(4.06422237407778E-17,-1.,1.11022302462516E-16));
#655=DIRECTION('center_axis',(-1.,-4.06422237407778E-17,-4.33584634246282E-17));
#656=DIRECTION('ref_axis',(4.06422237407778E-17,-1.,1.11022302462516E-16));
#657=DIRECTION('',(-4.06422237407778E-17,1.,-1.11022302462516E-16));
#658=DIRECTION('center_axis',(-4.33584634246282E-17,1.11022302462516E-16,
1.));
#659=DIRECTION('ref_axis',(1.,4.06422237407778E-17,4.33584634246282E-17));
#660=CARTESIAN_POINT('',(0.,0.,0.));
#661=CARTESIAN_POINT('Origin',(0.,-271.993815768036,20.7008447081855));
#662=CARTESIAN_POINT('',(-1.2645,-271.993815768036,20.7008447081855));
#663=CARTESIAN_POINT('Origin',(0.,-271.993815768036,20.7008447081855));
#664=CARTESIAN_POINT('',(-1.2645,-270.439251629929,17.3670711556387));
#665=CARTESIAN_POINT('',(-1.2645,-271.993815768036,20.7008447081855));
#666=CARTESIAN_POINT('Origin',(0.,-270.439251629929,17.3670711556387));
#667=CARTESIAN_POINT('Origin',(-156.659650705783,-131.787623143394,22.3670711556387));
#668=CARTESIAN_POINT('',(156.473307771159,-131.787623143394,17.3670711556387));
#669=CARTESIAN_POINT('',(-156.659650705783,-131.787623143394,17.3670711556387));
#670=CARTESIAN_POINT('',(-78.3764110865476,-131.787623143394,17.3670711556387));
#671=CARTESIAN_POINT('',(156.473307771159,-131.787623143394,22.3670711556387));
#672=CARTESIAN_POINT('',(156.473307771159,-131.787623143394,22.3670711556387));
#673=CARTESIAN_POINT('',(-156.659650705783,-131.787623143394,22.3670711556387));
#674=CARTESIAN_POINT('',(-163.093171467312,-131.787623143394,22.3670711556387));
#675=CARTESIAN_POINT('',(-156.659650705783,-131.787623143394,22.3670711556387));
#676=CARTESIAN_POINT('Origin',(-0.0931714673119721,-200.104102381865,17.3670711556387));
#677=CARTESIAN_POINT('',(-161.678957904939,-273.439888819492,17.3670711556387));
#678=CARTESIAN_POINT('',(161.492614970315,-273.439888819492,17.3670711556387));
#679=CARTESIAN_POINT('',(-161.678957904939,-273.439888819492,17.3670711556387));
#680=CARTESIAN_POINT('',(-161.678957904939,-126.768315944238,17.3670711556387));
#681=CARTESIAN_POINT('',(-161.678957904939,-273.439888819492,17.3670711556387));
#682=CARTESIAN_POINT('',(161.492614970315,-126.768315944238,17.3670711556387));
#683=CARTESIAN_POINT('',(161.492614970315,-126.768315944238,17.3670711556387));
#684=CARTESIAN_POINT('',(161.492614970315,-273.439888819492,17.3670711556387));
#685=CARTESIAN_POINT('',(-156.659650705783,-268.420581620337,17.3670711556387));
#686=CARTESIAN_POINT('',(-156.659650705783,-234.262342001101,17.3670711556387));
#687=CARTESIAN_POINT('',(156.473307771159,-268.420581620337,17.3670711556387));
#688=CARTESIAN_POINT('',(78.1900681519237,-268.420581620337,17.3670711556387));
#689=CARTESIAN_POINT('',(156.473307771159,-165.94586276263,17.3670711556387));
#690=CARTESIAN_POINT('',(37.2645000149012,-130.112438242062,17.3670711556387));
#691=CARTESIAN_POINT('Origin',(36.0000000149012,-130.112438242062,17.3670711556387));
#692=CARTESIAN_POINT('',(-31.7355004917383,-130.112437337773,17.3670711556387));
#693=CARTESIAN_POINT('Origin',(-33.0000004917383,-130.112437337773,17.3670711556387));
#694=CARTESIAN_POINT('Origin',(-33.0000004917383,-128.496524792898,20.8324067910612));
#695=CARTESIAN_POINT('',(-31.7355004917383,-128.496524792898,20.8324067910612));
#696=CARTESIAN_POINT('Origin',(-33.0000004917383,-128.496524792898,20.8324067910612));
#697=CARTESIAN_POINT('',(-31.7355004917383,-128.496524792898,20.8324067910612));
#698=CARTESIAN_POINT('Origin',(36.0000000149012,-128.496525535675,20.8324071374239));
#699=CARTESIAN_POINT('',(37.2645000149012,-128.496525535675,20.8324071374238));
#700=CARTESIAN_POINT('Origin',(36.0000000149012,-128.496525535675,20.8324071374238));
#701=CARTESIAN_POINT('',(37.2645000149012,-128.496525535675,20.8324071374239));
#702=CARTESIAN_POINT('Origin',(162.406828532688,-125.854102381865,14.3670711556387));
#703=CARTESIAN_POINT('',(162.406828532688,-125.854102381865,19.6002249847162));
#704=CARTESIAN_POINT('',(162.906828532688,-126.354102381865,19.3670711556387));
#705=CARTESIAN_POINT('',(162.981585429683,-126.42885927886,19.3322114420701));
#706=CARTESIAN_POINT('',(162.906828532688,-126.354102381865,14.3670711556387));
#707=CARTESIAN_POINT('',(162.906828532688,-126.354102381865,14.3670711556387));
#708=CARTESIAN_POINT('',(161.906828532688,-125.354102381865,14.3670711556387));
#709=CARTESIAN_POINT('',(140.344328532687,-103.791602381865,14.3670711556387));
#710=CARTESIAN_POINT('',(161.906828532688,-125.354102381865,19.3670711556387));
#711=CARTESIAN_POINT('',(161.906828532688,-125.354102381865,14.3670711556387));
#712=CARTESIAN_POINT('',(88.3239758941595,-51.7712497433381,-14.9451765385973));
#713=CARTESIAN_POINT('Origin',(162.906828532688,-125.354102381865,19.3670711556387));
#714=CARTESIAN_POINT('',(89.3987327911556,-198.862198123398,53.6444591363061));
#715=CARTESIAN_POINT('',(156.473307771159,-268.420581620337,22.3670711556387));
#716=CARTESIAN_POINT('',(156.473307771159,-125.354102381865,22.3670711556387));
#717=CARTESIAN_POINT('',(162.406828532688,-274.354102381865,19.6002249847162));
#718=CARTESIAN_POINT('',(129.196827571464,-241.144101420641,35.0863027602699));
#719=CARTESIAN_POINT('',(162.906828532688,-273.854102381865,19.3670711556387));
#720=CARTESIAN_POINT('',(196.691586390907,-240.069344523647,3.61297983743901));
#721=CARTESIAN_POINT('',(162.906828532688,-125.354102381865,19.3670711556387));
#722=CARTESIAN_POINT('Origin',(-163.093171467312,-125.354102381865,19.3670711556387));
#723=CARTESIAN_POINT('',(-162.093171467312,-125.354102381865,19.3670711556387));
#724=CARTESIAN_POINT('',(-163.093171467312,-125.354102381865,19.3670711556387));
#725=CARTESIAN_POINT('',(-162.593171467312,-125.854102381865,19.6002249847162));
#726=CARTESIAN_POINT('',(-162.018414570317,-125.279345484871,19.3322114420702));
#727=CARTESIAN_POINT('',(-129.383170506088,-159.06410334309,35.08630276027));
#728=CARTESIAN_POINT('Origin',(162.906828532688,-125.354102381865,14.3670711556387));
#729=CARTESIAN_POINT('',(-162.093171467312,-125.354102381865,14.3670711556387));
#730=CARTESIAN_POINT('',(-163.093171467312,-125.354102381865,14.3670711556387));
#731=CARTESIAN_POINT('',(-162.093171467312,-125.354102381865,14.3670711556387));
#732=CARTESIAN_POINT('Origin',(-162.593171467312,-125.854102381865,14.3670711556387));
#733=CARTESIAN_POINT('',(-163.093171467312,-126.354102381865,14.3670711556387));
#734=CARTESIAN_POINT('',(-140.530671467311,-103.791602381865,14.3670711556387));
#735=CARTESIAN_POINT('',(-163.093171467312,-126.354102381865,19.3670711556387));
#736=CARTESIAN_POINT('',(-163.093171467312,-126.354102381865,14.3670711556387));
#737=CARTESIAN_POINT('',(-196.877929325531,-160.138860240084,3.61297983743893));
#738=CARTESIAN_POINT('Origin',(-163.093171467312,-274.854102381865,19.3670711556387));
#739=CARTESIAN_POINT('',(-163.093171467312,-273.854102381865,19.3670711556387));
#740=CARTESIAN_POINT('',(-163.093171467312,-274.854102381865,19.3670711556387));
#741=CARTESIAN_POINT('',(-162.593171467312,-274.354102381865,19.6002249847162));
#742=CARTESIAN_POINT('',(-163.167928364307,-273.779345484871,19.3322114420702));
#743=CARTESIAN_POINT('',(-156.659650705783,-268.420581620337,22.3670711556387));
#744=CARTESIAN_POINT('',(-89.5850757257801,-201.346006640333,53.644459136306));
#745=CARTESIAN_POINT('',(-156.659650705783,-274.854102381865,22.3670711556387));
#746=CARTESIAN_POINT('Origin',(-162.593171467312,-274.354102381865,14.3670711556387));
#747=CARTESIAN_POINT('',(-163.093171467312,-273.854102381865,14.3670711556387));
#748=CARTESIAN_POINT('',(-163.093171467312,-273.854102381865,14.3670711556387));
#749=CARTESIAN_POINT('',(-162.093171467312,-274.854102381865,14.3670711556387));
#750=CARTESIAN_POINT('',(-140.530671467311,-296.416602381866,14.3670711556387));
#751=CARTESIAN_POINT('',(-162.093171467312,-274.854102381865,19.3670711556387));
#752=CARTESIAN_POINT('',(-162.093171467312,-274.854102381865,14.3670711556387));
#753=CARTESIAN_POINT('',(-88.5103188287834,-348.436955020393,-14.9451765385971));
#754=CARTESIAN_POINT('Origin',(162.906828532688,-274.854102381865,19.3670711556387));
#755=CARTESIAN_POINT('',(161.906828532688,-274.854102381865,19.3670711556387));
#756=CARTESIAN_POINT('',(162.906828532688,-274.854102381865,19.3670711556387));
#757=CARTESIAN_POINT('',(161.832071635693,-274.92885927886,19.3322114420702));
#758=CARTESIAN_POINT('',(162.906828532688,-268.420581620337,22.3670711556387));
#759=CARTESIAN_POINT('Origin',(-163.093171467312,-274.854102381865,14.3670711556387));
#760=CARTESIAN_POINT('',(161.906828532688,-274.854102381865,14.3670711556387));
#761=CARTESIAN_POINT('',(162.906828532688,-274.854102381865,14.3670711556387));
#762=CARTESIAN_POINT('',(161.906828532688,-274.854102381865,14.3670711556387));
#763=CARTESIAN_POINT('Origin',(162.406828532688,-274.354102381865,14.3670711556387));
#764=CARTESIAN_POINT('',(162.906828532688,-273.854102381865,14.3670711556387));
#765=CARTESIAN_POINT('',(140.344328532687,-296.416602381866,14.3670711556387));
#766=CARTESIAN_POINT('',(162.906828532688,-273.854102381865,14.3670711556387));
#767=CARTESIAN_POINT('Origin',(156.473307771159,-131.787623143394,22.3670711556387));
#768=CARTESIAN_POINT('',(156.473307771159,-268.420581620337,22.3670711556387));
#769=CARTESIAN_POINT('Origin',(-156.659650705783,-268.420581620337,22.3670711556387));
#770=CARTESIAN_POINT('',(-156.659650705783,-268.420581620337,22.3670711556387));
#771=CARTESIAN_POINT('Origin',(156.473307771159,-268.420581620337,22.3670711556387));
#772=CARTESIAN_POINT('Origin',(-161.678957904939,-126.768315944238,14.3670711556387));
#773=CARTESIAN_POINT('',(-161.678957904939,-126.768315944238,14.3670711556387));
#774=CARTESIAN_POINT('',(-161.678957904939,-273.439888819492,14.3670711556387));
#775=CARTESIAN_POINT('',(-161.678957904939,-163.436209163052,14.3670711556387));
#776=CARTESIAN_POINT('',(-161.678957904939,-126.768315944238,14.3670711556387));
#777=CARTESIAN_POINT('',(-161.678957904939,-273.439888819492,14.3670711556387));
#778=CARTESIAN_POINT('Origin',(161.492614970315,-126.768315944238,14.3670711556387));
#779=CARTESIAN_POINT('',(161.492614970315,-126.768315944238,14.3670711556387));
#780=CARTESIAN_POINT('',(80.6997217515015,-126.768315944238,14.3670711556387));
#781=CARTESIAN_POINT('',(161.492614970315,-126.768315944238,14.3670711556387));
#782=CARTESIAN_POINT('Origin',(161.492614970315,-273.439888819492,14.3670711556387));
#783=CARTESIAN_POINT('',(161.492614970315,-273.439888819492,14.3670711556387));
#784=CARTESIAN_POINT('',(161.492614970315,-236.771995600679,14.3670711556387));
#785=CARTESIAN_POINT('',(161.492614970315,-273.439888819492,14.3670711556387));
#786=CARTESIAN_POINT('Origin',(-161.678957904939,-273.439888819492,14.3670711556387));
#787=CARTESIAN_POINT('',(-80.8860646861254,-273.439888819492,14.3670711556387));
#788=CARTESIAN_POINT('Origin',(162.906828532688,-274.854102381865,14.3670711556387));
#789=CARTESIAN_POINT('',(162.906828532688,-125.354102381865,14.3670711556387));
#790=CARTESIAN_POINT('Origin',(-163.093171467312,-125.354102381865,14.3670711556387));
#791=CARTESIAN_POINT('',(-163.093171467312,-274.854102381865,14.3670711556387));
#792=CARTESIAN_POINT('Origin',(-0.0931714673119721,-200.104102381865,14.3670711556387));
#793=UNCERTAINTY_MEASURE_WITH_UNIT(LENGTH_MEASURE(0.01),#797,
'DISTANCE_ACCURACY_VALUE',
'Maximum model space distance between geometric entities at asserted c
onnectivities');
#794=UNCERTAINTY_MEASURE_WITH_UNIT(LENGTH_MEASURE(0.01),#797,
'DISTANCE_ACCURACY_VALUE',
'Maximum model space distance between geometric entities at asserted c
onnectivities');
#795=(
GEOMETRIC_REPRESENTATION_CONTEXT(3)
GLOBAL_UNCERTAINTY_ASSIGNED_CONTEXT((#793))
GLOBAL_UNIT_ASSIGNED_CONTEXT((#797,#799,#800))
REPRESENTATION_CONTEXT('','3D')
);
#796=(
GEOMETRIC_REPRESENTATION_CONTEXT(3)
GLOBAL_UNCERTAINTY_ASSIGNED_CONTEXT((#794))
GLOBAL_UNIT_ASSIGNED_CONTEXT((#797,#799,#800))
REPRESENTATION_CONTEXT('','3D')
);
#797=(
LENGTH_UNIT()
NAMED_UNIT(*)
SI_UNIT(.MILLI.,.METRE.)
);
#798=(
LENGTH_UNIT()
NAMED_UNIT(*)
SI_UNIT($,.METRE.)
);
#799=(
NAMED_UNIT(*)
PLANE_ANGLE_UNIT()
SI_UNIT($,.RADIAN.)
);
#800=(
NAMED_UNIT(*)
SI_UNIT($,.STERADIAN.)
SOLID_ANGLE_UNIT()
);
#801=SHAPE_DEFINITION_REPRESENTATION(#802,#803);
#802=PRODUCT_DEFINITION_SHAPE('',$,#805);
#803=SHAPE_REPRESENTATION('',(#505),#795);
#804=PRODUCT_DEFINITION_CONTEXT('part definition',#809,'design');
#805=PRODUCT_DEFINITION('2026-05-02-15-38-30-955','Keyboard lower body',
#806,#804);
#806=PRODUCT_DEFINITION_FORMATION('',$,#811);
#807=PRODUCT_RELATED_PRODUCT_CATEGORY('Keyboard lower body',
'Keyboard lower body',(#811));
#808=APPLICATION_PROTOCOL_DEFINITION('international standard',
'automotive_design',2009,#809);
#809=APPLICATION_CONTEXT(
'Core Data for Automotive Mechanical Design Process');
#810=PRODUCT_CONTEXT('part definition',#809,'mechanical');
#811=PRODUCT('2026-05-02-15-38-30-955','Keyboard lower body',$,(#810));
#812=PRESENTATION_STYLE_ASSIGNMENT((#822));
#813=PRESENTATION_STYLE_ASSIGNMENT((#823));
#814=PRESENTATION_STYLE_ASSIGNMENT((#824));
#815=PRESENTATION_STYLE_ASSIGNMENT((#825));
#816=PRESENTATION_STYLE_ASSIGNMENT((#826));
#817=PRESENTATION_STYLE_ASSIGNMENT((#827));
#818=PRESENTATION_STYLE_ASSIGNMENT((#828));
#819=PRESENTATION_STYLE_ASSIGNMENT((#829));
#820=PRESENTATION_STYLE_ASSIGNMENT((#830));
#821=PRESENTATION_STYLE_ASSIGNMENT((#831));
#822=SURFACE_STYLE_USAGE(.BOTH.,#832);
#823=SURFACE_STYLE_USAGE(.BOTH.,#833);
#824=SURFACE_STYLE_USAGE(.BOTH.,#834);
#825=SURFACE_STYLE_USAGE(.BOTH.,#835);
#826=SURFACE_STYLE_USAGE(.BOTH.,#836);
#827=SURFACE_STYLE_USAGE(.BOTH.,#837);
#828=SURFACE_STYLE_USAGE(.BOTH.,#838);
#829=SURFACE_STYLE_USAGE(.BOTH.,#839);
#830=SURFACE_STYLE_USAGE(.BOTH.,#840);
#831=SURFACE_STYLE_USAGE(.BOTH.,#841);
#832=SURFACE_SIDE_STYLE('',(#842));
#833=SURFACE_SIDE_STYLE('',(#843));
#834=SURFACE_SIDE_STYLE('',(#844));
#835=SURFACE_SIDE_STYLE('',(#845));
#836=SURFACE_SIDE_STYLE('',(#846));
#837=SURFACE_SIDE_STYLE('',(#847));
#838=SURFACE_SIDE_STYLE('',(#848));
#839=SURFACE_SIDE_STYLE('',(#849));
#840=SURFACE_SIDE_STYLE('',(#850));
#841=SURFACE_SIDE_STYLE('',(#851));
#842=SURFACE_STYLE_FILL_AREA(#852);
#843=SURFACE_STYLE_FILL_AREA(#853);
#844=SURFACE_STYLE_FILL_AREA(#854);
#845=SURFACE_STYLE_FILL_AREA(#855);
#846=SURFACE_STYLE_FILL_AREA(#856);
#847=SURFACE_STYLE_FILL_AREA(#857);
#848=SURFACE_STYLE_FILL_AREA(#858);
#849=SURFACE_STYLE_FILL_AREA(#859);
#850=SURFACE_STYLE_FILL_AREA(#860);
#851=SURFACE_STYLE_FILL_AREA(#861);
#852=FILL_AREA_STYLE('Steel - Satin',(#862));
#853=FILL_AREA_STYLE('Paint - Enamel Glossy (Green)',(#863));
#854=FILL_AREA_STYLE('Opaque(248,247,237)',(#864));
#855=FILL_AREA_STYLE('Opaque(204,204,204)',(#865));
#856=FILL_AREA_STYLE('Opaque(219,188,126)',(#866));
#857=FILL_AREA_STYLE('Opaque(70,70,70)',(#867));
#858=FILL_AREA_STYLE('Opaque(210,209,199)',(#868));
#859=FILL_AREA_STYLE('Nylon 12 (with Formlabs Fuse 1 3D Printer)',(#869));
#860=FILL_AREA_STYLE('Opaque(21,22,24)',(#870));
#861=FILL_AREA_STYLE('Opaque(68,150,72)',(#871));
#862=FILL_AREA_STYLE_COLOUR('Steel - Satin',#872);
#863=FILL_AREA_STYLE_COLOUR('Paint - Enamel Glossy (Green)',#873);
#864=FILL_AREA_STYLE_COLOUR('Opaque(248,247,237)',#874);
#865=FILL_AREA_STYLE_COLOUR('Opaque(204,204,204)',#875);
#866=FILL_AREA_STYLE_COLOUR('Opaque(219,188,126)',#876);
#867=FILL_AREA_STYLE_COLOUR('Opaque(70,70,70)',#877);
#868=FILL_AREA_STYLE_COLOUR('Opaque(210,209,199)',#878);
#869=FILL_AREA_STYLE_COLOUR(
'Nylon 12 (with Formlabs Fuse 1 3D Printer)',#879);
#870=FILL_AREA_STYLE_COLOUR('Opaque(21,22,24)',#880);
#871=FILL_AREA_STYLE_COLOUR('Opaque(68,150,72)',#881);
#872=COLOUR_RGB('Steel - Satin',0.627450980392157,0.627450980392157,0.627450980392157);
#873=COLOUR_RGB('Paint - Enamel Glossy (Green)',0.266666666666667,0.588235294117647,
0.282352941176471);
#874=COLOUR_RGB('Opaque(248,247,237)',0.972549019607843,0.968627450980392,
0.929411764705882);
#875=COLOUR_RGB('Opaque(204,204,204)',0.8,0.8,0.8);
#876=COLOUR_RGB('Opaque(219,188,126)',0.858823529411765,0.737254901960784,
0.494117647058824);
#877=COLOUR_RGB('Opaque(70,70,70)',0.274509803921569,0.274509803921569,
0.274509803921569);
#878=COLOUR_RGB('Opaque(210,209,199)',0.823529411764706,0.819607843137255,
0.780392156862745);
#879=COLOUR_RGB('Nylon 12 (with Formlabs Fuse 1 3D Printer)',0.247058823529412,
0.247058823529412,0.247058823529412);
#880=COLOUR_RGB('Opaque(21,22,24)',0.0823529411764706,0.0862745098039216,
0.0941176470588235);
#881=COLOUR_RGB('Opaque(68,150,72)',0.266666666666667,0.588235294117647,
0.282352941176471);
ENDSEC;
END-ISO-10303-21;
