M48
; DRILL file KiCad 10.0.0 date 2026-05-02T13:30:20
; FORMAT={-:-/ absolute / metric / decimal}
; #@! TF.CreationDate,2026-05-02T13:30:20+05:00
; #@! TF.GenerationSoftware,Kicad,Pcbnew,10.0.0
; #@! TF.FileFunction,NonPlated,1,2,NPTH
FMAT,2
METRIC
; #@! TA.AperFunction,NonPlated,NPTH,ComponentDrill
T1C0.650
; #@! TA.AperFunction,NonPlated,NPTH,ComponentDrill
T2C1.600
; #@! TA.AperFunction,NonPlated,NPTH,ComponentDrill
T3C1.750
; #@! TA.AperFunction,NonPlated,NPTH,ComponentDrill
T4C2.100
; #@! TA.AperFunction,NonPlated,NPTH,ComponentDrill
T5C3.048
; #@! TA.AperFunction,NonPlated,NPTH,ComponentDrill
T6C3.050
; #@! TA.AperFunction,NonPlated,NPTH,ComponentDrill
T7C3.200
; #@! TA.AperFunction,NonPlated,NPTH,ComponentDrill
T8C3.988
; #@! TA.AperFunction,NonPlated,NPTH,ComponentDrill
T9C4.000
%
G90
G05
T1
X197.97Y-55.925
X203.75Y-55.925
T3
X54.625Y-82.4
X54.625Y-101.45
X57.006Y-177.65
X59.387Y-120.5
X61.769Y-139.55
X64.785Y-82.4
X64.785Y-101.45
X66.531Y-158.6
X67.166Y-177.65
X69.547Y-120.5
X71.929Y-139.55
X73.675Y-82.4
X73.675Y-101.45
X76.691Y-158.6
X80.819Y-177.65
X83.2Y-120.5
X83.835Y-82.4
X83.835Y-101.45
X87.962Y-139.55
X90.979Y-177.65
X92.725Y-82.4
X92.725Y-101.45
X93.36Y-120.5
X97.487Y-158.6
X98.123Y-139.55
X102.25Y-120.5
X102.885Y-82.4
X102.885Y-101.45
X104.631Y-177.65
X107.012Y-139.55
X107.647Y-158.6
X111.775Y-82.4
X111.775Y-101.45
X112.41Y-120.5
X114.791Y-177.65
X116.537Y-158.6
X117.172Y-139.55
X121.3Y-120.5
X121.935Y-82.4
X121.935Y-101.45
X126.062Y-139.55
X126.697Y-158.6
X130.825Y-82.4
X130.825Y-101.45
X131.46Y-120.5
X135.588Y-158.6
X136.222Y-139.55
X140.35Y-120.5
X140.985Y-82.4
X140.985Y-101.45
X145.112Y-139.55
X145.748Y-158.6
X149.875Y-82.4
X149.875Y-101.45
X150.51Y-120.5
X154.637Y-158.6
X155.272Y-139.55
X159.4Y-120.5
X160.035Y-82.4
X160.035Y-101.45
X164.162Y-139.55
X164.797Y-158.6
X168.925Y-82.4
X168.925Y-101.45
X169.56Y-120.5
X173.688Y-158.6
X174.322Y-139.55
X176.069Y-177.65
X178.45Y-120.5
X179.085Y-82.4
X179.085Y-101.45
X183.213Y-139.55
X183.847Y-158.6
X186.229Y-177.65
X187.975Y-82.4
X187.975Y-101.45
X188.61Y-120.5
X192.737Y-158.6
X193.373Y-139.55
X197.5Y-120.5
X198.135Y-82.4
X198.135Y-101.45
X202.262Y-139.55
X202.897Y-158.6
X207.025Y-82.4
X207.025Y-101.45
X207.66Y-120.5
X211.787Y-158.6
X212.422Y-139.55
X216.55Y-120.5
X217.185Y-82.4
X217.185Y-101.45
X221.312Y-139.55
X221.947Y-158.6
X226.075Y-82.4
X226.075Y-101.45
X226.71Y-120.5
X230.837Y-158.6
X231.472Y-139.55
X235.6Y-120.5
X236.235Y-82.4
X236.235Y-101.45
X240.362Y-139.55
X240.998Y-158.6
X245.125Y-82.4
X245.125Y-101.45
X245.125Y-177.65
X245.76Y-120.5
X249.887Y-158.6
X250.522Y-139.55
X254.65Y-120.5
X255.285Y-82.4
X255.285Y-101.45
X255.285Y-177.65
X259.412Y-139.55
X260.048Y-158.6
X264.175Y-82.4
X264.175Y-101.45
X264.175Y-177.65
X264.81Y-120.5
X268.938Y-158.6
X269.572Y-139.55
X273.7Y-120.5
X274.335Y-82.4
X274.335Y-101.45
X274.335Y-177.65
X278.462Y-139.55
X279.097Y-158.6
X283.225Y-82.4
X283.225Y-101.45
X283.225Y-177.65
X283.86Y-120.5
X288.623Y-139.55
X292.75Y-120.5
X293.385Y-82.4
X293.385Y-101.45
X293.385Y-177.65
X295.131Y-158.6
X302.275Y-82.4
X302.275Y-177.65
X302.91Y-120.5
X305.291Y-158.6
X309.419Y-139.55
X311.8Y-101.45
X312.435Y-82.4
X312.435Y-177.65
X316.562Y-120.5
X319.579Y-139.55
X321.325Y-82.4
X321.325Y-158.6
X321.325Y-177.65
X321.96Y-101.45
X326.722Y-120.5
X331.485Y-82.4
X331.485Y-158.6
X331.485Y-177.65
X340.375Y-82.4
X340.375Y-101.45
X340.375Y-120.5
X340.375Y-139.55
X340.375Y-158.6
X340.375Y-177.65
X350.535Y-82.4
X350.535Y-101.45
X350.535Y-120.5
X350.535Y-139.55
X350.535Y-158.6
X350.535Y-177.65
T4
X346.5Y-61.5
T5
X59.673Y-151.615
X83.549Y-151.615
X131.149Y-170.665
X231.149Y-170.665
X302.561Y-132.565
X304.942Y-94.465
X326.437Y-132.565
X328.818Y-94.465
T6
X55.895Y-79.86
X55.895Y-98.91
X58.276Y-175.11
X60.657Y-117.96
X62.245Y-77.32
X62.245Y-96.37
X63.039Y-137.01
X64.626Y-172.57
X67.007Y-115.42
X67.801Y-156.06
X69.389Y-134.47
X74.151Y-153.52
X74.945Y-79.86
X74.945Y-98.91
X81.295Y-77.32
X81.295Y-96.37
X82.089Y-175.11
X84.47Y-117.96
X88.439Y-172.57
X89.233Y-137.01
X90.82Y-115.42
X93.995Y-79.86
X93.995Y-98.91
X95.582Y-134.47
X98.757Y-156.06
X100.345Y-77.32
X100.345Y-96.37
X103.52Y-117.96
X105.108Y-153.52
X105.901Y-175.11
X108.282Y-137.01
X109.87Y-115.42
X112.251Y-172.57
X113.045Y-79.86
X113.045Y-98.91
X114.632Y-134.47
X117.807Y-156.06
X119.395Y-77.32
X119.395Y-96.37
X122.57Y-117.96
X124.157Y-153.52
X127.332Y-137.01
X128.92Y-115.42
X132.095Y-79.86
X132.095Y-98.91
X133.683Y-134.47
X136.857Y-156.06
X138.445Y-77.32
X138.445Y-96.37
X141.62Y-117.96
X143.207Y-153.52
X146.382Y-137.01
X147.97Y-115.42
X151.145Y-79.86
X151.145Y-98.91
X152.732Y-134.47
X155.907Y-156.06
X157.495Y-77.32
X157.495Y-96.37
X160.67Y-117.96
X162.257Y-153.52
X165.433Y-137.01
X167.02Y-115.42
X170.195Y-79.86
X170.195Y-98.91
X171.782Y-134.47
X174.957Y-156.06
X176.545Y-77.32
X176.545Y-96.37
X177.339Y-175.11
X179.72Y-117.96
X181.308Y-153.52
X183.689Y-172.57
X184.482Y-137.01
X186.07Y-115.42
X189.245Y-79.86
X189.245Y-98.91
X190.832Y-134.47
X194.007Y-156.06
X195.595Y-77.32
X195.595Y-96.37
X198.77Y-117.96
X200.357Y-153.52
X203.532Y-137.01
X205.12Y-115.42
X208.295Y-79.86
X208.295Y-98.91
X209.882Y-134.47
X213.058Y-156.06
X214.645Y-77.32
X214.645Y-96.37
X217.82Y-117.96
X219.407Y-153.52
X222.582Y-137.01
X224.17Y-115.42
X227.345Y-79.86
X227.345Y-98.91
X228.932Y-134.47
X232.107Y-156.06
X233.695Y-77.32
X233.695Y-96.37
X236.87Y-117.96
X238.457Y-153.52
X241.632Y-137.01
X243.22Y-115.42
X246.395Y-79.86
X246.395Y-98.91
X246.395Y-175.11
X247.982Y-134.47
X251.157Y-156.06
X252.745Y-77.32
X252.745Y-96.37
X252.745Y-172.57
X255.92Y-117.96
X257.507Y-153.52
X260.683Y-137.01
X262.27Y-115.42
X265.445Y-79.86
X265.445Y-98.91
X265.445Y-175.11
X267.032Y-134.47
X270.207Y-156.06
X271.795Y-77.32
X271.795Y-96.37
X271.795Y-172.57
X274.97Y-117.96
X276.558Y-153.52
X279.732Y-137.01
X281.32Y-115.42
X284.495Y-79.86
X284.495Y-98.91
X284.495Y-175.11
X286.082Y-134.47
X290.845Y-77.32
X290.845Y-96.37
X290.845Y-172.57
X294.02Y-117.96
X296.401Y-156.06
X300.37Y-115.42
X302.751Y-153.52
X303.545Y-79.86
X303.545Y-175.11
X309.895Y-77.32
X309.895Y-172.57
X310.689Y-137.01
X313.07Y-98.91
X317.039Y-134.47
X317.832Y-117.96
X319.42Y-96.37
X322.595Y-79.86
X322.595Y-156.06
X322.595Y-175.11
X324.183Y-115.42
X328.945Y-77.32
X328.945Y-153.52
X328.945Y-172.57
X341.645Y-79.86
X341.645Y-98.91
X341.645Y-117.96
X341.645Y-137.01
X341.645Y-156.06
X341.645Y-175.11
X347.995Y-77.32
X347.995Y-96.37
X347.995Y-115.42
X347.995Y-134.47
X347.995Y-153.52
X347.995Y-172.57
T7
X47.0Y-187.5
X171.5Y-60.0
X239.0Y-60.0
X357.0Y-187.5
T8
X59.673Y-166.825
X83.549Y-166.825
X131.149Y-185.875
X231.149Y-185.875
X302.561Y-147.775
X304.942Y-109.675
X326.437Y-147.775
X328.818Y-109.675
T9
X59.705Y-82.4
X59.705Y-101.45
X62.086Y-177.65
X64.468Y-120.5
X66.849Y-139.55
X71.611Y-158.6
X78.755Y-82.4
X78.755Y-101.45
X85.899Y-177.65
X88.28Y-120.5
X93.042Y-139.55
X97.805Y-82.4
X97.805Y-101.45
X102.567Y-158.6
X107.33Y-120.5
X109.711Y-177.65
X112.093Y-139.55
X116.855Y-82.4
X116.855Y-101.45
X121.617Y-158.6
X126.38Y-120.5
X131.142Y-139.55
X135.905Y-82.4
X135.905Y-101.45
X140.667Y-158.6
X145.43Y-120.5
X150.192Y-139.55
X154.955Y-82.4
X154.955Y-101.45
X159.718Y-158.6
X164.48Y-120.5
X169.242Y-139.55
X174.005Y-82.4
X174.005Y-101.45
X178.767Y-158.6
X181.149Y-177.65
X183.53Y-120.5
X188.292Y-139.55
X193.055Y-82.4
X193.055Y-101.45
X197.817Y-158.6
X202.58Y-120.5
X207.343Y-139.55
X212.105Y-82.4
X212.105Y-101.45
X216.867Y-158.6
X221.63Y-120.5
X226.392Y-139.55
X231.155Y-82.4
X231.155Y-101.45
X235.917Y-158.6
X240.68Y-120.5
X245.442Y-139.55
X250.205Y-82.4
X250.205Y-101.45
X250.205Y-177.65
X254.968Y-158.6
X259.73Y-120.5
X264.493Y-139.55
X269.255Y-82.4
X269.255Y-101.45
X269.255Y-177.65
X274.017Y-158.6
X278.78Y-120.5
X283.542Y-139.55
X288.305Y-82.4
X288.305Y-101.45
X288.305Y-177.65
X297.83Y-120.5
X300.211Y-158.6
X307.355Y-82.4
X307.355Y-177.65
X314.499Y-139.55
X316.88Y-101.45
X321.642Y-120.5
X326.405Y-82.4
X326.405Y-158.6
X326.405Y-177.65
X345.455Y-82.4
X345.455Y-101.45
X345.455Y-120.5
X345.455Y-139.55
X345.455Y-158.6
X345.455Y-177.65
T2
G00X341.7Y-61.5
M15
G01X342.3Y-61.5
M16
G05
M30
