%TF.GenerationSoftware,KiCad,Pcbnew,10.0.0*%
%TF.CreationDate,2026-05-02T13:29:57+05:00*%
%TF.ProjectId,Ghoost Board,47686f6f-7374-4204-926f-6172642e6b69,rev?*%
%TF.SameCoordinates,Original*%
%TF.FileFunction,Profile,NP*%
%FSLAX46Y46*%
G04 Gerber Fmt 4.6, Leading zero omitted, Abs format (unit mm)*
G04 Created by KiCad (PCBNEW 10.0.0) date 2026-05-02 13:29:57*
%MOMM*%
%LPD*%
G01*
G04 APERTURE LIST*
%TA.AperFunction,Profile*%
%ADD10C,0.050000*%
%TD*%
%TA.AperFunction,Profile*%
%ADD11C,0.120000*%
%TD*%
G04 APERTURE END LIST*
D10*
X42500000Y-54499999D02*
X42500000Y-54499999D01*
G75*
G02*
X47500000Y-49499999I5000000J-1D01*
G01*
X356499999Y-49499999D01*
G75*
G02*
X361499999Y-54499999I1J-5000001D01*
G01*
X361499999Y-187000000D01*
G75*
G02*
X356499999Y-192000000I-4999999J0D01*
G01*
X47500000Y-192000000D01*
G75*
G02*
X42500000Y-187000000I0J5000000D01*
G01*
X42500000Y-54499999D01*
%TO.C,LED10*%
D11*
X230025000Y-87750000D02*
X230025000Y-87049647D01*
X230025000Y-87750000D02*
X230025000Y-88450353D01*
X231725000Y-86250000D02*
X230824647Y-86250000D01*
X231725000Y-86250000D02*
X232625353Y-86250000D01*
X231725000Y-89250000D02*
X230824647Y-89250000D01*
X231725000Y-89250000D02*
X232625353Y-89250000D01*
X233425000Y-87750000D02*
X233425000Y-87049647D01*
X233425000Y-87750000D02*
X233425000Y-88450353D01*
X229981066Y-86893345D02*
G75*
G02*
X230024976Y-87049647I-256066J-156255D01*
G01*
X229981066Y-86893345D02*
G75*
G02*
X230668345Y-86206066I426774J260505D01*
G01*
X230025000Y-88450353D02*
G75*
G02*
X229981065Y-88606654I-299680J-87D01*
G01*
X230668345Y-89293934D02*
G75*
G02*
X229981066Y-88606655I-260505J426774D01*
G01*
X230668345Y-89293934D02*
G75*
G02*
X230824647Y-89250024I156255J-256066D01*
G01*
X230824647Y-86250000D02*
G75*
G02*
X230668344Y-86206067I3J300020D01*
G01*
X232625353Y-89250000D02*
G75*
G02*
X232781655Y-89293934I3J-299992D01*
G01*
X232781655Y-86206066D02*
G75*
G02*
X232625353Y-86250000I-156299J256058D01*
G01*
X232781655Y-86206066D02*
G75*
G02*
X233468934Y-86893345I260503J-426776D01*
G01*
X233425000Y-87049647D02*
G75*
G02*
X233468934Y-86893345I299992J3D01*
G01*
X233468934Y-88606655D02*
G75*
G02*
X232781655Y-89293934I-426776J-260503D01*
G01*
X233468934Y-88606655D02*
G75*
G02*
X233425000Y-88450353I256058J156299D01*
G01*
%TO.C,LED20*%
X115155000Y-106750000D02*
X115155000Y-106049647D01*
X115155000Y-106750000D02*
X115155000Y-107450353D01*
X116855000Y-105250000D02*
X115954647Y-105250000D01*
X116855000Y-105250000D02*
X117755353Y-105250000D01*
X116855000Y-108250000D02*
X115954647Y-108250000D01*
X116855000Y-108250000D02*
X117755353Y-108250000D01*
X118555000Y-106750000D02*
X118555000Y-106049647D01*
X118555000Y-106750000D02*
X118555000Y-107450353D01*
X115111066Y-105893345D02*
G75*
G02*
X115154976Y-106049647I-256066J-156255D01*
G01*
X115111066Y-105893345D02*
G75*
G02*
X115798345Y-105206066I426774J260505D01*
G01*
X115155000Y-107450353D02*
G75*
G02*
X115111065Y-107606654I-299680J-87D01*
G01*
X115798345Y-108293934D02*
G75*
G02*
X115111066Y-107606655I-260505J426774D01*
G01*
X115798345Y-108293934D02*
G75*
G02*
X115954647Y-108250024I156255J-256066D01*
G01*
X115954647Y-105250000D02*
G75*
G02*
X115798344Y-105206067I3J300020D01*
G01*
X117755353Y-108250000D02*
G75*
G02*
X117911655Y-108293934I3J-299992D01*
G01*
X117911655Y-105206066D02*
G75*
G02*
X117755353Y-105250000I-156299J256058D01*
G01*
X117911655Y-105206066D02*
G75*
G02*
X118598934Y-105893345I260503J-426776D01*
G01*
X118555000Y-106049647D02*
G75*
G02*
X118598934Y-105893345I299992J3D01*
G01*
X118598934Y-107606655D02*
G75*
G02*
X117911655Y-108293934I-426776J-260503D01*
G01*
X118598934Y-107606655D02*
G75*
G02*
X118555000Y-107450353I256058J156299D01*
G01*
%TO.C,LED61*%
X69800000Y-164000000D02*
X69800000Y-163299647D01*
X69800000Y-164000000D02*
X69800000Y-164700353D01*
X71500000Y-162500000D02*
X70599647Y-162500000D01*
X71500000Y-162500000D02*
X72400353Y-162500000D01*
X71500000Y-165500000D02*
X70599647Y-165500000D01*
X71500000Y-165500000D02*
X72400353Y-165500000D01*
X73200000Y-164000000D02*
X73200000Y-163299647D01*
X73200000Y-164000000D02*
X73200000Y-164700353D01*
X69756066Y-163143345D02*
G75*
G02*
X69799976Y-163299647I-256066J-156255D01*
G01*
X69756066Y-163143345D02*
G75*
G02*
X70443345Y-162456066I426774J260505D01*
G01*
X69800000Y-164700353D02*
G75*
G02*
X69756065Y-164856654I-299680J-87D01*
G01*
X70443345Y-165543934D02*
G75*
G02*
X69756066Y-164856655I-260505J426774D01*
G01*
X70443345Y-165543934D02*
G75*
G02*
X70599647Y-165500024I156255J-256066D01*
G01*
X70599647Y-162500000D02*
G75*
G02*
X70443344Y-162456067I3J300020D01*
G01*
X72400353Y-165500000D02*
G75*
G02*
X72556655Y-165543934I3J-299992D01*
G01*
X72556655Y-162456066D02*
G75*
G02*
X72400353Y-162500000I-156299J256058D01*
G01*
X72556655Y-162456066D02*
G75*
G02*
X73243934Y-163143345I260503J-426776D01*
G01*
X73200000Y-163299647D02*
G75*
G02*
X73243934Y-163143345I299992J3D01*
G01*
X73243934Y-164856655D02*
G75*
G02*
X72556655Y-165543934I-426776J-260503D01*
G01*
X73243934Y-164856655D02*
G75*
G02*
X73200000Y-164700353I256058J156299D01*
G01*
%TO.C,LED39*%
X201300000Y-125500000D02*
X201300000Y-124799647D01*
X201300000Y-125500000D02*
X201300000Y-126200353D01*
X203000000Y-124000000D02*
X202099647Y-124000000D01*
X203000000Y-124000000D02*
X203900353Y-124000000D01*
X203000000Y-127000000D02*
X202099647Y-127000000D01*
X203000000Y-127000000D02*
X203900353Y-127000000D01*
X204700000Y-125500000D02*
X204700000Y-124799647D01*
X204700000Y-125500000D02*
X204700000Y-126200353D01*
X201256066Y-124643345D02*
G75*
G02*
X201299976Y-124799647I-256066J-156255D01*
G01*
X201256066Y-124643345D02*
G75*
G02*
X201943345Y-123956066I426774J260505D01*
G01*
X201300000Y-126200353D02*
G75*
G02*
X201256065Y-126356654I-299680J-87D01*
G01*
X201943345Y-127043934D02*
G75*
G02*
X201256066Y-126356655I-260505J426774D01*
G01*
X201943345Y-127043934D02*
G75*
G02*
X202099647Y-127000024I156255J-256066D01*
G01*
X202099647Y-124000000D02*
G75*
G02*
X201943344Y-123956067I3J300020D01*
G01*
X203900353Y-127000000D02*
G75*
G02*
X204056655Y-127043934I3J-299992D01*
G01*
X204056655Y-123956066D02*
G75*
G02*
X203900353Y-124000000I-156299J256058D01*
G01*
X204056655Y-123956066D02*
G75*
G02*
X204743934Y-124643345I260503J-426776D01*
G01*
X204700000Y-124799647D02*
G75*
G02*
X204743934Y-124643345I299992J3D01*
G01*
X204743934Y-126356655D02*
G75*
G02*
X204056655Y-127043934I-426776J-260503D01*
G01*
X204743934Y-126356655D02*
G75*
G02*
X204700000Y-126200353I256058J156299D01*
G01*
%TO.C,LED48*%
X91342500Y-144500000D02*
X91342500Y-143799647D01*
X91342500Y-144500000D02*
X91342500Y-145200353D01*
X93042500Y-143000000D02*
X92142147Y-143000000D01*
X93042500Y-143000000D02*
X93942853Y-143000000D01*
X93042500Y-146000000D02*
X92142147Y-146000000D01*
X93042500Y-146000000D02*
X93942853Y-146000000D01*
X94742500Y-144500000D02*
X94742500Y-143799647D01*
X94742500Y-144500000D02*
X94742500Y-145200353D01*
X91298566Y-143643345D02*
G75*
G02*
X91342476Y-143799647I-256066J-156255D01*
G01*
X91298566Y-143643345D02*
G75*
G02*
X91985845Y-142956066I426774J260505D01*
G01*
X91342500Y-145200353D02*
G75*
G02*
X91298565Y-145356654I-299680J-87D01*
G01*
X91985845Y-146043934D02*
G75*
G02*
X91298566Y-145356655I-260505J426774D01*
G01*
X91985845Y-146043934D02*
G75*
G02*
X92142147Y-146000024I156255J-256066D01*
G01*
X92142147Y-143000000D02*
G75*
G02*
X91985844Y-142956067I3J300020D01*
G01*
X93942853Y-146000000D02*
G75*
G02*
X94099155Y-146043934I3J-299992D01*
G01*
X94099155Y-142956066D02*
G75*
G02*
X93942853Y-143000000I-156299J256058D01*
G01*
X94099155Y-142956066D02*
G75*
G02*
X94786434Y-143643345I260503J-426776D01*
G01*
X94742500Y-143799647D02*
G75*
G02*
X94786434Y-143643345I299992J3D01*
G01*
X94786434Y-145356655D02*
G75*
G02*
X94099155Y-146043934I-426776J-260503D01*
G01*
X94786434Y-145356655D02*
G75*
G02*
X94742500Y-145200353I256058J156299D01*
G01*
%TO.C,LED4*%
X115525000Y-87750000D02*
X115525000Y-87049647D01*
X115525000Y-87750000D02*
X115525000Y-88450353D01*
X117225000Y-86250000D02*
X116324647Y-86250000D01*
X117225000Y-86250000D02*
X118125353Y-86250000D01*
X117225000Y-89250000D02*
X116324647Y-89250000D01*
X117225000Y-89250000D02*
X118125353Y-89250000D01*
X118925000Y-87750000D02*
X118925000Y-87049647D01*
X118925000Y-87750000D02*
X118925000Y-88450353D01*
X115481066Y-86893345D02*
G75*
G02*
X115524976Y-87049647I-256066J-156255D01*
G01*
X115481066Y-86893345D02*
G75*
G02*
X116168345Y-86206066I426774J260505D01*
G01*
X115525000Y-88450353D02*
G75*
G02*
X115481065Y-88606654I-299680J-87D01*
G01*
X116168345Y-89293934D02*
G75*
G02*
X115481066Y-88606655I-260505J426774D01*
G01*
X116168345Y-89293934D02*
G75*
G02*
X116324647Y-89250024I156255J-256066D01*
G01*
X116324647Y-86250000D02*
G75*
G02*
X116168344Y-86206067I3J300020D01*
G01*
X118125353Y-89250000D02*
G75*
G02*
X118281655Y-89293934I3J-299992D01*
G01*
X118281655Y-86206066D02*
G75*
G02*
X118125353Y-86250000I-156299J256058D01*
G01*
X118281655Y-86206066D02*
G75*
G02*
X118968934Y-86893345I260503J-426776D01*
G01*
X118925000Y-87049647D02*
G75*
G02*
X118968934Y-86893345I299992J3D01*
G01*
X118968934Y-88606655D02*
G75*
G02*
X118281655Y-89293934I-426776J-260503D01*
G01*
X118968934Y-88606655D02*
G75*
G02*
X118925000Y-88450353I256058J156299D01*
G01*
%TO.C,LED22*%
X153254999Y-106750000D02*
X153254999Y-106049647D01*
X153254999Y-106750000D02*
X153254999Y-107450353D01*
X154954999Y-105250000D02*
X154054646Y-105250000D01*
X154954999Y-105250000D02*
X155855352Y-105250000D01*
X154954999Y-108250000D02*
X154054646Y-108250000D01*
X154954999Y-108250000D02*
X155855352Y-108250000D01*
X156654999Y-106750000D02*
X156654999Y-106049647D01*
X156654999Y-106750000D02*
X156654999Y-107450353D01*
X153211065Y-105893345D02*
G75*
G02*
X153254975Y-106049647I-256066J-156255D01*
G01*
X153211065Y-105893345D02*
G75*
G02*
X153898344Y-105206066I426774J260505D01*
G01*
X153254999Y-107450353D02*
G75*
G02*
X153211064Y-107606654I-299680J-87D01*
G01*
X153898344Y-108293934D02*
G75*
G02*
X153211065Y-107606655I-260505J426774D01*
G01*
X153898344Y-108293934D02*
G75*
G02*
X154054646Y-108250024I156255J-256066D01*
G01*
X154054646Y-105250000D02*
G75*
G02*
X153898343Y-105206067I3J300020D01*
G01*
X155855352Y-108250000D02*
G75*
G02*
X156011654Y-108293934I3J-299992D01*
G01*
X156011654Y-105206066D02*
G75*
G02*
X155855352Y-105250000I-156299J256058D01*
G01*
X156011654Y-105206066D02*
G75*
G02*
X156698933Y-105893345I260503J-426776D01*
G01*
X156654999Y-106049647D02*
G75*
G02*
X156698933Y-105893345I299992J3D01*
G01*
X156698933Y-107606655D02*
G75*
G02*
X156011654Y-108293934I-426776J-260503D01*
G01*
X156698933Y-107606655D02*
G75*
G02*
X156654999Y-107450353I256058J156299D01*
G01*
%TO.C,LED24*%
X191525000Y-106750000D02*
X191525000Y-106049647D01*
X191525000Y-106750000D02*
X191525000Y-107450353D01*
X193225000Y-105250000D02*
X192324647Y-105250000D01*
X193225000Y-105250000D02*
X194125353Y-105250000D01*
X193225000Y-108250000D02*
X192324647Y-108250000D01*
X193225000Y-108250000D02*
X194125353Y-108250000D01*
X194925000Y-106750000D02*
X194925000Y-106049647D01*
X194925000Y-106750000D02*
X194925000Y-107450353D01*
X191481066Y-105893345D02*
G75*
G02*
X191524976Y-106049647I-256066J-156255D01*
G01*
X191481066Y-105893345D02*
G75*
G02*
X192168345Y-105206066I426774J260505D01*
G01*
X191525000Y-107450353D02*
G75*
G02*
X191481065Y-107606654I-299680J-87D01*
G01*
X192168345Y-108293934D02*
G75*
G02*
X191481066Y-107606655I-260505J426774D01*
G01*
X192168345Y-108293934D02*
G75*
G02*
X192324647Y-108250024I156255J-256066D01*
G01*
X192324647Y-105250000D02*
G75*
G02*
X192168344Y-105206067I3J300020D01*
G01*
X194125353Y-108250000D02*
G75*
G02*
X194281655Y-108293934I3J-299992D01*
G01*
X194281655Y-105206066D02*
G75*
G02*
X194125353Y-105250000I-156299J256058D01*
G01*
X194281655Y-105206066D02*
G75*
G02*
X194968934Y-105893345I260503J-426776D01*
G01*
X194925000Y-106049647D02*
G75*
G02*
X194968934Y-105893345I299992J3D01*
G01*
X194968934Y-107606655D02*
G75*
G02*
X194281655Y-108293934I-426776J-260503D01*
G01*
X194968934Y-107606655D02*
G75*
G02*
X194925000Y-107450353I256058J156299D01*
G01*
%TO.C,LED15*%
X325025000Y-87750000D02*
X325025000Y-87049647D01*
X325025000Y-87750000D02*
X325025000Y-88450353D01*
X326725000Y-86250000D02*
X325824647Y-86250000D01*
X326725000Y-86250000D02*
X327625353Y-86250000D01*
X326725000Y-89250000D02*
X325824647Y-89250000D01*
X326725000Y-89250000D02*
X327625353Y-89250000D01*
X328425000Y-87750000D02*
X328425000Y-87049647D01*
X328425000Y-87750000D02*
X328425000Y-88450353D01*
X324981066Y-86893345D02*
G75*
G02*
X325024976Y-87049647I-256066J-156255D01*
G01*
X324981066Y-86893345D02*
G75*
G02*
X325668345Y-86206066I426774J260505D01*
G01*
X325025000Y-88450353D02*
G75*
G02*
X324981065Y-88606654I-299680J-87D01*
G01*
X325668345Y-89293934D02*
G75*
G02*
X324981066Y-88606655I-260505J426774D01*
G01*
X325668345Y-89293934D02*
G75*
G02*
X325824647Y-89250024I156255J-256066D01*
G01*
X325824647Y-86250000D02*
G75*
G02*
X325668344Y-86206067I3J300020D01*
G01*
X327625353Y-89250000D02*
G75*
G02*
X327781655Y-89293934I3J-299992D01*
G01*
X327781655Y-86206066D02*
G75*
G02*
X327625353Y-86250000I-156299J256058D01*
G01*
X327781655Y-86206066D02*
G75*
G02*
X328468934Y-86893345I260503J-426776D01*
G01*
X328425000Y-87049647D02*
G75*
G02*
X328468934Y-86893345I299992J3D01*
G01*
X328468934Y-88606655D02*
G75*
G02*
X327781655Y-89293934I-426776J-260503D01*
G01*
X328468934Y-88606655D02*
G75*
G02*
X328425000Y-88450353I256058J156299D01*
G01*
%TO.C,LED57*%
X262800000Y-145000000D02*
X262800000Y-144299647D01*
X262800000Y-145000000D02*
X262800000Y-145700353D01*
X264500000Y-143500000D02*
X263599647Y-143500000D01*
X264500000Y-143500000D02*
X265400353Y-143500000D01*
X264500000Y-146500000D02*
X263599647Y-146500000D01*
X264500000Y-146500000D02*
X265400353Y-146500000D01*
X266200000Y-145000000D02*
X266200000Y-144299647D01*
X266200000Y-145000000D02*
X266200000Y-145700353D01*
X262756066Y-144143345D02*
G75*
G02*
X262799976Y-144299647I-256066J-156255D01*
G01*
X262756066Y-144143345D02*
G75*
G02*
X263443345Y-143456066I426774J260505D01*
G01*
X262800000Y-145700353D02*
G75*
G02*
X262756065Y-145856654I-299680J-87D01*
G01*
X263443345Y-146543934D02*
G75*
G02*
X262756066Y-145856655I-260505J426774D01*
G01*
X263443345Y-146543934D02*
G75*
G02*
X263599647Y-146500024I156255J-256066D01*
G01*
X263599647Y-143500000D02*
G75*
G02*
X263443344Y-143456067I3J300020D01*
G01*
X265400353Y-146500000D02*
G75*
G02*
X265556655Y-146543934I3J-299992D01*
G01*
X265556655Y-143456066D02*
G75*
G02*
X265400353Y-143500000I-156299J256058D01*
G01*
X265556655Y-143456066D02*
G75*
G02*
X266243934Y-144143345I260503J-426776D01*
G01*
X266200000Y-144299647D02*
G75*
G02*
X266243934Y-144143345I299992J3D01*
G01*
X266243934Y-145856655D02*
G75*
G02*
X265556655Y-146543934I-426776J-260503D01*
G01*
X266243934Y-145856655D02*
G75*
G02*
X266200000Y-145700353I256058J156299D01*
G01*
%TO.C,LED53*%
X186800000Y-145000000D02*
X186800000Y-144299647D01*
X186800000Y-145000000D02*
X186800000Y-145700353D01*
X188500000Y-143500000D02*
X187599647Y-143500000D01*
X188500000Y-143500000D02*
X189400353Y-143500000D01*
X188500000Y-146500000D02*
X187599647Y-146500000D01*
X188500000Y-146500000D02*
X189400353Y-146500000D01*
X190200000Y-145000000D02*
X190200000Y-144299647D01*
X190200000Y-145000000D02*
X190200000Y-145700353D01*
X186756066Y-144143345D02*
G75*
G02*
X186799976Y-144299647I-256066J-156255D01*
G01*
X186756066Y-144143345D02*
G75*
G02*
X187443345Y-143456066I426774J260505D01*
G01*
X186800000Y-145700353D02*
G75*
G02*
X186756065Y-145856654I-299680J-87D01*
G01*
X187443345Y-146543934D02*
G75*
G02*
X186756066Y-145856655I-260505J426774D01*
G01*
X187443345Y-146543934D02*
G75*
G02*
X187599647Y-146500024I156255J-256066D01*
G01*
X187599647Y-143500000D02*
G75*
G02*
X187443344Y-143456067I3J300020D01*
G01*
X189400353Y-146500000D02*
G75*
G02*
X189556655Y-146543934I3J-299992D01*
G01*
X189556655Y-143456066D02*
G75*
G02*
X189400353Y-143500000I-156299J256058D01*
G01*
X189556655Y-143456066D02*
G75*
G02*
X190243934Y-144143345I260503J-426776D01*
G01*
X190200000Y-144299647D02*
G75*
G02*
X190243934Y-144143345I299992J3D01*
G01*
X190243934Y-145856655D02*
G75*
G02*
X189556655Y-146543934I-426776J-260503D01*
G01*
X190243934Y-145856655D02*
G75*
G02*
X190200000Y-145700353I256058J156299D01*
G01*
%TO.C,LED38*%
X181830000Y-125750000D02*
X181830000Y-125049647D01*
X181830000Y-125750000D02*
X181830000Y-126450353D01*
X183530000Y-124250000D02*
X182629647Y-124250000D01*
X183530000Y-124250000D02*
X184430353Y-124250000D01*
X183530000Y-127250000D02*
X182629647Y-127250000D01*
X183530000Y-127250000D02*
X184430353Y-127250000D01*
X185230000Y-125750000D02*
X185230000Y-125049647D01*
X185230000Y-125750000D02*
X185230000Y-126450353D01*
X181786066Y-124893345D02*
G75*
G02*
X181829976Y-125049647I-256066J-156255D01*
G01*
X181786066Y-124893345D02*
G75*
G02*
X182473345Y-124206066I426774J260505D01*
G01*
X181830000Y-126450353D02*
G75*
G02*
X181786065Y-126606654I-299680J-87D01*
G01*
X182473345Y-127293934D02*
G75*
G02*
X181786066Y-126606655I-260505J426774D01*
G01*
X182473345Y-127293934D02*
G75*
G02*
X182629647Y-127250024I156255J-256066D01*
G01*
X182629647Y-124250000D02*
G75*
G02*
X182473344Y-124206067I3J300020D01*
G01*
X184430353Y-127250000D02*
G75*
G02*
X184586655Y-127293934I3J-299992D01*
G01*
X184586655Y-124206066D02*
G75*
G02*
X184430353Y-124250000I-156299J256058D01*
G01*
X184586655Y-124206066D02*
G75*
G02*
X185273934Y-124893345I260503J-426776D01*
G01*
X185230000Y-125049647D02*
G75*
G02*
X185273934Y-124893345I299992J3D01*
G01*
X185273934Y-126606655D02*
G75*
G02*
X184586655Y-127293934I-426776J-260503D01*
G01*
X185273934Y-126606655D02*
G75*
G02*
X185230000Y-126450353I256058J156299D01*
G01*
%TO.C,LED59*%
X312800000Y-145000000D02*
X312800000Y-144299647D01*
X312800000Y-145000000D02*
X312800000Y-145700353D01*
X314500000Y-143500000D02*
X313599647Y-143500000D01*
X314500000Y-143500000D02*
X315400353Y-143500000D01*
X314500000Y-146500000D02*
X313599647Y-146500000D01*
X314500000Y-146500000D02*
X315400353Y-146500000D01*
X316200000Y-145000000D02*
X316200000Y-144299647D01*
X316200000Y-145000000D02*
X316200000Y-145700353D01*
X312756066Y-144143345D02*
G75*
G02*
X312799976Y-144299647I-256066J-156255D01*
G01*
X312756066Y-144143345D02*
G75*
G02*
X313443345Y-143456066I426774J260505D01*
G01*
X312800000Y-145700353D02*
G75*
G02*
X312756065Y-145856654I-299680J-87D01*
G01*
X313443345Y-146543934D02*
G75*
G02*
X312756066Y-145856655I-260505J426774D01*
G01*
X313443345Y-146543934D02*
G75*
G02*
X313599647Y-146500024I156255J-256066D01*
G01*
X313599647Y-143500000D02*
G75*
G02*
X313443344Y-143456067I3J300020D01*
G01*
X315400353Y-146500000D02*
G75*
G02*
X315556655Y-146543934I3J-299992D01*
G01*
X315556655Y-143456066D02*
G75*
G02*
X315400353Y-143500000I-156299J256058D01*
G01*
X315556655Y-143456066D02*
G75*
G02*
X316243934Y-144143345I260503J-426776D01*
G01*
X316200000Y-144299647D02*
G75*
G02*
X316243934Y-144143345I299992J3D01*
G01*
X316243934Y-145856655D02*
G75*
G02*
X315556655Y-146543934I-426776J-260503D01*
G01*
X316243934Y-145856655D02*
G75*
G02*
X316200000Y-145700353I256058J156299D01*
G01*
%TO.C,LED2*%
X77025000Y-87750000D02*
X77025000Y-87049647D01*
X77025000Y-87750000D02*
X77025000Y-88450353D01*
X78725000Y-86250000D02*
X77824647Y-86250000D01*
X78725000Y-86250000D02*
X79625353Y-86250000D01*
X78725000Y-89250000D02*
X77824647Y-89250000D01*
X78725000Y-89250000D02*
X79625353Y-89250000D01*
X80425000Y-87750000D02*
X80425000Y-87049647D01*
X80425000Y-87750000D02*
X80425000Y-88450353D01*
X76981066Y-86893345D02*
G75*
G02*
X77024976Y-87049647I-256066J-156255D01*
G01*
X76981066Y-86893345D02*
G75*
G02*
X77668345Y-86206066I426774J260505D01*
G01*
X77025000Y-88450353D02*
G75*
G02*
X76981065Y-88606654I-299680J-87D01*
G01*
X77668345Y-89293934D02*
G75*
G02*
X76981066Y-88606655I-260505J426774D01*
G01*
X77668345Y-89293934D02*
G75*
G02*
X77824647Y-89250024I156255J-256066D01*
G01*
X77824647Y-86250000D02*
G75*
G02*
X77668344Y-86206067I3J300020D01*
G01*
X79625353Y-89250000D02*
G75*
G02*
X79781655Y-89293934I3J-299992D01*
G01*
X79781655Y-86206066D02*
G75*
G02*
X79625353Y-86250000I-156299J256058D01*
G01*
X79781655Y-86206066D02*
G75*
G02*
X80468934Y-86893345I260503J-426776D01*
G01*
X80425000Y-87049647D02*
G75*
G02*
X80468934Y-86893345I299992J3D01*
G01*
X80468934Y-88606655D02*
G75*
G02*
X79781655Y-89293934I-426776J-260503D01*
G01*
X80468934Y-88606655D02*
G75*
G02*
X80425000Y-88450353I256058J156299D01*
G01*
%TO.C,LED42*%
X258300000Y-125500000D02*
X258300000Y-124799647D01*
X258300000Y-125500000D02*
X258300000Y-126200353D01*
X260000000Y-124000000D02*
X259099647Y-124000000D01*
X260000000Y-124000000D02*
X260900353Y-124000000D01*
X260000000Y-127000000D02*
X259099647Y-127000000D01*
X260000000Y-127000000D02*
X260900353Y-127000000D01*
X261700000Y-125500000D02*
X261700000Y-124799647D01*
X261700000Y-125500000D02*
X261700000Y-126200353D01*
X258256066Y-124643345D02*
G75*
G02*
X258299976Y-124799647I-256066J-156255D01*
G01*
X258256066Y-124643345D02*
G75*
G02*
X258943345Y-123956066I426774J260505D01*
G01*
X258300000Y-126200353D02*
G75*
G02*
X258256065Y-126356654I-299680J-87D01*
G01*
X258943345Y-127043934D02*
G75*
G02*
X258256066Y-126356655I-260505J426774D01*
G01*
X258943345Y-127043934D02*
G75*
G02*
X259099647Y-127000024I156255J-256066D01*
G01*
X259099647Y-124000000D02*
G75*
G02*
X258943344Y-123956067I3J300020D01*
G01*
X260900353Y-127000000D02*
G75*
G02*
X261056655Y-127043934I3J-299992D01*
G01*
X261056655Y-123956066D02*
G75*
G02*
X260900353Y-124000000I-156299J256058D01*
G01*
X261056655Y-123956066D02*
G75*
G02*
X261743934Y-124643345I260503J-426776D01*
G01*
X261700000Y-124799647D02*
G75*
G02*
X261743934Y-124643345I299992J3D01*
G01*
X261743934Y-126356655D02*
G75*
G02*
X261056655Y-127043934I-426776J-260503D01*
G01*
X261743934Y-126356655D02*
G75*
G02*
X261700000Y-126200353I256058J156299D01*
G01*
%TO.C,LED41*%
X239525000Y-125750000D02*
X239525000Y-125049647D01*
X239525000Y-125750000D02*
X239525000Y-126450353D01*
X241225000Y-124250000D02*
X240324647Y-124250000D01*
X241225000Y-124250000D02*
X242125353Y-124250000D01*
X241225000Y-127250000D02*
X240324647Y-127250000D01*
X241225000Y-127250000D02*
X242125353Y-127250000D01*
X242925000Y-125750000D02*
X242925000Y-125049647D01*
X242925000Y-125750000D02*
X242925000Y-126450353D01*
X239481066Y-124893345D02*
G75*
G02*
X239524976Y-125049647I-256066J-156255D01*
G01*
X239481066Y-124893345D02*
G75*
G02*
X240168345Y-124206066I426774J260505D01*
G01*
X239525000Y-126450353D02*
G75*
G02*
X239481065Y-126606654I-299680J-87D01*
G01*
X240168345Y-127293934D02*
G75*
G02*
X239481066Y-126606655I-260505J426774D01*
G01*
X240168345Y-127293934D02*
G75*
G02*
X240324647Y-127250024I156255J-256066D01*
G01*
X240324647Y-124250000D02*
G75*
G02*
X240168344Y-124206067I3J300020D01*
G01*
X242125353Y-127250000D02*
G75*
G02*
X242281655Y-127293934I3J-299992D01*
G01*
X242281655Y-124206066D02*
G75*
G02*
X242125353Y-124250000I-156299J256058D01*
G01*
X242281655Y-124206066D02*
G75*
G02*
X242968934Y-124893345I260503J-426776D01*
G01*
X242925000Y-125049647D02*
G75*
G02*
X242968934Y-124893345I299992J3D01*
G01*
X242968934Y-126606655D02*
G75*
G02*
X242281655Y-127293934I-426776J-260503D01*
G01*
X242968934Y-126606655D02*
G75*
G02*
X242925000Y-126450353I256058J156299D01*
G01*
%TO.C,LED67*%
X196117500Y-164000000D02*
X196117500Y-163299647D01*
X196117500Y-164000000D02*
X196117500Y-164700353D01*
X197817500Y-162500000D02*
X196917147Y-162500000D01*
X197817500Y-162500000D02*
X198717853Y-162500000D01*
X197817500Y-165500000D02*
X196917147Y-165500000D01*
X197817500Y-165500000D02*
X198717853Y-165500000D01*
X199517500Y-164000000D02*
X199517500Y-163299647D01*
X199517500Y-164000000D02*
X199517500Y-164700353D01*
X196073566Y-163143345D02*
G75*
G02*
X196117476Y-163299647I-256066J-156255D01*
G01*
X196073566Y-163143345D02*
G75*
G02*
X196760845Y-162456066I426774J260505D01*
G01*
X196117500Y-164700353D02*
G75*
G02*
X196073565Y-164856654I-299680J-87D01*
G01*
X196760845Y-165543934D02*
G75*
G02*
X196073566Y-164856655I-260505J426774D01*
G01*
X196760845Y-165543934D02*
G75*
G02*
X196917147Y-165500024I156255J-256066D01*
G01*
X196917147Y-162500000D02*
G75*
G02*
X196760844Y-162456067I3J300020D01*
G01*
X198717853Y-165500000D02*
G75*
G02*
X198874155Y-165543934I3J-299992D01*
G01*
X198874155Y-162456066D02*
G75*
G02*
X198717853Y-162500000I-156299J256058D01*
G01*
X198874155Y-162456066D02*
G75*
G02*
X199561434Y-163143345I260503J-426776D01*
G01*
X199517500Y-163299647D02*
G75*
G02*
X199561434Y-163143345I299992J3D01*
G01*
X199561434Y-164856655D02*
G75*
G02*
X198874155Y-165543934I-426776J-260503D01*
G01*
X199561434Y-164856655D02*
G75*
G02*
X199517500Y-164700353I256058J156299D01*
G01*
%TO.C,LED69*%
X234217500Y-164000000D02*
X234217500Y-163299647D01*
X234217500Y-164000000D02*
X234217500Y-164700353D01*
X235917500Y-162500000D02*
X235017147Y-162500000D01*
X235917500Y-162500000D02*
X236817853Y-162500000D01*
X235917500Y-165500000D02*
X235017147Y-165500000D01*
X235917500Y-165500000D02*
X236817853Y-165500000D01*
X237617500Y-164000000D02*
X237617500Y-163299647D01*
X237617500Y-164000000D02*
X237617500Y-164700353D01*
X234173566Y-163143345D02*
G75*
G02*
X234217476Y-163299647I-256066J-156255D01*
G01*
X234173566Y-163143345D02*
G75*
G02*
X234860845Y-162456066I426774J260505D01*
G01*
X234217500Y-164700353D02*
G75*
G02*
X234173565Y-164856654I-299680J-87D01*
G01*
X234860845Y-165543934D02*
G75*
G02*
X234173566Y-164856655I-260505J426774D01*
G01*
X234860845Y-165543934D02*
G75*
G02*
X235017147Y-165500024I156255J-256066D01*
G01*
X235017147Y-162500000D02*
G75*
G02*
X234860844Y-162456067I3J300020D01*
G01*
X236817853Y-165500000D02*
G75*
G02*
X236974155Y-165543934I3J-299992D01*
G01*
X236974155Y-162456066D02*
G75*
G02*
X236817853Y-162500000I-156299J256058D01*
G01*
X236974155Y-162456066D02*
G75*
G02*
X237661434Y-163143345I260503J-426776D01*
G01*
X237617500Y-163299647D02*
G75*
G02*
X237661434Y-163143345I299992J3D01*
G01*
X237661434Y-164856655D02*
G75*
G02*
X236974155Y-165543934I-426776J-260503D01*
G01*
X237661434Y-164856655D02*
G75*
G02*
X237617500Y-164700353I256058J156299D01*
G01*
%TO.C,LED23*%
X172575000Y-106750000D02*
X172575000Y-106049647D01*
X172575000Y-106750000D02*
X172575000Y-107450353D01*
X174275000Y-105250000D02*
X173374647Y-105250000D01*
X174275000Y-105250000D02*
X175175353Y-105250000D01*
X174275000Y-108250000D02*
X173374647Y-108250000D01*
X174275000Y-108250000D02*
X175175353Y-108250000D01*
X175975000Y-106750000D02*
X175975000Y-106049647D01*
X175975000Y-106750000D02*
X175975000Y-107450353D01*
X172531066Y-105893345D02*
G75*
G02*
X172574976Y-106049647I-256066J-156255D01*
G01*
X172531066Y-105893345D02*
G75*
G02*
X173218345Y-105206066I426774J260505D01*
G01*
X172575000Y-107450353D02*
G75*
G02*
X172531065Y-107606654I-299680J-87D01*
G01*
X173218345Y-108293934D02*
G75*
G02*
X172531066Y-107606655I-260505J426774D01*
G01*
X173218345Y-108293934D02*
G75*
G02*
X173374647Y-108250024I156255J-256066D01*
G01*
X173374647Y-105250000D02*
G75*
G02*
X173218344Y-105206067I3J300020D01*
G01*
X175175353Y-108250000D02*
G75*
G02*
X175331655Y-108293934I3J-299992D01*
G01*
X175331655Y-105206066D02*
G75*
G02*
X175175353Y-105250000I-156299J256058D01*
G01*
X175331655Y-105206066D02*
G75*
G02*
X176018934Y-105893345I260503J-426776D01*
G01*
X175975000Y-106049647D02*
G75*
G02*
X176018934Y-105893345I299992J3D01*
G01*
X176018934Y-107606655D02*
G75*
G02*
X175331655Y-108293934I-426776J-260503D01*
G01*
X176018934Y-107606655D02*
G75*
G02*
X175975000Y-107450353I256058J156299D01*
G01*
%TO.C,LED37*%
X162780000Y-125750000D02*
X162780000Y-125049647D01*
X162780000Y-125750000D02*
X162780000Y-126450353D01*
X164480000Y-124250000D02*
X163579647Y-124250000D01*
X164480000Y-124250000D02*
X165380353Y-124250000D01*
X164480000Y-127250000D02*
X163579647Y-127250000D01*
X164480000Y-127250000D02*
X165380353Y-127250000D01*
X166180000Y-125750000D02*
X166180000Y-125049647D01*
X166180000Y-125750000D02*
X166180000Y-126450353D01*
X162736066Y-124893345D02*
G75*
G02*
X162779976Y-125049647I-256066J-156255D01*
G01*
X162736066Y-124893345D02*
G75*
G02*
X163423345Y-124206066I426774J260505D01*
G01*
X162780000Y-126450353D02*
G75*
G02*
X162736065Y-126606654I-299680J-87D01*
G01*
X163423345Y-127293934D02*
G75*
G02*
X162736066Y-126606655I-260505J426774D01*
G01*
X163423345Y-127293934D02*
G75*
G02*
X163579647Y-127250024I156255J-256066D01*
G01*
X163579647Y-124250000D02*
G75*
G02*
X163423344Y-124206067I3J300020D01*
G01*
X165380353Y-127250000D02*
G75*
G02*
X165536655Y-127293934I3J-299992D01*
G01*
X165536655Y-124206066D02*
G75*
G02*
X165380353Y-124250000I-156299J256058D01*
G01*
X165536655Y-124206066D02*
G75*
G02*
X166223934Y-124893345I260503J-426776D01*
G01*
X166180000Y-125049647D02*
G75*
G02*
X166223934Y-124893345I299992J3D01*
G01*
X166223934Y-126606655D02*
G75*
G02*
X165536655Y-127293934I-426776J-260503D01*
G01*
X166223934Y-126606655D02*
G75*
G02*
X166180000Y-126450353I256058J156299D01*
G01*
%TO.C,LED33*%
X86575000Y-125750000D02*
X86575000Y-125049647D01*
X86575000Y-125750000D02*
X86575000Y-126450353D01*
X88275000Y-124250000D02*
X87374647Y-124250000D01*
X88275000Y-124250000D02*
X89175353Y-124250000D01*
X88275000Y-127250000D02*
X87374647Y-127250000D01*
X88275000Y-127250000D02*
X89175353Y-127250000D01*
X89975000Y-125750000D02*
X89975000Y-125049647D01*
X89975000Y-125750000D02*
X89975000Y-126450353D01*
X86531066Y-124893345D02*
G75*
G02*
X86574976Y-125049647I-256066J-156255D01*
G01*
X86531066Y-124893345D02*
G75*
G02*
X87218345Y-124206066I426774J260505D01*
G01*
X86575000Y-126450353D02*
G75*
G02*
X86531065Y-126606654I-299680J-87D01*
G01*
X87218345Y-127293934D02*
G75*
G02*
X86531066Y-126606655I-260505J426774D01*
G01*
X87218345Y-127293934D02*
G75*
G02*
X87374647Y-127250024I156255J-256066D01*
G01*
X87374647Y-124250000D02*
G75*
G02*
X87218344Y-124206067I3J300020D01*
G01*
X89175353Y-127250000D02*
G75*
G02*
X89331655Y-127293934I3J-299992D01*
G01*
X89331655Y-124206066D02*
G75*
G02*
X89175353Y-124250000I-156299J256058D01*
G01*
X89331655Y-124206066D02*
G75*
G02*
X90018934Y-124893345I260503J-426776D01*
G01*
X89975000Y-125049647D02*
G75*
G02*
X90018934Y-124893345I299992J3D01*
G01*
X90018934Y-126606655D02*
G75*
G02*
X89331655Y-127293934I-426776J-260503D01*
G01*
X90018934Y-126606655D02*
G75*
G02*
X89975000Y-126450353I256058J156299D01*
G01*
%TO.C,LED18*%
X77525000Y-106750000D02*
X77525000Y-106049647D01*
X77525000Y-106750000D02*
X77525000Y-107450353D01*
X79225000Y-105250000D02*
X78324647Y-105250000D01*
X79225000Y-105250000D02*
X80125353Y-105250000D01*
X79225000Y-108250000D02*
X78324647Y-108250000D01*
X79225000Y-108250000D02*
X80125353Y-108250000D01*
X80925000Y-106750000D02*
X80925000Y-106049647D01*
X80925000Y-106750000D02*
X80925000Y-107450353D01*
X77481066Y-105893345D02*
G75*
G02*
X77524976Y-106049647I-256066J-156255D01*
G01*
X77481066Y-105893345D02*
G75*
G02*
X78168345Y-105206066I426774J260505D01*
G01*
X77525000Y-107450353D02*
G75*
G02*
X77481065Y-107606654I-299680J-87D01*
G01*
X78168345Y-108293934D02*
G75*
G02*
X77481066Y-107606655I-260505J426774D01*
G01*
X78168345Y-108293934D02*
G75*
G02*
X78324647Y-108250024I156255J-256066D01*
G01*
X78324647Y-105250000D02*
G75*
G02*
X78168344Y-105206067I3J300020D01*
G01*
X80125353Y-108250000D02*
G75*
G02*
X80281655Y-108293934I3J-299992D01*
G01*
X80281655Y-105206066D02*
G75*
G02*
X80125353Y-105250000I-156299J256058D01*
G01*
X80281655Y-105206066D02*
G75*
G02*
X80968934Y-105893345I260503J-426776D01*
G01*
X80925000Y-106049647D02*
G75*
G02*
X80968934Y-105893345I299992J3D01*
G01*
X80968934Y-107606655D02*
G75*
G02*
X80281655Y-108293934I-426776J-260503D01*
G01*
X80968934Y-107606655D02*
G75*
G02*
X80925000Y-107450353I256058J156299D01*
G01*
%TO.C,LED34*%
X106025000Y-125750000D02*
X106025000Y-125049647D01*
X106025000Y-125750000D02*
X106025000Y-126450353D01*
X107725000Y-124250000D02*
X106824647Y-124250000D01*
X107725000Y-124250000D02*
X108625353Y-124250000D01*
X107725000Y-127250000D02*
X106824647Y-127250000D01*
X107725000Y-127250000D02*
X108625353Y-127250000D01*
X109425000Y-125750000D02*
X109425000Y-125049647D01*
X109425000Y-125750000D02*
X109425000Y-126450353D01*
X105981066Y-124893345D02*
G75*
G02*
X106024976Y-125049647I-256066J-156255D01*
G01*
X105981066Y-124893345D02*
G75*
G02*
X106668345Y-124206066I426774J260505D01*
G01*
X106025000Y-126450353D02*
G75*
G02*
X105981065Y-126606654I-299680J-87D01*
G01*
X106668345Y-127293934D02*
G75*
G02*
X105981066Y-126606655I-260505J426774D01*
G01*
X106668345Y-127293934D02*
G75*
G02*
X106824647Y-127250024I156255J-256066D01*
G01*
X106824647Y-124250000D02*
G75*
G02*
X106668344Y-124206067I3J300020D01*
G01*
X108625353Y-127250000D02*
G75*
G02*
X108781655Y-127293934I3J-299992D01*
G01*
X108781655Y-124206066D02*
G75*
G02*
X108625353Y-124250000I-156299J256058D01*
G01*
X108781655Y-124206066D02*
G75*
G02*
X109468934Y-124893345I260503J-426776D01*
G01*
X109425000Y-125049647D02*
G75*
G02*
X109468934Y-124893345I299992J3D01*
G01*
X109468934Y-126606655D02*
G75*
G02*
X108781655Y-127293934I-426776J-260503D01*
G01*
X109468934Y-126606655D02*
G75*
G02*
X109425000Y-126450353I256058J156299D01*
G01*
%TO.C,LED77*%
X107800000Y-183000000D02*
X107800000Y-182299647D01*
X107800000Y-183000000D02*
X107800000Y-183700353D01*
X109500000Y-181500000D02*
X108599647Y-181500000D01*
X109500000Y-181500000D02*
X110400353Y-181500000D01*
X109500000Y-184500000D02*
X108599647Y-184500000D01*
X109500000Y-184500000D02*
X110400353Y-184500000D01*
X111200000Y-183000000D02*
X111200000Y-182299647D01*
X111200000Y-183000000D02*
X111200000Y-183700353D01*
X107756066Y-182143345D02*
G75*
G02*
X107799976Y-182299647I-256066J-156255D01*
G01*
X107756066Y-182143345D02*
G75*
G02*
X108443345Y-181456066I426774J260505D01*
G01*
X107800000Y-183700353D02*
G75*
G02*
X107756065Y-183856654I-299680J-87D01*
G01*
X108443345Y-184543934D02*
G75*
G02*
X107756066Y-183856655I-260505J426774D01*
G01*
X108443345Y-184543934D02*
G75*
G02*
X108599647Y-184500024I156255J-256066D01*
G01*
X108599647Y-181500000D02*
G75*
G02*
X108443344Y-181456067I3J300020D01*
G01*
X110400353Y-184500000D02*
G75*
G02*
X110556655Y-184543934I3J-299992D01*
G01*
X110556655Y-181456066D02*
G75*
G02*
X110400353Y-181500000I-156299J256058D01*
G01*
X110556655Y-181456066D02*
G75*
G02*
X111243934Y-182143345I260503J-426776D01*
G01*
X111200000Y-182299647D02*
G75*
G02*
X111243934Y-182143345I299992J3D01*
G01*
X111243934Y-183856655D02*
G75*
G02*
X110556655Y-184543934I-426776J-260503D01*
G01*
X111243934Y-183856655D02*
G75*
G02*
X111200000Y-183700353I256058J156299D01*
G01*
%TO.C,LED50*%
X130025000Y-144750000D02*
X130025000Y-144049647D01*
X130025000Y-144750000D02*
X130025000Y-145450353D01*
X131725000Y-143250000D02*
X130824647Y-143250000D01*
X131725000Y-143250000D02*
X132625353Y-143250000D01*
X131725000Y-146250000D02*
X130824647Y-146250000D01*
X131725000Y-146250000D02*
X132625353Y-146250000D01*
X133425000Y-144750000D02*
X133425000Y-144049647D01*
X133425000Y-144750000D02*
X133425000Y-145450353D01*
X129981066Y-143893345D02*
G75*
G02*
X130024976Y-144049647I-256066J-156255D01*
G01*
X129981066Y-143893345D02*
G75*
G02*
X130668345Y-143206066I426774J260505D01*
G01*
X130025000Y-145450353D02*
G75*
G02*
X129981065Y-145606654I-299680J-87D01*
G01*
X130668345Y-146293934D02*
G75*
G02*
X129981066Y-145606655I-260505J426774D01*
G01*
X130668345Y-146293934D02*
G75*
G02*
X130824647Y-146250024I156255J-256066D01*
G01*
X130824647Y-143250000D02*
G75*
G02*
X130668344Y-143206067I3J300020D01*
G01*
X132625353Y-146250000D02*
G75*
G02*
X132781655Y-146293934I3J-299992D01*
G01*
X132781655Y-143206066D02*
G75*
G02*
X132625353Y-143250000I-156299J256058D01*
G01*
X132781655Y-143206066D02*
G75*
G02*
X133468934Y-143893345I260503J-426776D01*
G01*
X133425000Y-144049647D02*
G75*
G02*
X133468934Y-143893345I299992J3D01*
G01*
X133468934Y-145606655D02*
G75*
G02*
X132781655Y-146293934I-426776J-260503D01*
G01*
X133468934Y-145606655D02*
G75*
G02*
X133425000Y-145450353I256058J156299D01*
G01*
%TO.C,LED21*%
X134525000Y-106750000D02*
X134525000Y-106049647D01*
X134525000Y-106750000D02*
X134525000Y-107450353D01*
X136225000Y-105250000D02*
X135324647Y-105250000D01*
X136225000Y-105250000D02*
X137125353Y-105250000D01*
X136225000Y-108250000D02*
X135324647Y-108250000D01*
X136225000Y-108250000D02*
X137125353Y-108250000D01*
X137925000Y-106750000D02*
X137925000Y-106049647D01*
X137925000Y-106750000D02*
X137925000Y-107450353D01*
X134481066Y-105893345D02*
G75*
G02*
X134524976Y-106049647I-256066J-156255D01*
G01*
X134481066Y-105893345D02*
G75*
G02*
X135168345Y-105206066I426774J260505D01*
G01*
X134525000Y-107450353D02*
G75*
G02*
X134481065Y-107606654I-299680J-87D01*
G01*
X135168345Y-108293934D02*
G75*
G02*
X134481066Y-107606655I-260505J426774D01*
G01*
X135168345Y-108293934D02*
G75*
G02*
X135324647Y-108250024I156255J-256066D01*
G01*
X135324647Y-105250000D02*
G75*
G02*
X135168344Y-105206067I3J300020D01*
G01*
X137125353Y-108250000D02*
G75*
G02*
X137281655Y-108293934I3J-299992D01*
G01*
X137281655Y-105206066D02*
G75*
G02*
X137125353Y-105250000I-156299J256058D01*
G01*
X137281655Y-105206066D02*
G75*
G02*
X137968934Y-105893345I260503J-426776D01*
G01*
X137925000Y-106049647D02*
G75*
G02*
X137968934Y-105893345I299992J3D01*
G01*
X137968934Y-107606655D02*
G75*
G02*
X137281655Y-108293934I-426776J-260503D01*
G01*
X137968934Y-107606655D02*
G75*
G02*
X137925000Y-107450353I256058J156299D01*
G01*
%TO.C,LED8*%
X191525000Y-87750000D02*
X191525000Y-87049647D01*
X191525000Y-87750000D02*
X191525000Y-88450353D01*
X193225000Y-86250000D02*
X192324647Y-86250000D01*
X193225000Y-86250000D02*
X194125353Y-86250000D01*
X193225000Y-89250000D02*
X192324647Y-89250000D01*
X193225000Y-89250000D02*
X194125353Y-89250000D01*
X194925000Y-87750000D02*
X194925000Y-87049647D01*
X194925000Y-87750000D02*
X194925000Y-88450353D01*
X191481066Y-86893345D02*
G75*
G02*
X191524976Y-87049647I-256066J-156255D01*
G01*
X191481066Y-86893345D02*
G75*
G02*
X192168345Y-86206066I426774J260505D01*
G01*
X191525000Y-88450353D02*
G75*
G02*
X191481065Y-88606654I-299680J-87D01*
G01*
X192168345Y-89293934D02*
G75*
G02*
X191481066Y-88606655I-260505J426774D01*
G01*
X192168345Y-89293934D02*
G75*
G02*
X192324647Y-89250024I156255J-256066D01*
G01*
X192324647Y-86250000D02*
G75*
G02*
X192168344Y-86206067I3J300020D01*
G01*
X194125353Y-89250000D02*
G75*
G02*
X194281655Y-89293934I3J-299992D01*
G01*
X194281655Y-86206066D02*
G75*
G02*
X194125353Y-86250000I-156299J256058D01*
G01*
X194281655Y-86206066D02*
G75*
G02*
X194968934Y-86893345I260503J-426776D01*
G01*
X194925000Y-87049647D02*
G75*
G02*
X194968934Y-86893345I299992J3D01*
G01*
X194968934Y-88606655D02*
G75*
G02*
X194281655Y-89293934I-426776J-260503D01*
G01*
X194968934Y-88606655D02*
G75*
G02*
X194925000Y-88450353I256058J156299D01*
G01*
%TO.C,LED52*%
X167542500Y-144700000D02*
X167542500Y-143999647D01*
X167542500Y-144700000D02*
X167542500Y-145400353D01*
X169242500Y-143200000D02*
X168342147Y-143200000D01*
X169242500Y-143200000D02*
X170142853Y-143200000D01*
X169242500Y-146200000D02*
X168342147Y-146200000D01*
X169242500Y-146200000D02*
X170142853Y-146200000D01*
X170942500Y-144700000D02*
X170942500Y-143999647D01*
X170942500Y-144700000D02*
X170942500Y-145400353D01*
X167498566Y-143843345D02*
G75*
G02*
X167542476Y-143999647I-256066J-156255D01*
G01*
X167498566Y-143843345D02*
G75*
G02*
X168185845Y-143156066I426774J260505D01*
G01*
X167542500Y-145400353D02*
G75*
G02*
X167498565Y-145556654I-299680J-87D01*
G01*
X168185845Y-146243934D02*
G75*
G02*
X167498566Y-145556655I-260505J426774D01*
G01*
X168185845Y-146243934D02*
G75*
G02*
X168342147Y-146200024I156255J-256066D01*
G01*
X168342147Y-143200000D02*
G75*
G02*
X168185844Y-143156067I3J300020D01*
G01*
X170142853Y-146200000D02*
G75*
G02*
X170299155Y-146243934I3J-299992D01*
G01*
X170299155Y-143156066D02*
G75*
G02*
X170142853Y-143200000I-156299J256058D01*
G01*
X170299155Y-143156066D02*
G75*
G02*
X170986434Y-143843345I260503J-426776D01*
G01*
X170942500Y-143999647D02*
G75*
G02*
X170986434Y-143843345I299992J3D01*
G01*
X170986434Y-145556655D02*
G75*
G02*
X170299155Y-146243934I-426776J-260503D01*
G01*
X170986434Y-145556655D02*
G75*
G02*
X170942500Y-145400353I256058J156299D01*
G01*
%TO.C,LED25*%
X210525000Y-106750000D02*
X210525000Y-106049647D01*
X210525000Y-106750000D02*
X210525000Y-107450353D01*
X212225000Y-105250000D02*
X211324647Y-105250000D01*
X212225000Y-105250000D02*
X213125353Y-105250000D01*
X212225000Y-108250000D02*
X211324647Y-108250000D01*
X212225000Y-108250000D02*
X213125353Y-108250000D01*
X213925000Y-106750000D02*
X213925000Y-106049647D01*
X213925000Y-106750000D02*
X213925000Y-107450353D01*
X210481066Y-105893345D02*
G75*
G02*
X210524976Y-106049647I-256066J-156255D01*
G01*
X210481066Y-105893345D02*
G75*
G02*
X211168345Y-105206066I426774J260505D01*
G01*
X210525000Y-107450353D02*
G75*
G02*
X210481065Y-107606654I-299680J-87D01*
G01*
X211168345Y-108293934D02*
G75*
G02*
X210481066Y-107606655I-260505J426774D01*
G01*
X211168345Y-108293934D02*
G75*
G02*
X211324647Y-108250024I156255J-256066D01*
G01*
X211324647Y-105250000D02*
G75*
G02*
X211168344Y-105206067I3J300020D01*
G01*
X213125353Y-108250000D02*
G75*
G02*
X213281655Y-108293934I3J-299992D01*
G01*
X213281655Y-105206066D02*
G75*
G02*
X213125353Y-105250000I-156299J256058D01*
G01*
X213281655Y-105206066D02*
G75*
G02*
X213968934Y-105893345I260503J-426776D01*
G01*
X213925000Y-106049647D02*
G75*
G02*
X213968934Y-105893345I299992J3D01*
G01*
X213968934Y-107606655D02*
G75*
G02*
X213281655Y-108293934I-426776J-260503D01*
G01*
X213968934Y-107606655D02*
G75*
G02*
X213925000Y-107450353I256058J156299D01*
G01*
%TO.C,LED63*%
X119917500Y-164000000D02*
X119917500Y-163299647D01*
X119917500Y-164000000D02*
X119917500Y-164700353D01*
X121617500Y-162500000D02*
X120717147Y-162500000D01*
X121617500Y-162500000D02*
X122517853Y-162500000D01*
X121617500Y-165500000D02*
X120717147Y-165500000D01*
X121617500Y-165500000D02*
X122517853Y-165500000D01*
X123317500Y-164000000D02*
X123317500Y-163299647D01*
X123317500Y-164000000D02*
X123317500Y-164700353D01*
X119873566Y-163143345D02*
G75*
G02*
X119917476Y-163299647I-256066J-156255D01*
G01*
X119873566Y-163143345D02*
G75*
G02*
X120560845Y-162456066I426774J260505D01*
G01*
X119917500Y-164700353D02*
G75*
G02*
X119873565Y-164856654I-299680J-87D01*
G01*
X120560845Y-165543934D02*
G75*
G02*
X119873566Y-164856655I-260505J426774D01*
G01*
X120560845Y-165543934D02*
G75*
G02*
X120717147Y-165500024I156255J-256066D01*
G01*
X120717147Y-162500000D02*
G75*
G02*
X120560844Y-162456067I3J300020D01*
G01*
X122517853Y-165500000D02*
G75*
G02*
X122674155Y-165543934I3J-299992D01*
G01*
X122674155Y-162456066D02*
G75*
G02*
X122517853Y-162500000I-156299J256058D01*
G01*
X122674155Y-162456066D02*
G75*
G02*
X123361434Y-163143345I260503J-426776D01*
G01*
X123317500Y-163299647D02*
G75*
G02*
X123361434Y-163143345I299992J3D01*
G01*
X123361434Y-164856655D02*
G75*
G02*
X122674155Y-165543934I-426776J-260503D01*
G01*
X123361434Y-164856655D02*
G75*
G02*
X123317500Y-164700353I256058J156299D01*
G01*
%TO.C,LED64*%
X138967500Y-163600000D02*
X138967500Y-162899647D01*
X138967500Y-163600000D02*
X138967500Y-164300353D01*
X140667500Y-162100000D02*
X139767147Y-162100000D01*
X140667500Y-162100000D02*
X141567853Y-162100000D01*
X140667500Y-165100000D02*
X139767147Y-165100000D01*
X140667500Y-165100000D02*
X141567853Y-165100000D01*
X142367500Y-163600000D02*
X142367500Y-162899647D01*
X142367500Y-163600000D02*
X142367500Y-164300353D01*
X138923566Y-162743345D02*
G75*
G02*
X138967476Y-162899647I-256066J-156255D01*
G01*
X138923566Y-162743345D02*
G75*
G02*
X139610845Y-162056066I426774J260505D01*
G01*
X138967500Y-164300353D02*
G75*
G02*
X138923565Y-164456654I-299680J-87D01*
G01*
X139610845Y-165143934D02*
G75*
G02*
X138923566Y-164456655I-260505J426774D01*
G01*
X139610845Y-165143934D02*
G75*
G02*
X139767147Y-165100024I156255J-256066D01*
G01*
X139767147Y-162100000D02*
G75*
G02*
X139610844Y-162056067I3J300020D01*
G01*
X141567853Y-165100000D02*
G75*
G02*
X141724155Y-165143934I3J-299992D01*
G01*
X141724155Y-162056066D02*
G75*
G02*
X141567853Y-162100000I-156299J256058D01*
G01*
X141724155Y-162056066D02*
G75*
G02*
X142411434Y-162743345I260503J-426776D01*
G01*
X142367500Y-162899647D02*
G75*
G02*
X142411434Y-162743345I299992J3D01*
G01*
X142411434Y-164456655D02*
G75*
G02*
X141724155Y-165143934I-426776J-260503D01*
G01*
X142411434Y-164456655D02*
G75*
G02*
X142367500Y-164300353I256058J156299D01*
G01*
%TO.C,LED32*%
X62767500Y-125750000D02*
X62767500Y-125049647D01*
X62767500Y-125750000D02*
X62767500Y-126450353D01*
X64467500Y-124250000D02*
X63567147Y-124250000D01*
X64467500Y-124250000D02*
X65367853Y-124250000D01*
X64467500Y-127250000D02*
X63567147Y-127250000D01*
X64467500Y-127250000D02*
X65367853Y-127250000D01*
X66167500Y-125750000D02*
X66167500Y-125049647D01*
X66167500Y-125750000D02*
X66167500Y-126450353D01*
X62723566Y-124893345D02*
G75*
G02*
X62767476Y-125049647I-256066J-156255D01*
G01*
X62723566Y-124893345D02*
G75*
G02*
X63410845Y-124206066I426774J260505D01*
G01*
X62767500Y-126450353D02*
G75*
G02*
X62723565Y-126606654I-299680J-87D01*
G01*
X63410845Y-127293934D02*
G75*
G02*
X62723566Y-126606655I-260505J426774D01*
G01*
X63410845Y-127293934D02*
G75*
G02*
X63567147Y-127250024I156255J-256066D01*
G01*
X63567147Y-124250000D02*
G75*
G02*
X63410844Y-124206067I3J300020D01*
G01*
X65367853Y-127250000D02*
G75*
G02*
X65524155Y-127293934I3J-299992D01*
G01*
X65524155Y-124206066D02*
G75*
G02*
X65367853Y-124250000I-156299J256058D01*
G01*
X65524155Y-124206066D02*
G75*
G02*
X66211434Y-124893345I260503J-426776D01*
G01*
X66167500Y-125049647D02*
G75*
G02*
X66211434Y-124893345I299992J3D01*
G01*
X66211434Y-126606655D02*
G75*
G02*
X65524155Y-127293934I-426776J-260503D01*
G01*
X66211434Y-126606655D02*
G75*
G02*
X66167500Y-126450353I256058J156299D01*
G01*
%TO.C,LED70*%
X253267500Y-164000000D02*
X253267500Y-163299647D01*
X253267500Y-164000000D02*
X253267500Y-164700353D01*
X254967500Y-162500000D02*
X254067147Y-162500000D01*
X254967500Y-162500000D02*
X255867853Y-162500000D01*
X254967500Y-165500000D02*
X254067147Y-165500000D01*
X254967500Y-165500000D02*
X255867853Y-165500000D01*
X256667500Y-164000000D02*
X256667500Y-163299647D01*
X256667500Y-164000000D02*
X256667500Y-164700353D01*
X253223566Y-163143345D02*
G75*
G02*
X253267476Y-163299647I-256066J-156255D01*
G01*
X253223566Y-163143345D02*
G75*
G02*
X253910845Y-162456066I426774J260505D01*
G01*
X253267500Y-164700353D02*
G75*
G02*
X253223565Y-164856654I-299680J-87D01*
G01*
X253910845Y-165543934D02*
G75*
G02*
X253223566Y-164856655I-260505J426774D01*
G01*
X253910845Y-165543934D02*
G75*
G02*
X254067147Y-165500024I156255J-256066D01*
G01*
X254067147Y-162500000D02*
G75*
G02*
X253910844Y-162456067I3J300020D01*
G01*
X255867853Y-165500000D02*
G75*
G02*
X256024155Y-165543934I3J-299992D01*
G01*
X256024155Y-162456066D02*
G75*
G02*
X255867853Y-162500000I-156299J256058D01*
G01*
X256024155Y-162456066D02*
G75*
G02*
X256711434Y-163143345I260503J-426776D01*
G01*
X256667500Y-163299647D02*
G75*
G02*
X256711434Y-163143345I299992J3D01*
G01*
X256711434Y-164856655D02*
G75*
G02*
X256024155Y-165543934I-426776J-260503D01*
G01*
X256711434Y-164856655D02*
G75*
G02*
X256667500Y-164700353I256058J156299D01*
G01*
%TO.C,LED11*%
X248575000Y-87750000D02*
X248575000Y-87049647D01*
X248575000Y-87750000D02*
X248575000Y-88450353D01*
X250275000Y-86250000D02*
X249374647Y-86250000D01*
X250275000Y-86250000D02*
X251175353Y-86250000D01*
X250275000Y-89250000D02*
X249374647Y-89250000D01*
X250275000Y-89250000D02*
X251175353Y-89250000D01*
X251975000Y-87750000D02*
X251975000Y-87049647D01*
X251975000Y-87750000D02*
X251975000Y-88450353D01*
X248531066Y-86893345D02*
G75*
G02*
X248574976Y-87049647I-256066J-156255D01*
G01*
X248531066Y-86893345D02*
G75*
G02*
X249218345Y-86206066I426774J260505D01*
G01*
X248575000Y-88450353D02*
G75*
G02*
X248531065Y-88606654I-299680J-87D01*
G01*
X249218345Y-89293934D02*
G75*
G02*
X248531066Y-88606655I-260505J426774D01*
G01*
X249218345Y-89293934D02*
G75*
G02*
X249374647Y-89250024I156255J-256066D01*
G01*
X249374647Y-86250000D02*
G75*
G02*
X249218344Y-86206067I3J300020D01*
G01*
X251175353Y-89250000D02*
G75*
G02*
X251331655Y-89293934I3J-299992D01*
G01*
X251331655Y-86206066D02*
G75*
G02*
X251175353Y-86250000I-156299J256058D01*
G01*
X251331655Y-86206066D02*
G75*
G02*
X252018934Y-86893345I260503J-426776D01*
G01*
X251975000Y-87049647D02*
G75*
G02*
X252018934Y-86893345I299992J3D01*
G01*
X252018934Y-88606655D02*
G75*
G02*
X251331655Y-89293934I-426776J-260503D01*
G01*
X252018934Y-88606655D02*
G75*
G02*
X251975000Y-88450353I256058J156299D01*
G01*
%TO.C,LED83*%
X324705000Y-183000000D02*
X324705000Y-182299647D01*
X324705000Y-183000000D02*
X324705000Y-183700353D01*
X326405000Y-181500000D02*
X325504647Y-181500000D01*
X326405000Y-181500000D02*
X327305353Y-181500000D01*
X326405000Y-184500000D02*
X325504647Y-184500000D01*
X326405000Y-184500000D02*
X327305353Y-184500000D01*
X328105000Y-183000000D02*
X328105000Y-182299647D01*
X328105000Y-183000000D02*
X328105000Y-183700353D01*
X324661066Y-182143345D02*
G75*
G02*
X324704976Y-182299647I-256066J-156255D01*
G01*
X324661066Y-182143345D02*
G75*
G02*
X325348345Y-181456066I426774J260505D01*
G01*
X324705000Y-183700353D02*
G75*
G02*
X324661065Y-183856654I-299680J-87D01*
G01*
X325348345Y-184543934D02*
G75*
G02*
X324661066Y-183856655I-260505J426774D01*
G01*
X325348345Y-184543934D02*
G75*
G02*
X325504647Y-184500024I156255J-256066D01*
G01*
X325504647Y-181500000D02*
G75*
G02*
X325348344Y-181456067I3J300020D01*
G01*
X327305353Y-184500000D02*
G75*
G02*
X327461655Y-184543934I3J-299992D01*
G01*
X327461655Y-181456066D02*
G75*
G02*
X327305353Y-181500000I-156299J256058D01*
G01*
X327461655Y-181456066D02*
G75*
G02*
X328148934Y-182143345I260503J-426776D01*
G01*
X328105000Y-182299647D02*
G75*
G02*
X328148934Y-182143345I299992J3D01*
G01*
X328148934Y-183856655D02*
G75*
G02*
X327461655Y-184543934I-426776J-260503D01*
G01*
X328148934Y-183856655D02*
G75*
G02*
X328105000Y-183700353I256058J156299D01*
G01*
%TO.C,LED72*%
X298300000Y-164000000D02*
X298300000Y-163299647D01*
X298300000Y-164000000D02*
X298300000Y-164700353D01*
X300000000Y-162500000D02*
X299099647Y-162500000D01*
X300000000Y-162500000D02*
X300900353Y-162500000D01*
X300000000Y-165500000D02*
X299099647Y-165500000D01*
X300000000Y-165500000D02*
X300900353Y-165500000D01*
X301700000Y-164000000D02*
X301700000Y-163299647D01*
X301700000Y-164000000D02*
X301700000Y-164700353D01*
X298256066Y-163143345D02*
G75*
G02*
X298299976Y-163299647I-256066J-156255D01*
G01*
X298256066Y-163143345D02*
G75*
G02*
X298943345Y-162456066I426774J260505D01*
G01*
X298300000Y-164700353D02*
G75*
G02*
X298256065Y-164856654I-299680J-87D01*
G01*
X298943345Y-165543934D02*
G75*
G02*
X298256066Y-164856655I-260505J426774D01*
G01*
X298943345Y-165543934D02*
G75*
G02*
X299099647Y-165500024I156255J-256066D01*
G01*
X299099647Y-162500000D02*
G75*
G02*
X298943344Y-162456067I3J300020D01*
G01*
X300900353Y-165500000D02*
G75*
G02*
X301056655Y-165543934I3J-299992D01*
G01*
X301056655Y-162456066D02*
G75*
G02*
X300900353Y-162500000I-156299J256058D01*
G01*
X301056655Y-162456066D02*
G75*
G02*
X301743934Y-163143345I260503J-426776D01*
G01*
X301700000Y-163299647D02*
G75*
G02*
X301743934Y-163143345I299992J3D01*
G01*
X301743934Y-164856655D02*
G75*
G02*
X301056655Y-165543934I-426776J-260503D01*
G01*
X301743934Y-164856655D02*
G75*
G02*
X301700000Y-164700353I256058J156299D01*
G01*
%TO.C,LED80*%
X267555000Y-183000000D02*
X267555000Y-182299647D01*
X267555000Y-183000000D02*
X267555000Y-183700353D01*
X269255000Y-181500000D02*
X268354647Y-181500000D01*
X269255000Y-181500000D02*
X270155353Y-181500000D01*
X269255000Y-184500000D02*
X268354647Y-184500000D01*
X269255000Y-184500000D02*
X270155353Y-184500000D01*
X270955000Y-183000000D02*
X270955000Y-182299647D01*
X270955000Y-183000000D02*
X270955000Y-183700353D01*
X267511066Y-182143345D02*
G75*
G02*
X267554976Y-182299647I-256066J-156255D01*
G01*
X267511066Y-182143345D02*
G75*
G02*
X268198345Y-181456066I426774J260505D01*
G01*
X267555000Y-183700353D02*
G75*
G02*
X267511065Y-183856654I-299680J-87D01*
G01*
X268198345Y-184543934D02*
G75*
G02*
X267511066Y-183856655I-260505J426774D01*
G01*
X268198345Y-184543934D02*
G75*
G02*
X268354647Y-184500024I156255J-256066D01*
G01*
X268354647Y-181500000D02*
G75*
G02*
X268198344Y-181456067I3J300020D01*
G01*
X270155353Y-184500000D02*
G75*
G02*
X270311655Y-184543934I3J-299992D01*
G01*
X270311655Y-181456066D02*
G75*
G02*
X270155353Y-181500000I-156299J256058D01*
G01*
X270311655Y-181456066D02*
G75*
G02*
X270998934Y-182143345I260503J-426776D01*
G01*
X270955000Y-182299647D02*
G75*
G02*
X270998934Y-182143345I299992J3D01*
G01*
X270998934Y-183856655D02*
G75*
G02*
X270311655Y-184543934I-426776J-260503D01*
G01*
X270998934Y-183856655D02*
G75*
G02*
X270955000Y-183700353I256058J156299D01*
G01*
%TO.C,LED54*%
X205642500Y-145000000D02*
X205642500Y-144299647D01*
X205642500Y-145000000D02*
X205642500Y-145700353D01*
X207342500Y-143500000D02*
X206442147Y-143500000D01*
X207342500Y-143500000D02*
X208242853Y-143500000D01*
X207342500Y-146500000D02*
X206442147Y-146500000D01*
X207342500Y-146500000D02*
X208242853Y-146500000D01*
X209042500Y-145000000D02*
X209042500Y-144299647D01*
X209042500Y-145000000D02*
X209042500Y-145700353D01*
X205598566Y-144143345D02*
G75*
G02*
X205642476Y-144299647I-256066J-156255D01*
G01*
X205598566Y-144143345D02*
G75*
G02*
X206285845Y-143456066I426774J260505D01*
G01*
X205642500Y-145700353D02*
G75*
G02*
X205598565Y-145856654I-299680J-87D01*
G01*
X206285845Y-146543934D02*
G75*
G02*
X205598566Y-145856655I-260505J426774D01*
G01*
X206285845Y-146543934D02*
G75*
G02*
X206442147Y-146500024I156255J-256066D01*
G01*
X206442147Y-143500000D02*
G75*
G02*
X206285844Y-143456067I3J300020D01*
G01*
X208242853Y-146500000D02*
G75*
G02*
X208399155Y-146543934I3J-299992D01*
G01*
X208399155Y-143456066D02*
G75*
G02*
X208242853Y-143500000I-156299J256058D01*
G01*
X208399155Y-143456066D02*
G75*
G02*
X209086434Y-144143345I260503J-426776D01*
G01*
X209042500Y-144299647D02*
G75*
G02*
X209086434Y-144143345I299992J3D01*
G01*
X209086434Y-145856655D02*
G75*
G02*
X208399155Y-146543934I-426776J-260503D01*
G01*
X209086434Y-145856655D02*
G75*
G02*
X209042500Y-145700353I256058J156299D01*
G01*
%TO.C,LED3*%
X96525000Y-87750000D02*
X96525000Y-87049647D01*
X96525000Y-87750000D02*
X96525000Y-88450353D01*
X98225000Y-86250000D02*
X97324647Y-86250000D01*
X98225000Y-86250000D02*
X99125353Y-86250000D01*
X98225000Y-89250000D02*
X97324647Y-89250000D01*
X98225000Y-89250000D02*
X99125353Y-89250000D01*
X99925000Y-87750000D02*
X99925000Y-87049647D01*
X99925000Y-87750000D02*
X99925000Y-88450353D01*
X96481066Y-86893345D02*
G75*
G02*
X96524976Y-87049647I-256066J-156255D01*
G01*
X96481066Y-86893345D02*
G75*
G02*
X97168345Y-86206066I426774J260505D01*
G01*
X96525000Y-88450353D02*
G75*
G02*
X96481065Y-88606654I-299680J-87D01*
G01*
X97168345Y-89293934D02*
G75*
G02*
X96481066Y-88606655I-260505J426774D01*
G01*
X97168345Y-89293934D02*
G75*
G02*
X97324647Y-89250024I156255J-256066D01*
G01*
X97324647Y-86250000D02*
G75*
G02*
X97168344Y-86206067I3J300020D01*
G01*
X99125353Y-89250000D02*
G75*
G02*
X99281655Y-89293934I3J-299992D01*
G01*
X99281655Y-86206066D02*
G75*
G02*
X99125353Y-86250000I-156299J256058D01*
G01*
X99281655Y-86206066D02*
G75*
G02*
X99968934Y-86893345I260503J-426776D01*
G01*
X99925000Y-87049647D02*
G75*
G02*
X99968934Y-86893345I299992J3D01*
G01*
X99968934Y-88606655D02*
G75*
G02*
X99281655Y-89293934I-426776J-260503D01*
G01*
X99968934Y-88606655D02*
G75*
G02*
X99925000Y-88450353I256058J156299D01*
G01*
%TO.C,LED74*%
X343800000Y-164000000D02*
X343800000Y-163299647D01*
X343800000Y-164000000D02*
X343800000Y-164700353D01*
X345500000Y-162500000D02*
X344599647Y-162500000D01*
X345500000Y-162500000D02*
X346400353Y-162500000D01*
X345500000Y-165500000D02*
X344599647Y-165500000D01*
X345500000Y-165500000D02*
X346400353Y-165500000D01*
X347200000Y-164000000D02*
X347200000Y-163299647D01*
X347200000Y-164000000D02*
X347200000Y-164700353D01*
X343756066Y-163143345D02*
G75*
G02*
X343799976Y-163299647I-256066J-156255D01*
G01*
X343756066Y-163143345D02*
G75*
G02*
X344443345Y-162456066I426774J260505D01*
G01*
X343800000Y-164700353D02*
G75*
G02*
X343756065Y-164856654I-299680J-87D01*
G01*
X344443345Y-165543934D02*
G75*
G02*
X343756066Y-164856655I-260505J426774D01*
G01*
X344443345Y-165543934D02*
G75*
G02*
X344599647Y-165500024I156255J-256066D01*
G01*
X344599647Y-162500000D02*
G75*
G02*
X344443344Y-162456067I3J300020D01*
G01*
X346400353Y-165500000D02*
G75*
G02*
X346556655Y-165543934I3J-299992D01*
G01*
X346556655Y-162456066D02*
G75*
G02*
X346400353Y-162500000I-156299J256058D01*
G01*
X346556655Y-162456066D02*
G75*
G02*
X347243934Y-163143345I260503J-426776D01*
G01*
X347200000Y-163299647D02*
G75*
G02*
X347243934Y-163143345I299992J3D01*
G01*
X347243934Y-164856655D02*
G75*
G02*
X346556655Y-165543934I-426776J-260503D01*
G01*
X347243934Y-164856655D02*
G75*
G02*
X347200000Y-164700353I256058J156299D01*
G01*
%TO.C,LED75*%
X60386250Y-183000000D02*
X60386250Y-182299647D01*
X60386250Y-183000000D02*
X60386250Y-183700353D01*
X62086250Y-181500000D02*
X61185897Y-181500000D01*
X62086250Y-181500000D02*
X62986603Y-181500000D01*
X62086250Y-184500000D02*
X61185897Y-184500000D01*
X62086250Y-184500000D02*
X62986603Y-184500000D01*
X63786250Y-183000000D02*
X63786250Y-182299647D01*
X63786250Y-183000000D02*
X63786250Y-183700353D01*
X60342316Y-182143345D02*
G75*
G02*
X60386226Y-182299647I-256066J-156255D01*
G01*
X60342316Y-182143345D02*
G75*
G02*
X61029595Y-181456066I426774J260505D01*
G01*
X60386250Y-183700353D02*
G75*
G02*
X60342315Y-183856654I-299680J-87D01*
G01*
X61029595Y-184543934D02*
G75*
G02*
X60342316Y-183856655I-260505J426774D01*
G01*
X61029595Y-184543934D02*
G75*
G02*
X61185897Y-184500024I156255J-256066D01*
G01*
X61185897Y-181500000D02*
G75*
G02*
X61029594Y-181456067I3J300020D01*
G01*
X62986603Y-184500000D02*
G75*
G02*
X63142905Y-184543934I3J-299992D01*
G01*
X63142905Y-181456066D02*
G75*
G02*
X62986603Y-181500000I-156299J256058D01*
G01*
X63142905Y-181456066D02*
G75*
G02*
X63830184Y-182143345I260503J-426776D01*
G01*
X63786250Y-182299647D02*
G75*
G02*
X63830184Y-182143345I299992J3D01*
G01*
X63830184Y-183856655D02*
G75*
G02*
X63142905Y-184543934I-426776J-260503D01*
G01*
X63830184Y-183856655D02*
G75*
G02*
X63786250Y-183700353I256058J156299D01*
G01*
%TO.C,LED40*%
X220525000Y-125750000D02*
X220525000Y-125049647D01*
X220525000Y-125750000D02*
X220525000Y-126450353D01*
X222225000Y-124250000D02*
X221324647Y-124250000D01*
X222225000Y-124250000D02*
X223125353Y-124250000D01*
X222225000Y-127250000D02*
X221324647Y-127250000D01*
X222225000Y-127250000D02*
X223125353Y-127250000D01*
X223925000Y-125750000D02*
X223925000Y-125049647D01*
X223925000Y-125750000D02*
X223925000Y-126450353D01*
X220481066Y-124893345D02*
G75*
G02*
X220524976Y-125049647I-256066J-156255D01*
G01*
X220481066Y-124893345D02*
G75*
G02*
X221168345Y-124206066I426774J260505D01*
G01*
X220525000Y-126450353D02*
G75*
G02*
X220481065Y-126606654I-299680J-87D01*
G01*
X221168345Y-127293934D02*
G75*
G02*
X220481066Y-126606655I-260505J426774D01*
G01*
X221168345Y-127293934D02*
G75*
G02*
X221324647Y-127250024I156255J-256066D01*
G01*
X221324647Y-124250000D02*
G75*
G02*
X221168344Y-124206067I3J300020D01*
G01*
X223125353Y-127250000D02*
G75*
G02*
X223281655Y-127293934I3J-299992D01*
G01*
X223281655Y-124206066D02*
G75*
G02*
X223125353Y-124250000I-156299J256058D01*
G01*
X223281655Y-124206066D02*
G75*
G02*
X223968934Y-124893345I260503J-426776D01*
G01*
X223925000Y-125049647D02*
G75*
G02*
X223968934Y-124893345I299992J3D01*
G01*
X223968934Y-126606655D02*
G75*
G02*
X223281655Y-127293934I-426776J-260503D01*
G01*
X223968934Y-126606655D02*
G75*
G02*
X223925000Y-126450353I256058J156299D01*
G01*
%TO.C,LED30*%
X315525000Y-106750000D02*
X315525000Y-106049647D01*
X315525000Y-106750000D02*
X315525000Y-107450353D01*
X317225000Y-105250000D02*
X316324647Y-105250000D01*
X317225000Y-105250000D02*
X318125353Y-105250000D01*
X317225000Y-108250000D02*
X316324647Y-108250000D01*
X317225000Y-108250000D02*
X318125353Y-108250000D01*
X318925000Y-106750000D02*
X318925000Y-106049647D01*
X318925000Y-106750000D02*
X318925000Y-107450353D01*
X315481066Y-105893345D02*
G75*
G02*
X315524976Y-106049647I-256066J-156255D01*
G01*
X315481066Y-105893345D02*
G75*
G02*
X316168345Y-105206066I426774J260505D01*
G01*
X315525000Y-107450353D02*
G75*
G02*
X315481065Y-107606654I-299680J-87D01*
G01*
X316168345Y-108293934D02*
G75*
G02*
X315481066Y-107606655I-260505J426774D01*
G01*
X316168345Y-108293934D02*
G75*
G02*
X316324647Y-108250024I156255J-256066D01*
G01*
X316324647Y-105250000D02*
G75*
G02*
X316168344Y-105206067I3J300020D01*
G01*
X318125353Y-108250000D02*
G75*
G02*
X318281655Y-108293934I3J-299992D01*
G01*
X318281655Y-105206066D02*
G75*
G02*
X318125353Y-105250000I-156299J256058D01*
G01*
X318281655Y-105206066D02*
G75*
G02*
X318968934Y-105893345I260503J-426776D01*
G01*
X318925000Y-106049647D02*
G75*
G02*
X318968934Y-105893345I299992J3D01*
G01*
X318968934Y-107606655D02*
G75*
G02*
X318281655Y-108293934I-426776J-260503D01*
G01*
X318968934Y-107606655D02*
G75*
G02*
X318925000Y-107450353I256058J156299D01*
G01*
%TO.C,LED13*%
X286800000Y-88000000D02*
X286800000Y-87299647D01*
X286800000Y-88000000D02*
X286800000Y-88700353D01*
X288500000Y-86500000D02*
X287599647Y-86500000D01*
X288500000Y-86500000D02*
X289400353Y-86500000D01*
X288500000Y-89500000D02*
X287599647Y-89500000D01*
X288500000Y-89500000D02*
X289400353Y-89500000D01*
X290200000Y-88000000D02*
X290200000Y-87299647D01*
X290200000Y-88000000D02*
X290200000Y-88700353D01*
X286756066Y-87143345D02*
G75*
G02*
X286799976Y-87299647I-256066J-156255D01*
G01*
X286756066Y-87143345D02*
G75*
G02*
X287443345Y-86456066I426774J260505D01*
G01*
X286800000Y-88700353D02*
G75*
G02*
X286756065Y-88856654I-299680J-87D01*
G01*
X287443345Y-89543934D02*
G75*
G02*
X286756066Y-88856655I-260505J426774D01*
G01*
X287443345Y-89543934D02*
G75*
G02*
X287599647Y-89500024I156255J-256066D01*
G01*
X287599647Y-86500000D02*
G75*
G02*
X287443344Y-86456067I3J300020D01*
G01*
X289400353Y-89500000D02*
G75*
G02*
X289556655Y-89543934I3J-299992D01*
G01*
X289556655Y-86456066D02*
G75*
G02*
X289400353Y-86500000I-156299J256058D01*
G01*
X289556655Y-86456066D02*
G75*
G02*
X290243934Y-87143345I260503J-426776D01*
G01*
X290200000Y-87299647D02*
G75*
G02*
X290243934Y-87143345I299992J3D01*
G01*
X290243934Y-88856655D02*
G75*
G02*
X289556655Y-89543934I-426776J-260503D01*
G01*
X290243934Y-88856655D02*
G75*
G02*
X290200000Y-88700353I256058J156299D01*
G01*
%TO.C,LED58*%
X281800000Y-145000000D02*
X281800000Y-144299647D01*
X281800000Y-145000000D02*
X281800000Y-145700353D01*
X283500000Y-143500000D02*
X282599647Y-143500000D01*
X283500000Y-143500000D02*
X284400353Y-143500000D01*
X283500000Y-146500000D02*
X282599647Y-146500000D01*
X283500000Y-146500000D02*
X284400353Y-146500000D01*
X285200000Y-145000000D02*
X285200000Y-144299647D01*
X285200000Y-145000000D02*
X285200000Y-145700353D01*
X281756066Y-144143345D02*
G75*
G02*
X281799976Y-144299647I-256066J-156255D01*
G01*
X281756066Y-144143345D02*
G75*
G02*
X282443345Y-143456066I426774J260505D01*
G01*
X281800000Y-145700353D02*
G75*
G02*
X281756065Y-145856654I-299680J-87D01*
G01*
X282443345Y-146543934D02*
G75*
G02*
X281756066Y-145856655I-260505J426774D01*
G01*
X282443345Y-146543934D02*
G75*
G02*
X282599647Y-146500024I156255J-256066D01*
G01*
X282599647Y-143500000D02*
G75*
G02*
X282443344Y-143456067I3J300020D01*
G01*
X284400353Y-146500000D02*
G75*
G02*
X284556655Y-146543934I3J-299992D01*
G01*
X284556655Y-143456066D02*
G75*
G02*
X284400353Y-143500000I-156299J256058D01*
G01*
X284556655Y-143456066D02*
G75*
G02*
X285243934Y-144143345I260503J-426776D01*
G01*
X285200000Y-144299647D02*
G75*
G02*
X285243934Y-144143345I299992J3D01*
G01*
X285243934Y-145856655D02*
G75*
G02*
X284556655Y-146543934I-426776J-260503D01*
G01*
X285243934Y-145856655D02*
G75*
G02*
X285200000Y-145700353I256058J156299D01*
G01*
%TO.C,LED73*%
X324800000Y-164000000D02*
X324800000Y-163299647D01*
X324800000Y-164000000D02*
X324800000Y-164700353D01*
X326500000Y-162500000D02*
X325599647Y-162500000D01*
X326500000Y-162500000D02*
X327400353Y-162500000D01*
X326500000Y-165500000D02*
X325599647Y-165500000D01*
X326500000Y-165500000D02*
X327400353Y-165500000D01*
X328200000Y-164000000D02*
X328200000Y-163299647D01*
X328200000Y-164000000D02*
X328200000Y-164700353D01*
X324756066Y-163143345D02*
G75*
G02*
X324799976Y-163299647I-256066J-156255D01*
G01*
X324756066Y-163143345D02*
G75*
G02*
X325443345Y-162456066I426774J260505D01*
G01*
X324800000Y-164700353D02*
G75*
G02*
X324756065Y-164856654I-299680J-87D01*
G01*
X325443345Y-165543934D02*
G75*
G02*
X324756066Y-164856655I-260505J426774D01*
G01*
X325443345Y-165543934D02*
G75*
G02*
X325599647Y-165500024I156255J-256066D01*
G01*
X325599647Y-162500000D02*
G75*
G02*
X325443344Y-162456067I3J300020D01*
G01*
X327400353Y-165500000D02*
G75*
G02*
X327556655Y-165543934I3J-299992D01*
G01*
X327556655Y-162456066D02*
G75*
G02*
X327400353Y-162500000I-156299J256058D01*
G01*
X327556655Y-162456066D02*
G75*
G02*
X328243934Y-163143345I260503J-426776D01*
G01*
X328200000Y-163299647D02*
G75*
G02*
X328243934Y-163143345I299992J3D01*
G01*
X328243934Y-164856655D02*
G75*
G02*
X327556655Y-165543934I-426776J-260503D01*
G01*
X328243934Y-164856655D02*
G75*
G02*
X328200000Y-164700353I256058J156299D01*
G01*
%TO.C,LED17*%
X58025000Y-106750000D02*
X58025000Y-106049647D01*
X58025000Y-106750000D02*
X58025000Y-107450353D01*
X59725000Y-105250000D02*
X58824647Y-105250000D01*
X59725000Y-105250000D02*
X60625353Y-105250000D01*
X59725000Y-108250000D02*
X58824647Y-108250000D01*
X59725000Y-108250000D02*
X60625353Y-108250000D01*
X61425000Y-106750000D02*
X61425000Y-106049647D01*
X61425000Y-106750000D02*
X61425000Y-107450353D01*
X57981066Y-105893345D02*
G75*
G02*
X58024976Y-106049647I-256066J-156255D01*
G01*
X57981066Y-105893345D02*
G75*
G02*
X58668345Y-105206066I426774J260505D01*
G01*
X58025000Y-107450353D02*
G75*
G02*
X57981065Y-107606654I-299680J-87D01*
G01*
X58668345Y-108293934D02*
G75*
G02*
X57981066Y-107606655I-260505J426774D01*
G01*
X58668345Y-108293934D02*
G75*
G02*
X58824647Y-108250024I156255J-256066D01*
G01*
X58824647Y-105250000D02*
G75*
G02*
X58668344Y-105206067I3J300020D01*
G01*
X60625353Y-108250000D02*
G75*
G02*
X60781655Y-108293934I3J-299992D01*
G01*
X60781655Y-105206066D02*
G75*
G02*
X60625353Y-105250000I-156299J256058D01*
G01*
X60781655Y-105206066D02*
G75*
G02*
X61468934Y-105893345I260503J-426776D01*
G01*
X61425000Y-106049647D02*
G75*
G02*
X61468934Y-105893345I299992J3D01*
G01*
X61468934Y-107606655D02*
G75*
G02*
X60781655Y-108293934I-426776J-260503D01*
G01*
X61468934Y-107606655D02*
G75*
G02*
X61425000Y-107450353I256058J156299D01*
G01*
%TO.C,LED84*%
X344025000Y-182750000D02*
X344025000Y-182049647D01*
X344025000Y-182750000D02*
X344025000Y-183450353D01*
X345725000Y-181250000D02*
X344824647Y-181250000D01*
X345725000Y-181250000D02*
X346625353Y-181250000D01*
X345725000Y-184250000D02*
X344824647Y-184250000D01*
X345725000Y-184250000D02*
X346625353Y-184250000D01*
X347425000Y-182750000D02*
X347425000Y-182049647D01*
X347425000Y-182750000D02*
X347425000Y-183450353D01*
X343981066Y-181893345D02*
G75*
G02*
X344024976Y-182049647I-256066J-156255D01*
G01*
X343981066Y-181893345D02*
G75*
G02*
X344668345Y-181206066I426774J260505D01*
G01*
X344025000Y-183450353D02*
G75*
G02*
X343981065Y-183606654I-299680J-87D01*
G01*
X344668345Y-184293934D02*
G75*
G02*
X343981066Y-183606655I-260505J426774D01*
G01*
X344668345Y-184293934D02*
G75*
G02*
X344824647Y-184250024I156255J-256066D01*
G01*
X344824647Y-181250000D02*
G75*
G02*
X344668344Y-181206067I3J300020D01*
G01*
X346625353Y-184250000D02*
G75*
G02*
X346781655Y-184293934I3J-299992D01*
G01*
X346781655Y-181206066D02*
G75*
G02*
X346625353Y-181250000I-156299J256058D01*
G01*
X346781655Y-181206066D02*
G75*
G02*
X347468934Y-181893345I260503J-426776D01*
G01*
X347425000Y-182049647D02*
G75*
G02*
X347468934Y-181893345I299992J3D01*
G01*
X347468934Y-183606655D02*
G75*
G02*
X346781655Y-184293934I-426776J-260503D01*
G01*
X347468934Y-183606655D02*
G75*
G02*
X347425000Y-183450353I256058J156299D01*
G01*
%TO.C,LED82*%
X305800000Y-183000000D02*
X305800000Y-182299647D01*
X305800000Y-183000000D02*
X305800000Y-183700353D01*
X307500000Y-181500000D02*
X306599647Y-181500000D01*
X307500000Y-181500000D02*
X308400353Y-181500000D01*
X307500000Y-184500000D02*
X306599647Y-184500000D01*
X307500000Y-184500000D02*
X308400353Y-184500000D01*
X309200000Y-183000000D02*
X309200000Y-182299647D01*
X309200000Y-183000000D02*
X309200000Y-183700353D01*
X305756066Y-182143345D02*
G75*
G02*
X305799976Y-182299647I-256066J-156255D01*
G01*
X305756066Y-182143345D02*
G75*
G02*
X306443345Y-181456066I426774J260505D01*
G01*
X305800000Y-183700353D02*
G75*
G02*
X305756065Y-183856654I-299680J-87D01*
G01*
X306443345Y-184543934D02*
G75*
G02*
X305756066Y-183856655I-260505J426774D01*
G01*
X306443345Y-184543934D02*
G75*
G02*
X306599647Y-184500024I156255J-256066D01*
G01*
X306599647Y-181500000D02*
G75*
G02*
X306443344Y-181456067I3J300020D01*
G01*
X308400353Y-184500000D02*
G75*
G02*
X308556655Y-184543934I3J-299992D01*
G01*
X308556655Y-181456066D02*
G75*
G02*
X308400353Y-181500000I-156299J256058D01*
G01*
X308556655Y-181456066D02*
G75*
G02*
X309243934Y-182143345I260503J-426776D01*
G01*
X309200000Y-182299647D02*
G75*
G02*
X309243934Y-182143345I299992J3D01*
G01*
X309243934Y-183856655D02*
G75*
G02*
X308556655Y-184543934I-426776J-260503D01*
G01*
X309243934Y-183856655D02*
G75*
G02*
X309200000Y-183700353I256058J156299D01*
G01*
%TO.C,LED79*%
X248300000Y-183000000D02*
X248300000Y-182299647D01*
X248300000Y-183000000D02*
X248300000Y-183700353D01*
X250000000Y-181500000D02*
X249099647Y-181500000D01*
X250000000Y-181500000D02*
X250900353Y-181500000D01*
X250000000Y-184500000D02*
X249099647Y-184500000D01*
X250000000Y-184500000D02*
X250900353Y-184500000D01*
X251700000Y-183000000D02*
X251700000Y-182299647D01*
X251700000Y-183000000D02*
X251700000Y-183700353D01*
X248256066Y-182143345D02*
G75*
G02*
X248299976Y-182299647I-256066J-156255D01*
G01*
X248256066Y-182143345D02*
G75*
G02*
X248943345Y-181456066I426774J260505D01*
G01*
X248300000Y-183700353D02*
G75*
G02*
X248256065Y-183856654I-299680J-87D01*
G01*
X248943345Y-184543934D02*
G75*
G02*
X248256066Y-183856655I-260505J426774D01*
G01*
X248943345Y-184543934D02*
G75*
G02*
X249099647Y-184500024I156255J-256066D01*
G01*
X249099647Y-181500000D02*
G75*
G02*
X248943344Y-181456067I3J300020D01*
G01*
X250900353Y-184500000D02*
G75*
G02*
X251056655Y-184543934I3J-299992D01*
G01*
X251056655Y-181456066D02*
G75*
G02*
X250900353Y-181500000I-156299J256058D01*
G01*
X251056655Y-181456066D02*
G75*
G02*
X251743934Y-182143345I260503J-426776D01*
G01*
X251700000Y-182299647D02*
G75*
G02*
X251743934Y-182143345I299992J3D01*
G01*
X251743934Y-183856655D02*
G75*
G02*
X251056655Y-184543934I-426776J-260503D01*
G01*
X251743934Y-183856655D02*
G75*
G02*
X251700000Y-183700353I256058J156299D01*
G01*
%TO.C,LED5*%
X134230000Y-87750000D02*
X134230000Y-87049647D01*
X134230000Y-87750000D02*
X134230000Y-88450353D01*
X135930000Y-86250000D02*
X135029647Y-86250000D01*
X135930000Y-86250000D02*
X136830353Y-86250000D01*
X135930000Y-89250000D02*
X135029647Y-89250000D01*
X135930000Y-89250000D02*
X136830353Y-89250000D01*
X137630000Y-87750000D02*
X137630000Y-87049647D01*
X137630000Y-87750000D02*
X137630000Y-88450353D01*
X134186066Y-86893345D02*
G75*
G02*
X134229976Y-87049647I-256066J-156255D01*
G01*
X134186066Y-86893345D02*
G75*
G02*
X134873345Y-86206066I426774J260505D01*
G01*
X134230000Y-88450353D02*
G75*
G02*
X134186065Y-88606654I-299680J-87D01*
G01*
X134873345Y-89293934D02*
G75*
G02*
X134186066Y-88606655I-260505J426774D01*
G01*
X134873345Y-89293934D02*
G75*
G02*
X135029647Y-89250024I156255J-256066D01*
G01*
X135029647Y-86250000D02*
G75*
G02*
X134873344Y-86206067I3J300020D01*
G01*
X136830353Y-89250000D02*
G75*
G02*
X136986655Y-89293934I3J-299992D01*
G01*
X136986655Y-86206066D02*
G75*
G02*
X136830353Y-86250000I-156299J256058D01*
G01*
X136986655Y-86206066D02*
G75*
G02*
X137673934Y-86893345I260503J-426776D01*
G01*
X137630000Y-87049647D02*
G75*
G02*
X137673934Y-86893345I299992J3D01*
G01*
X137673934Y-88606655D02*
G75*
G02*
X136986655Y-89293934I-426776J-260503D01*
G01*
X137673934Y-88606655D02*
G75*
G02*
X137630000Y-88450353I256058J156299D01*
G01*
%TO.C,LED47*%
X65148750Y-144500000D02*
X65148750Y-143799647D01*
X65148750Y-144500000D02*
X65148750Y-145200353D01*
X66848750Y-143000000D02*
X65948397Y-143000000D01*
X66848750Y-143000000D02*
X67749103Y-143000000D01*
X66848750Y-146000000D02*
X65948397Y-146000000D01*
X66848750Y-146000000D02*
X67749103Y-146000000D01*
X68548750Y-144500000D02*
X68548750Y-143799647D01*
X68548750Y-144500000D02*
X68548750Y-145200353D01*
X65104816Y-143643345D02*
G75*
G02*
X65148726Y-143799647I-256066J-156255D01*
G01*
X65104816Y-143643345D02*
G75*
G02*
X65792095Y-142956066I426774J260505D01*
G01*
X65148750Y-145200353D02*
G75*
G02*
X65104815Y-145356654I-299680J-87D01*
G01*
X65792095Y-146043934D02*
G75*
G02*
X65104816Y-145356655I-260505J426774D01*
G01*
X65792095Y-146043934D02*
G75*
G02*
X65948397Y-146000024I156255J-256066D01*
G01*
X65948397Y-143000000D02*
G75*
G02*
X65792094Y-142956067I3J300020D01*
G01*
X67749103Y-146000000D02*
G75*
G02*
X67905405Y-146043934I3J-299992D01*
G01*
X67905405Y-142956066D02*
G75*
G02*
X67749103Y-143000000I-156299J256058D01*
G01*
X67905405Y-142956066D02*
G75*
G02*
X68592684Y-143643345I260503J-426776D01*
G01*
X68548750Y-143799647D02*
G75*
G02*
X68592684Y-143643345I299992J3D01*
G01*
X68592684Y-145356655D02*
G75*
G02*
X67905405Y-146043934I-426776J-260503D01*
G01*
X68592684Y-145356655D02*
G75*
G02*
X68548750Y-145200353I256058J156299D01*
G01*
%TO.C,LED45*%
X320300000Y-125750000D02*
X320300000Y-125049647D01*
X320300000Y-125750000D02*
X320300000Y-126450353D01*
X322000000Y-124250000D02*
X321099647Y-124250000D01*
X322000000Y-124250000D02*
X322900353Y-124250000D01*
X322000000Y-127250000D02*
X321099647Y-127250000D01*
X322000000Y-127250000D02*
X322900353Y-127250000D01*
X323700000Y-125750000D02*
X323700000Y-125049647D01*
X323700000Y-125750000D02*
X323700000Y-126450353D01*
X320256066Y-124893345D02*
G75*
G02*
X320299976Y-125049647I-256066J-156255D01*
G01*
X320256066Y-124893345D02*
G75*
G02*
X320943345Y-124206066I426774J260505D01*
G01*
X320300000Y-126450353D02*
G75*
G02*
X320256065Y-126606654I-299680J-87D01*
G01*
X320943345Y-127293934D02*
G75*
G02*
X320256066Y-126606655I-260505J426774D01*
G01*
X320943345Y-127293934D02*
G75*
G02*
X321099647Y-127250024I156255J-256066D01*
G01*
X321099647Y-124250000D02*
G75*
G02*
X320943344Y-124206067I3J300020D01*
G01*
X322900353Y-127250000D02*
G75*
G02*
X323056655Y-127293934I3J-299992D01*
G01*
X323056655Y-124206066D02*
G75*
G02*
X322900353Y-124250000I-156299J256058D01*
G01*
X323056655Y-124206066D02*
G75*
G02*
X323743934Y-124893345I260503J-426776D01*
G01*
X323700000Y-125049647D02*
G75*
G02*
X323743934Y-124893345I299992J3D01*
G01*
X323743934Y-126606655D02*
G75*
G02*
X323056655Y-127293934I-426776J-260503D01*
G01*
X323743934Y-126606655D02*
G75*
G02*
X323700000Y-126450353I256058J156299D01*
G01*
%TO.C,LED55*%
X224692500Y-145000000D02*
X224692500Y-144299647D01*
X224692500Y-145000000D02*
X224692500Y-145700353D01*
X226392500Y-143500000D02*
X225492147Y-143500000D01*
X226392500Y-143500000D02*
X227292853Y-143500000D01*
X226392500Y-146500000D02*
X225492147Y-146500000D01*
X226392500Y-146500000D02*
X227292853Y-146500000D01*
X228092500Y-145000000D02*
X228092500Y-144299647D01*
X228092500Y-145000000D02*
X228092500Y-145700353D01*
X224648566Y-144143345D02*
G75*
G02*
X224692476Y-144299647I-256066J-156255D01*
G01*
X224648566Y-144143345D02*
G75*
G02*
X225335845Y-143456066I426774J260505D01*
G01*
X224692500Y-145700353D02*
G75*
G02*
X224648565Y-145856654I-299680J-87D01*
G01*
X225335845Y-146543934D02*
G75*
G02*
X224648566Y-145856655I-260505J426774D01*
G01*
X225335845Y-146543934D02*
G75*
G02*
X225492147Y-146500024I156255J-256066D01*
G01*
X225492147Y-143500000D02*
G75*
G02*
X225335844Y-143456067I3J300020D01*
G01*
X227292853Y-146500000D02*
G75*
G02*
X227449155Y-146543934I3J-299992D01*
G01*
X227449155Y-143456066D02*
G75*
G02*
X227292853Y-143500000I-156299J256058D01*
G01*
X227449155Y-143456066D02*
G75*
G02*
X228136434Y-144143345I260503J-426776D01*
G01*
X228092500Y-144299647D02*
G75*
G02*
X228136434Y-144143345I299992J3D01*
G01*
X228136434Y-145856655D02*
G75*
G02*
X227449155Y-146543934I-426776J-260503D01*
G01*
X228136434Y-145856655D02*
G75*
G02*
X228092500Y-145700353I256058J156299D01*
G01*
%TO.C,LED9*%
X210525000Y-87750000D02*
X210525000Y-87049647D01*
X210525000Y-87750000D02*
X210525000Y-88450353D01*
X212225000Y-86250000D02*
X211324647Y-86250000D01*
X212225000Y-86250000D02*
X213125353Y-86250000D01*
X212225000Y-89250000D02*
X211324647Y-89250000D01*
X212225000Y-89250000D02*
X213125353Y-89250000D01*
X213925000Y-87750000D02*
X213925000Y-87049647D01*
X213925000Y-87750000D02*
X213925000Y-88450353D01*
X210481066Y-86893345D02*
G75*
G02*
X210524976Y-87049647I-256066J-156255D01*
G01*
X210481066Y-86893345D02*
G75*
G02*
X211168345Y-86206066I426774J260505D01*
G01*
X210525000Y-88450353D02*
G75*
G02*
X210481065Y-88606654I-299680J-87D01*
G01*
X211168345Y-89293934D02*
G75*
G02*
X210481066Y-88606655I-260505J426774D01*
G01*
X211168345Y-89293934D02*
G75*
G02*
X211324647Y-89250024I156255J-256066D01*
G01*
X211324647Y-86250000D02*
G75*
G02*
X211168344Y-86206067I3J300020D01*
G01*
X213125353Y-89250000D02*
G75*
G02*
X213281655Y-89293934I3J-299992D01*
G01*
X213281655Y-86206066D02*
G75*
G02*
X213125353Y-86250000I-156299J256058D01*
G01*
X213281655Y-86206066D02*
G75*
G02*
X213968934Y-86893345I260503J-426776D01*
G01*
X213925000Y-87049647D02*
G75*
G02*
X213968934Y-86893345I299992J3D01*
G01*
X213968934Y-88606655D02*
G75*
G02*
X213281655Y-89293934I-426776J-260503D01*
G01*
X213968934Y-88606655D02*
G75*
G02*
X213925000Y-88450353I256058J156299D01*
G01*
%TO.C,LED19*%
X96025000Y-106750000D02*
X96025000Y-106049647D01*
X96025000Y-106750000D02*
X96025000Y-107450353D01*
X97725000Y-105250000D02*
X96824647Y-105250000D01*
X97725000Y-105250000D02*
X98625353Y-105250000D01*
X97725000Y-108250000D02*
X96824647Y-108250000D01*
X97725000Y-108250000D02*
X98625353Y-108250000D01*
X99425000Y-106750000D02*
X99425000Y-106049647D01*
X99425000Y-106750000D02*
X99425000Y-107450353D01*
X95981066Y-105893345D02*
G75*
G02*
X96024976Y-106049647I-256066J-156255D01*
G01*
X95981066Y-105893345D02*
G75*
G02*
X96668345Y-105206066I426774J260505D01*
G01*
X96025000Y-107450353D02*
G75*
G02*
X95981065Y-107606654I-299680J-87D01*
G01*
X96668345Y-108293934D02*
G75*
G02*
X95981066Y-107606655I-260505J426774D01*
G01*
X96668345Y-108293934D02*
G75*
G02*
X96824647Y-108250024I156255J-256066D01*
G01*
X96824647Y-105250000D02*
G75*
G02*
X96668344Y-105206067I3J300020D01*
G01*
X98625353Y-108250000D02*
G75*
G02*
X98781655Y-108293934I3J-299992D01*
G01*
X98781655Y-105206066D02*
G75*
G02*
X98625353Y-105250000I-156299J256058D01*
G01*
X98781655Y-105206066D02*
G75*
G02*
X99468934Y-105893345I260503J-426776D01*
G01*
X99425000Y-106049647D02*
G75*
G02*
X99468934Y-105893345I299992J3D01*
G01*
X99468934Y-107606655D02*
G75*
G02*
X98781655Y-108293934I-426776J-260503D01*
G01*
X99468934Y-107606655D02*
G75*
G02*
X99425000Y-107450353I256058J156299D01*
G01*
%TO.C,LED78*%
X179448750Y-182750000D02*
X179448750Y-182049647D01*
X179448750Y-182750000D02*
X179448750Y-183450353D01*
X181148750Y-181250000D02*
X180248397Y-181250000D01*
X181148750Y-181250000D02*
X182049103Y-181250000D01*
X181148750Y-184250000D02*
X180248397Y-184250000D01*
X181148750Y-184250000D02*
X182049103Y-184250000D01*
X182848750Y-182750000D02*
X182848750Y-182049647D01*
X182848750Y-182750000D02*
X182848750Y-183450353D01*
X179404816Y-181893345D02*
G75*
G02*
X179448726Y-182049647I-256066J-156255D01*
G01*
X179404816Y-181893345D02*
G75*
G02*
X180092095Y-181206066I426774J260505D01*
G01*
X179448750Y-183450353D02*
G75*
G02*
X179404815Y-183606654I-299680J-87D01*
G01*
X180092095Y-184293934D02*
G75*
G02*
X179404816Y-183606655I-260505J426774D01*
G01*
X180092095Y-184293934D02*
G75*
G02*
X180248397Y-184250024I156255J-256066D01*
G01*
X180248397Y-181250000D02*
G75*
G02*
X180092094Y-181206067I3J300020D01*
G01*
X182049103Y-184250000D02*
G75*
G02*
X182205405Y-184293934I3J-299992D01*
G01*
X182205405Y-181206066D02*
G75*
G02*
X182049103Y-181250000I-156299J256058D01*
G01*
X182205405Y-181206066D02*
G75*
G02*
X182892684Y-181893345I260503J-426776D01*
G01*
X182848750Y-182049647D02*
G75*
G02*
X182892684Y-181893345I299992J3D01*
G01*
X182892684Y-183606655D02*
G75*
G02*
X182205405Y-184293934I-426776J-260503D01*
G01*
X182892684Y-183606655D02*
G75*
G02*
X182848750Y-183450353I256058J156299D01*
G01*
%TO.C,LED27*%
X248525000Y-106750000D02*
X248525000Y-106049647D01*
X248525000Y-106750000D02*
X248525000Y-107450353D01*
X250225000Y-105250000D02*
X249324647Y-105250000D01*
X250225000Y-105250000D02*
X251125353Y-105250000D01*
X250225000Y-108250000D02*
X249324647Y-108250000D01*
X250225000Y-108250000D02*
X251125353Y-108250000D01*
X251925000Y-106750000D02*
X251925000Y-106049647D01*
X251925000Y-106750000D02*
X251925000Y-107450353D01*
X248481066Y-105893345D02*
G75*
G02*
X248524976Y-106049647I-256066J-156255D01*
G01*
X248481066Y-105893345D02*
G75*
G02*
X249168345Y-105206066I426774J260505D01*
G01*
X248525000Y-107450353D02*
G75*
G02*
X248481065Y-107606654I-299680J-87D01*
G01*
X249168345Y-108293934D02*
G75*
G02*
X248481066Y-107606655I-260505J426774D01*
G01*
X249168345Y-108293934D02*
G75*
G02*
X249324647Y-108250024I156255J-256066D01*
G01*
X249324647Y-105250000D02*
G75*
G02*
X249168344Y-105206067I3J300020D01*
G01*
X251125353Y-108250000D02*
G75*
G02*
X251281655Y-108293934I3J-299992D01*
G01*
X251281655Y-105206066D02*
G75*
G02*
X251125353Y-105250000I-156299J256058D01*
G01*
X251281655Y-105206066D02*
G75*
G02*
X251968934Y-105893345I260503J-426776D01*
G01*
X251925000Y-106049647D02*
G75*
G02*
X251968934Y-105893345I299992J3D01*
G01*
X251968934Y-107606655D02*
G75*
G02*
X251281655Y-108293934I-426776J-260503D01*
G01*
X251968934Y-107606655D02*
G75*
G02*
X251925000Y-107450353I256058J156299D01*
G01*
%TO.C,LED62*%
X100867500Y-164000000D02*
X100867500Y-163299647D01*
X100867500Y-164000000D02*
X100867500Y-164700353D01*
X102567500Y-162500000D02*
X101667147Y-162500000D01*
X102567500Y-162500000D02*
X103467853Y-162500000D01*
X102567500Y-165500000D02*
X101667147Y-165500000D01*
X102567500Y-165500000D02*
X103467853Y-165500000D01*
X104267500Y-164000000D02*
X104267500Y-163299647D01*
X104267500Y-164000000D02*
X104267500Y-164700353D01*
X100823566Y-163143345D02*
G75*
G02*
X100867476Y-163299647I-256066J-156255D01*
G01*
X100823566Y-163143345D02*
G75*
G02*
X101510845Y-162456066I426774J260505D01*
G01*
X100867500Y-164700353D02*
G75*
G02*
X100823565Y-164856654I-299680J-87D01*
G01*
X101510845Y-165543934D02*
G75*
G02*
X100823566Y-164856655I-260505J426774D01*
G01*
X101510845Y-165543934D02*
G75*
G02*
X101667147Y-165500024I156255J-256066D01*
G01*
X101667147Y-162500000D02*
G75*
G02*
X101510844Y-162456067I3J300020D01*
G01*
X103467853Y-165500000D02*
G75*
G02*
X103624155Y-165543934I3J-299992D01*
G01*
X103624155Y-162456066D02*
G75*
G02*
X103467853Y-162500000I-156299J256058D01*
G01*
X103624155Y-162456066D02*
G75*
G02*
X104311434Y-163143345I260503J-426776D01*
G01*
X104267500Y-163299647D02*
G75*
G02*
X104311434Y-163143345I299992J3D01*
G01*
X104311434Y-164856655D02*
G75*
G02*
X103624155Y-165543934I-426776J-260503D01*
G01*
X104311434Y-164856655D02*
G75*
G02*
X104267500Y-164700353I256058J156299D01*
G01*
%TO.C,LED36*%
X144025000Y-125750000D02*
X144025000Y-125049647D01*
X144025000Y-125750000D02*
X144025000Y-126450353D01*
X145725000Y-124250000D02*
X144824647Y-124250000D01*
X145725000Y-124250000D02*
X146625353Y-124250000D01*
X145725000Y-127250000D02*
X144824647Y-127250000D01*
X145725000Y-127250000D02*
X146625353Y-127250000D01*
X147425000Y-125750000D02*
X147425000Y-125049647D01*
X147425000Y-125750000D02*
X147425000Y-126450353D01*
X143981066Y-124893345D02*
G75*
G02*
X144024976Y-125049647I-256066J-156255D01*
G01*
X143981066Y-124893345D02*
G75*
G02*
X144668345Y-124206066I426774J260505D01*
G01*
X144025000Y-126450353D02*
G75*
G02*
X143981065Y-126606654I-299680J-87D01*
G01*
X144668345Y-127293934D02*
G75*
G02*
X143981066Y-126606655I-260505J426774D01*
G01*
X144668345Y-127293934D02*
G75*
G02*
X144824647Y-127250024I156255J-256066D01*
G01*
X144824647Y-124250000D02*
G75*
G02*
X144668344Y-124206067I3J300020D01*
G01*
X146625353Y-127250000D02*
G75*
G02*
X146781655Y-127293934I3J-299992D01*
G01*
X146781655Y-124206066D02*
G75*
G02*
X146625353Y-124250000I-156299J256058D01*
G01*
X146781655Y-124206066D02*
G75*
G02*
X147468934Y-124893345I260503J-426776D01*
G01*
X147425000Y-125049647D02*
G75*
G02*
X147468934Y-124893345I299992J3D01*
G01*
X147468934Y-126606655D02*
G75*
G02*
X146781655Y-127293934I-426776J-260503D01*
G01*
X147468934Y-126606655D02*
G75*
G02*
X147425000Y-126450353I256058J156299D01*
G01*
%TO.C,LED46*%
X343755000Y-125500000D02*
X343755000Y-124799647D01*
X343755000Y-125500000D02*
X343755000Y-126200353D01*
X345455000Y-124000000D02*
X344554647Y-124000000D01*
X345455000Y-124000000D02*
X346355353Y-124000000D01*
X345455000Y-127000000D02*
X344554647Y-127000000D01*
X345455000Y-127000000D02*
X346355353Y-127000000D01*
X347155000Y-125500000D02*
X347155000Y-124799647D01*
X347155000Y-125500000D02*
X347155000Y-126200353D01*
X343711066Y-124643345D02*
G75*
G02*
X343754976Y-124799647I-256066J-156255D01*
G01*
X343711066Y-124643345D02*
G75*
G02*
X344398345Y-123956066I426774J260505D01*
G01*
X343755000Y-126200353D02*
G75*
G02*
X343711065Y-126356654I-299680J-87D01*
G01*
X344398345Y-127043934D02*
G75*
G02*
X343711066Y-126356655I-260505J426774D01*
G01*
X344398345Y-127043934D02*
G75*
G02*
X344554647Y-127000024I156255J-256066D01*
G01*
X344554647Y-124000000D02*
G75*
G02*
X344398344Y-123956067I3J300020D01*
G01*
X346355353Y-127000000D02*
G75*
G02*
X346511655Y-127043934I3J-299992D01*
G01*
X346511655Y-123956066D02*
G75*
G02*
X346355353Y-124000000I-156299J256058D01*
G01*
X346511655Y-123956066D02*
G75*
G02*
X347198934Y-124643345I260503J-426776D01*
G01*
X347155000Y-124799647D02*
G75*
G02*
X347198934Y-124643345I299992J3D01*
G01*
X347198934Y-126356655D02*
G75*
G02*
X346511655Y-127043934I-426776J-260503D01*
G01*
X347198934Y-126356655D02*
G75*
G02*
X347155000Y-126200353I256058J156299D01*
G01*
%TO.C,LED71*%
X272317500Y-164000000D02*
X272317500Y-163299647D01*
X272317500Y-164000000D02*
X272317500Y-164700353D01*
X274017500Y-162500000D02*
X273117147Y-162500000D01*
X274017500Y-162500000D02*
X274917853Y-162500000D01*
X274017500Y-165500000D02*
X273117147Y-165500000D01*
X274017500Y-165500000D02*
X274917853Y-165500000D01*
X275717500Y-164000000D02*
X275717500Y-163299647D01*
X275717500Y-164000000D02*
X275717500Y-164700353D01*
X272273566Y-163143345D02*
G75*
G02*
X272317476Y-163299647I-256066J-156255D01*
G01*
X272273566Y-163143345D02*
G75*
G02*
X272960845Y-162456066I426774J260505D01*
G01*
X272317500Y-164700353D02*
G75*
G02*
X272273565Y-164856654I-299680J-87D01*
G01*
X272960845Y-165543934D02*
G75*
G02*
X272273566Y-164856655I-260505J426774D01*
G01*
X272960845Y-165543934D02*
G75*
G02*
X273117147Y-165500024I156255J-256066D01*
G01*
X273117147Y-162500000D02*
G75*
G02*
X272960844Y-162456067I3J300020D01*
G01*
X274917853Y-165500000D02*
G75*
G02*
X275074155Y-165543934I3J-299992D01*
G01*
X275074155Y-162456066D02*
G75*
G02*
X274917853Y-162500000I-156299J256058D01*
G01*
X275074155Y-162456066D02*
G75*
G02*
X275761434Y-163143345I260503J-426776D01*
G01*
X275717500Y-163299647D02*
G75*
G02*
X275761434Y-163143345I299992J3D01*
G01*
X275761434Y-164856655D02*
G75*
G02*
X275074155Y-165543934I-426776J-260503D01*
G01*
X275761434Y-164856655D02*
G75*
G02*
X275717500Y-164700353I256058J156299D01*
G01*
%TO.C,LED76*%
X83800000Y-183000000D02*
X83800000Y-182299647D01*
X83800000Y-183000000D02*
X83800000Y-183700353D01*
X85500000Y-181500000D02*
X84599647Y-181500000D01*
X85500000Y-181500000D02*
X86400353Y-181500000D01*
X85500000Y-184500000D02*
X84599647Y-184500000D01*
X85500000Y-184500000D02*
X86400353Y-184500000D01*
X87200000Y-183000000D02*
X87200000Y-182299647D01*
X87200000Y-183000000D02*
X87200000Y-183700353D01*
X83756066Y-182143345D02*
G75*
G02*
X83799976Y-182299647I-256066J-156255D01*
G01*
X83756066Y-182143345D02*
G75*
G02*
X84443345Y-181456066I426774J260505D01*
G01*
X83800000Y-183700353D02*
G75*
G02*
X83756065Y-183856654I-299680J-87D01*
G01*
X84443345Y-184543934D02*
G75*
G02*
X83756066Y-183856655I-260505J426774D01*
G01*
X84443345Y-184543934D02*
G75*
G02*
X84599647Y-184500024I156255J-256066D01*
G01*
X84599647Y-181500000D02*
G75*
G02*
X84443344Y-181456067I3J300020D01*
G01*
X86400353Y-184500000D02*
G75*
G02*
X86556655Y-184543934I3J-299992D01*
G01*
X86556655Y-181456066D02*
G75*
G02*
X86400353Y-181500000I-156299J256058D01*
G01*
X86556655Y-181456066D02*
G75*
G02*
X87243934Y-182143345I260503J-426776D01*
G01*
X87200000Y-182299647D02*
G75*
G02*
X87243934Y-182143345I299992J3D01*
G01*
X87243934Y-183856655D02*
G75*
G02*
X86556655Y-184543934I-426776J-260503D01*
G01*
X87243934Y-183856655D02*
G75*
G02*
X87200000Y-183700353I256058J156299D01*
G01*
%TO.C,LED28*%
X268025000Y-106750000D02*
X268025000Y-106049647D01*
X268025000Y-106750000D02*
X268025000Y-107450353D01*
X269725000Y-105250000D02*
X268824647Y-105250000D01*
X269725000Y-105250000D02*
X270625353Y-105250000D01*
X269725000Y-108250000D02*
X268824647Y-108250000D01*
X269725000Y-108250000D02*
X270625353Y-108250000D01*
X271425000Y-106750000D02*
X271425000Y-106049647D01*
X271425000Y-106750000D02*
X271425000Y-107450353D01*
X267981066Y-105893345D02*
G75*
G02*
X268024976Y-106049647I-256066J-156255D01*
G01*
X267981066Y-105893345D02*
G75*
G02*
X268668345Y-105206066I426774J260505D01*
G01*
X268025000Y-107450353D02*
G75*
G02*
X267981065Y-107606654I-299680J-87D01*
G01*
X268668345Y-108293934D02*
G75*
G02*
X267981066Y-107606655I-260505J426774D01*
G01*
X268668345Y-108293934D02*
G75*
G02*
X268824647Y-108250024I156255J-256066D01*
G01*
X268824647Y-105250000D02*
G75*
G02*
X268668344Y-105206067I3J300020D01*
G01*
X270625353Y-108250000D02*
G75*
G02*
X270781655Y-108293934I3J-299992D01*
G01*
X270781655Y-105206066D02*
G75*
G02*
X270625353Y-105250000I-156299J256058D01*
G01*
X270781655Y-105206066D02*
G75*
G02*
X271468934Y-105893345I260503J-426776D01*
G01*
X271425000Y-106049647D02*
G75*
G02*
X271468934Y-105893345I299992J3D01*
G01*
X271468934Y-107606655D02*
G75*
G02*
X270781655Y-108293934I-426776J-260503D01*
G01*
X271468934Y-107606655D02*
G75*
G02*
X271425000Y-107450353I256058J156299D01*
G01*
%TO.C,LED26*%
X229525000Y-106750000D02*
X229525000Y-106049647D01*
X229525000Y-106750000D02*
X229525000Y-107450353D01*
X231225000Y-105250000D02*
X230324647Y-105250000D01*
X231225000Y-105250000D02*
X232125353Y-105250000D01*
X231225000Y-108250000D02*
X230324647Y-108250000D01*
X231225000Y-108250000D02*
X232125353Y-108250000D01*
X232925000Y-106750000D02*
X232925000Y-106049647D01*
X232925000Y-106750000D02*
X232925000Y-107450353D01*
X229481066Y-105893345D02*
G75*
G02*
X229524976Y-106049647I-256066J-156255D01*
G01*
X229481066Y-105893345D02*
G75*
G02*
X230168345Y-105206066I426774J260505D01*
G01*
X229525000Y-107450353D02*
G75*
G02*
X229481065Y-107606654I-299680J-87D01*
G01*
X230168345Y-108293934D02*
G75*
G02*
X229481066Y-107606655I-260505J426774D01*
G01*
X230168345Y-108293934D02*
G75*
G02*
X230324647Y-108250024I156255J-256066D01*
G01*
X230324647Y-105250000D02*
G75*
G02*
X230168344Y-105206067I3J300020D01*
G01*
X232125353Y-108250000D02*
G75*
G02*
X232281655Y-108293934I3J-299992D01*
G01*
X232281655Y-105206066D02*
G75*
G02*
X232125353Y-105250000I-156299J256058D01*
G01*
X232281655Y-105206066D02*
G75*
G02*
X232968934Y-105893345I260503J-426776D01*
G01*
X232925000Y-106049647D02*
G75*
G02*
X232968934Y-105893345I299992J3D01*
G01*
X232968934Y-107606655D02*
G75*
G02*
X232281655Y-108293934I-426776J-260503D01*
G01*
X232968934Y-107606655D02*
G75*
G02*
X232925000Y-107450353I256058J156299D01*
G01*
%TO.C,LED7*%
X172525000Y-87750000D02*
X172525000Y-87049647D01*
X172525000Y-87750000D02*
X172525000Y-88450353D01*
X174225000Y-86250000D02*
X173324647Y-86250000D01*
X174225000Y-86250000D02*
X175125353Y-86250000D01*
X174225000Y-89250000D02*
X173324647Y-89250000D01*
X174225000Y-89250000D02*
X175125353Y-89250000D01*
X175925000Y-87750000D02*
X175925000Y-87049647D01*
X175925000Y-87750000D02*
X175925000Y-88450353D01*
X172481066Y-86893345D02*
G75*
G02*
X172524976Y-87049647I-256066J-156255D01*
G01*
X172481066Y-86893345D02*
G75*
G02*
X173168345Y-86206066I426774J260505D01*
G01*
X172525000Y-88450353D02*
G75*
G02*
X172481065Y-88606654I-299680J-87D01*
G01*
X173168345Y-89293934D02*
G75*
G02*
X172481066Y-88606655I-260505J426774D01*
G01*
X173168345Y-89293934D02*
G75*
G02*
X173324647Y-89250024I156255J-256066D01*
G01*
X173324647Y-86250000D02*
G75*
G02*
X173168344Y-86206067I3J300020D01*
G01*
X175125353Y-89250000D02*
G75*
G02*
X175281655Y-89293934I3J-299992D01*
G01*
X175281655Y-86206066D02*
G75*
G02*
X175125353Y-86250000I-156299J256058D01*
G01*
X175281655Y-86206066D02*
G75*
G02*
X175968934Y-86893345I260503J-426776D01*
G01*
X175925000Y-87049647D02*
G75*
G02*
X175968934Y-86893345I299992J3D01*
G01*
X175968934Y-88606655D02*
G75*
G02*
X175281655Y-89293934I-426776J-260503D01*
G01*
X175968934Y-88606655D02*
G75*
G02*
X175925000Y-88450353I256058J156299D01*
G01*
%TO.C,LED12*%
X267525000Y-87750000D02*
X267525000Y-87049647D01*
X267525000Y-87750000D02*
X267525000Y-88450353D01*
X269225000Y-86250000D02*
X268324647Y-86250000D01*
X269225000Y-86250000D02*
X270125353Y-86250000D01*
X269225000Y-89250000D02*
X268324647Y-89250000D01*
X269225000Y-89250000D02*
X270125353Y-89250000D01*
X270925000Y-87750000D02*
X270925000Y-87049647D01*
X270925000Y-87750000D02*
X270925000Y-88450353D01*
X267481066Y-86893345D02*
G75*
G02*
X267524976Y-87049647I-256066J-156255D01*
G01*
X267481066Y-86893345D02*
G75*
G02*
X268168345Y-86206066I426774J260505D01*
G01*
X267525000Y-88450353D02*
G75*
G02*
X267481065Y-88606654I-299680J-87D01*
G01*
X268168345Y-89293934D02*
G75*
G02*
X267481066Y-88606655I-260505J426774D01*
G01*
X268168345Y-89293934D02*
G75*
G02*
X268324647Y-89250024I156255J-256066D01*
G01*
X268324647Y-86250000D02*
G75*
G02*
X268168344Y-86206067I3J300020D01*
G01*
X270125353Y-89250000D02*
G75*
G02*
X270281655Y-89293934I3J-299992D01*
G01*
X270281655Y-86206066D02*
G75*
G02*
X270125353Y-86250000I-156299J256058D01*
G01*
X270281655Y-86206066D02*
G75*
G02*
X270968934Y-86893345I260503J-426776D01*
G01*
X270925000Y-87049647D02*
G75*
G02*
X270968934Y-86893345I299992J3D01*
G01*
X270968934Y-88606655D02*
G75*
G02*
X270281655Y-89293934I-426776J-260503D01*
G01*
X270968934Y-88606655D02*
G75*
G02*
X270925000Y-88450353I256058J156299D01*
G01*
%TO.C,LED43*%
X277080000Y-125500000D02*
X277080000Y-124799647D01*
X277080000Y-125500000D02*
X277080000Y-126200353D01*
X278780000Y-124000000D02*
X277879647Y-124000000D01*
X278780000Y-124000000D02*
X279680353Y-124000000D01*
X278780000Y-127000000D02*
X277879647Y-127000000D01*
X278780000Y-127000000D02*
X279680353Y-127000000D01*
X280480000Y-125500000D02*
X280480000Y-124799647D01*
X280480000Y-125500000D02*
X280480000Y-126200353D01*
X277036066Y-124643345D02*
G75*
G02*
X277079976Y-124799647I-256066J-156255D01*
G01*
X277036066Y-124643345D02*
G75*
G02*
X277723345Y-123956066I426774J260505D01*
G01*
X277080000Y-126200353D02*
G75*
G02*
X277036065Y-126356654I-299680J-87D01*
G01*
X277723345Y-127043934D02*
G75*
G02*
X277036066Y-126356655I-260505J426774D01*
G01*
X277723345Y-127043934D02*
G75*
G02*
X277879647Y-127000024I156255J-256066D01*
G01*
X277879647Y-124000000D02*
G75*
G02*
X277723344Y-123956067I3J300020D01*
G01*
X279680353Y-127000000D02*
G75*
G02*
X279836655Y-127043934I3J-299992D01*
G01*
X279836655Y-123956066D02*
G75*
G02*
X279680353Y-124000000I-156299J256058D01*
G01*
X279836655Y-123956066D02*
G75*
G02*
X280523934Y-124643345I260503J-426776D01*
G01*
X280480000Y-124799647D02*
G75*
G02*
X280523934Y-124643345I299992J3D01*
G01*
X280523934Y-126356655D02*
G75*
G02*
X279836655Y-127043934I-426776J-260503D01*
G01*
X280523934Y-126356655D02*
G75*
G02*
X280480000Y-126200353I256058J156299D01*
G01*
%TO.C,LED81*%
X286300000Y-183000000D02*
X286300000Y-182299647D01*
X286300000Y-183000000D02*
X286300000Y-183700353D01*
X288000000Y-181500000D02*
X287099647Y-181500000D01*
X288000000Y-181500000D02*
X288900353Y-181500000D01*
X288000000Y-184500000D02*
X287099647Y-184500000D01*
X288000000Y-184500000D02*
X288900353Y-184500000D01*
X289700000Y-183000000D02*
X289700000Y-182299647D01*
X289700000Y-183000000D02*
X289700000Y-183700353D01*
X286256066Y-182143345D02*
G75*
G02*
X286299976Y-182299647I-256066J-156255D01*
G01*
X286256066Y-182143345D02*
G75*
G02*
X286943345Y-181456066I426774J260505D01*
G01*
X286300000Y-183700353D02*
G75*
G02*
X286256065Y-183856654I-299680J-87D01*
G01*
X286943345Y-184543934D02*
G75*
G02*
X286256066Y-183856655I-260505J426774D01*
G01*
X286943345Y-184543934D02*
G75*
G02*
X287099647Y-184500024I156255J-256066D01*
G01*
X287099647Y-181500000D02*
G75*
G02*
X286943344Y-181456067I3J300020D01*
G01*
X288900353Y-184500000D02*
G75*
G02*
X289056655Y-184543934I3J-299992D01*
G01*
X289056655Y-181456066D02*
G75*
G02*
X288900353Y-181500000I-156299J256058D01*
G01*
X289056655Y-181456066D02*
G75*
G02*
X289743934Y-182143345I260503J-426776D01*
G01*
X289700000Y-182299647D02*
G75*
G02*
X289743934Y-182143345I299992J3D01*
G01*
X289743934Y-183856655D02*
G75*
G02*
X289056655Y-184543934I-426776J-260503D01*
G01*
X289743934Y-183856655D02*
G75*
G02*
X289700000Y-183700353I256058J156299D01*
G01*
%TO.C,LED49*%
X110392500Y-144500000D02*
X110392500Y-143799647D01*
X110392500Y-144500000D02*
X110392500Y-145200353D01*
X112092500Y-143000000D02*
X111192147Y-143000000D01*
X112092500Y-143000000D02*
X112992853Y-143000000D01*
X112092500Y-146000000D02*
X111192147Y-146000000D01*
X112092500Y-146000000D02*
X112992853Y-146000000D01*
X113792500Y-144500000D02*
X113792500Y-143799647D01*
X113792500Y-144500000D02*
X113792500Y-145200353D01*
X110348566Y-143643345D02*
G75*
G02*
X110392476Y-143799647I-256066J-156255D01*
G01*
X110348566Y-143643345D02*
G75*
G02*
X111035845Y-142956066I426774J260505D01*
G01*
X110392500Y-145200353D02*
G75*
G02*
X110348565Y-145356654I-299680J-87D01*
G01*
X111035845Y-146043934D02*
G75*
G02*
X110348566Y-145356655I-260505J426774D01*
G01*
X111035845Y-146043934D02*
G75*
G02*
X111192147Y-146000024I156255J-256066D01*
G01*
X111192147Y-143000000D02*
G75*
G02*
X111035844Y-142956067I3J300020D01*
G01*
X112992853Y-146000000D02*
G75*
G02*
X113149155Y-146043934I3J-299992D01*
G01*
X113149155Y-142956066D02*
G75*
G02*
X112992853Y-143000000I-156299J256058D01*
G01*
X113149155Y-142956066D02*
G75*
G02*
X113836434Y-143643345I260503J-426776D01*
G01*
X113792500Y-143799647D02*
G75*
G02*
X113836434Y-143643345I299992J3D01*
G01*
X113836434Y-145356655D02*
G75*
G02*
X113149155Y-146043934I-426776J-260503D01*
G01*
X113836434Y-145356655D02*
G75*
G02*
X113792500Y-145200353I256058J156299D01*
G01*
%TO.C,LED14*%
X306025000Y-87750000D02*
X306025000Y-87049647D01*
X306025000Y-87750000D02*
X306025000Y-88450353D01*
X307725000Y-86250000D02*
X306824647Y-86250000D01*
X307725000Y-86250000D02*
X308625353Y-86250000D01*
X307725000Y-89250000D02*
X306824647Y-89250000D01*
X307725000Y-89250000D02*
X308625353Y-89250000D01*
X309425000Y-87750000D02*
X309425000Y-87049647D01*
X309425000Y-87750000D02*
X309425000Y-88450353D01*
X305981066Y-86893345D02*
G75*
G02*
X306024976Y-87049647I-256066J-156255D01*
G01*
X305981066Y-86893345D02*
G75*
G02*
X306668345Y-86206066I426774J260505D01*
G01*
X306025000Y-88450353D02*
G75*
G02*
X305981065Y-88606654I-299680J-87D01*
G01*
X306668345Y-89293934D02*
G75*
G02*
X305981066Y-88606655I-260505J426774D01*
G01*
X306668345Y-89293934D02*
G75*
G02*
X306824647Y-89250024I156255J-256066D01*
G01*
X306824647Y-86250000D02*
G75*
G02*
X306668344Y-86206067I3J300020D01*
G01*
X308625353Y-89250000D02*
G75*
G02*
X308781655Y-89293934I3J-299992D01*
G01*
X308781655Y-86206066D02*
G75*
G02*
X308625353Y-86250000I-156299J256058D01*
G01*
X308781655Y-86206066D02*
G75*
G02*
X309468934Y-86893345I260503J-426776D01*
G01*
X309425000Y-87049647D02*
G75*
G02*
X309468934Y-86893345I299992J3D01*
G01*
X309468934Y-88606655D02*
G75*
G02*
X308781655Y-89293934I-426776J-260503D01*
G01*
X309468934Y-88606655D02*
G75*
G02*
X309425000Y-88450353I256058J156299D01*
G01*
%TO.C,LED29*%
X287025000Y-106750000D02*
X287025000Y-106049647D01*
X287025000Y-106750000D02*
X287025000Y-107450353D01*
X288725000Y-105250000D02*
X287824647Y-105250000D01*
X288725000Y-105250000D02*
X289625353Y-105250000D01*
X288725000Y-108250000D02*
X287824647Y-108250000D01*
X288725000Y-108250000D02*
X289625353Y-108250000D01*
X290425000Y-106750000D02*
X290425000Y-106049647D01*
X290425000Y-106750000D02*
X290425000Y-107450353D01*
X286981066Y-105893345D02*
G75*
G02*
X287024976Y-106049647I-256066J-156255D01*
G01*
X286981066Y-105893345D02*
G75*
G02*
X287668345Y-105206066I426774J260505D01*
G01*
X287025000Y-107450353D02*
G75*
G02*
X286981065Y-107606654I-299680J-87D01*
G01*
X287668345Y-108293934D02*
G75*
G02*
X286981066Y-107606655I-260505J426774D01*
G01*
X287668345Y-108293934D02*
G75*
G02*
X287824647Y-108250024I156255J-256066D01*
G01*
X287824647Y-105250000D02*
G75*
G02*
X287668344Y-105206067I3J300020D01*
G01*
X289625353Y-108250000D02*
G75*
G02*
X289781655Y-108293934I3J-299992D01*
G01*
X289781655Y-105206066D02*
G75*
G02*
X289625353Y-105250000I-156299J256058D01*
G01*
X289781655Y-105206066D02*
G75*
G02*
X290468934Y-105893345I260503J-426776D01*
G01*
X290425000Y-106049647D02*
G75*
G02*
X290468934Y-105893345I299992J3D01*
G01*
X290468934Y-107606655D02*
G75*
G02*
X289781655Y-108293934I-426776J-260503D01*
G01*
X290468934Y-107606655D02*
G75*
G02*
X290425000Y-107450353I256058J156299D01*
G01*
%TO.C,LED31*%
X343755000Y-106500000D02*
X343755000Y-105799647D01*
X343755000Y-106500000D02*
X343755000Y-107200353D01*
X345455000Y-105000000D02*
X344554647Y-105000000D01*
X345455000Y-105000000D02*
X346355353Y-105000000D01*
X345455000Y-108000000D02*
X344554647Y-108000000D01*
X345455000Y-108000000D02*
X346355353Y-108000000D01*
X347155000Y-106500000D02*
X347155000Y-105799647D01*
X347155000Y-106500000D02*
X347155000Y-107200353D01*
X343711066Y-105643345D02*
G75*
G02*
X343754976Y-105799647I-256066J-156255D01*
G01*
X343711066Y-105643345D02*
G75*
G02*
X344398345Y-104956066I426774J260505D01*
G01*
X343755000Y-107200353D02*
G75*
G02*
X343711065Y-107356654I-299680J-87D01*
G01*
X344398345Y-108043934D02*
G75*
G02*
X343711066Y-107356655I-260505J426774D01*
G01*
X344398345Y-108043934D02*
G75*
G02*
X344554647Y-108000024I156255J-256066D01*
G01*
X344554647Y-105000000D02*
G75*
G02*
X344398344Y-104956067I3J300020D01*
G01*
X346355353Y-108000000D02*
G75*
G02*
X346511655Y-108043934I3J-299992D01*
G01*
X346511655Y-104956066D02*
G75*
G02*
X346355353Y-105000000I-156299J256058D01*
G01*
X346511655Y-104956066D02*
G75*
G02*
X347198934Y-105643345I260503J-426776D01*
G01*
X347155000Y-105799647D02*
G75*
G02*
X347198934Y-105643345I299992J3D01*
G01*
X347198934Y-107356655D02*
G75*
G02*
X346511655Y-108043934I-426776J-260503D01*
G01*
X347198934Y-107356655D02*
G75*
G02*
X347155000Y-107200353I256058J156299D01*
G01*
%TO.C,LED65*%
X158017500Y-164000000D02*
X158017500Y-163299647D01*
X158017500Y-164000000D02*
X158017500Y-164700353D01*
X159717500Y-162500000D02*
X158817147Y-162500000D01*
X159717500Y-162500000D02*
X160617853Y-162500000D01*
X159717500Y-165500000D02*
X158817147Y-165500000D01*
X159717500Y-165500000D02*
X160617853Y-165500000D01*
X161417500Y-164000000D02*
X161417500Y-163299647D01*
X161417500Y-164000000D02*
X161417500Y-164700353D01*
X157973566Y-163143345D02*
G75*
G02*
X158017476Y-163299647I-256066J-156255D01*
G01*
X157973566Y-163143345D02*
G75*
G02*
X158660845Y-162456066I426774J260505D01*
G01*
X158017500Y-164700353D02*
G75*
G02*
X157973565Y-164856654I-299680J-87D01*
G01*
X158660845Y-165543934D02*
G75*
G02*
X157973566Y-164856655I-260505J426774D01*
G01*
X158660845Y-165543934D02*
G75*
G02*
X158817147Y-165500024I156255J-256066D01*
G01*
X158817147Y-162500000D02*
G75*
G02*
X158660844Y-162456067I3J300020D01*
G01*
X160617853Y-165500000D02*
G75*
G02*
X160774155Y-165543934I3J-299992D01*
G01*
X160774155Y-162456066D02*
G75*
G02*
X160617853Y-162500000I-156299J256058D01*
G01*
X160774155Y-162456066D02*
G75*
G02*
X161461434Y-163143345I260503J-426776D01*
G01*
X161417500Y-163299647D02*
G75*
G02*
X161461434Y-163143345I299992J3D01*
G01*
X161461434Y-164856655D02*
G75*
G02*
X160774155Y-165543934I-426776J-260503D01*
G01*
X161461434Y-164856655D02*
G75*
G02*
X161417500Y-164700353I256058J156299D01*
G01*
%TO.C,LED44*%
X296525000Y-125750000D02*
X296525000Y-125049647D01*
X296525000Y-125750000D02*
X296525000Y-126450353D01*
X298225000Y-124250000D02*
X297324647Y-124250000D01*
X298225000Y-124250000D02*
X299125353Y-124250000D01*
X298225000Y-127250000D02*
X297324647Y-127250000D01*
X298225000Y-127250000D02*
X299125353Y-127250000D01*
X299925000Y-125750000D02*
X299925000Y-125049647D01*
X299925000Y-125750000D02*
X299925000Y-126450353D01*
X296481066Y-124893345D02*
G75*
G02*
X296524976Y-125049647I-256066J-156255D01*
G01*
X296481066Y-124893345D02*
G75*
G02*
X297168345Y-124206066I426774J260505D01*
G01*
X296525000Y-126450353D02*
G75*
G02*
X296481065Y-126606654I-299680J-87D01*
G01*
X297168345Y-127293934D02*
G75*
G02*
X296481066Y-126606655I-260505J426774D01*
G01*
X297168345Y-127293934D02*
G75*
G02*
X297324647Y-127250024I156255J-256066D01*
G01*
X297324647Y-124250000D02*
G75*
G02*
X297168344Y-124206067I3J300020D01*
G01*
X299125353Y-127250000D02*
G75*
G02*
X299281655Y-127293934I3J-299992D01*
G01*
X299281655Y-124206066D02*
G75*
G02*
X299125353Y-124250000I-156299J256058D01*
G01*
X299281655Y-124206066D02*
G75*
G02*
X299968934Y-124893345I260503J-426776D01*
G01*
X299925000Y-125049647D02*
G75*
G02*
X299968934Y-124893345I299992J3D01*
G01*
X299968934Y-126606655D02*
G75*
G02*
X299281655Y-127293934I-426776J-260503D01*
G01*
X299968934Y-126606655D02*
G75*
G02*
X299925000Y-126450353I256058J156299D01*
G01*
%TO.C,LED51*%
X148492499Y-144600000D02*
X148492499Y-143899647D01*
X148492499Y-144600000D02*
X148492499Y-145300353D01*
X150192499Y-143100000D02*
X149292146Y-143100000D01*
X150192499Y-143100000D02*
X151092852Y-143100000D01*
X150192499Y-146100000D02*
X149292146Y-146100000D01*
X150192499Y-146100000D02*
X151092852Y-146100000D01*
X151892499Y-144600000D02*
X151892499Y-143899647D01*
X151892499Y-144600000D02*
X151892499Y-145300353D01*
X148448565Y-143743345D02*
G75*
G02*
X148492475Y-143899647I-256066J-156255D01*
G01*
X148448565Y-143743345D02*
G75*
G02*
X149135844Y-143056066I426774J260505D01*
G01*
X148492499Y-145300353D02*
G75*
G02*
X148448564Y-145456654I-299680J-87D01*
G01*
X149135844Y-146143934D02*
G75*
G02*
X148448565Y-145456655I-260505J426774D01*
G01*
X149135844Y-146143934D02*
G75*
G02*
X149292146Y-146100024I156255J-256066D01*
G01*
X149292146Y-143100000D02*
G75*
G02*
X149135843Y-143056067I3J300020D01*
G01*
X151092852Y-146100000D02*
G75*
G02*
X151249154Y-146143934I3J-299992D01*
G01*
X151249154Y-143056066D02*
G75*
G02*
X151092852Y-143100000I-156299J256058D01*
G01*
X151249154Y-143056066D02*
G75*
G02*
X151936433Y-143743345I260503J-426776D01*
G01*
X151892499Y-143899647D02*
G75*
G02*
X151936433Y-143743345I299992J3D01*
G01*
X151936433Y-145456655D02*
G75*
G02*
X151249154Y-146143934I-426776J-260503D01*
G01*
X151936433Y-145456655D02*
G75*
G02*
X151892499Y-145300353I256058J156299D01*
G01*
%TO.C,LED60*%
X344025000Y-144750000D02*
X344025000Y-144049647D01*
X344025000Y-144750000D02*
X344025000Y-145450353D01*
X345725000Y-143250000D02*
X344824647Y-143250000D01*
X345725000Y-143250000D02*
X346625353Y-143250000D01*
X345725000Y-146250000D02*
X344824647Y-146250000D01*
X345725000Y-146250000D02*
X346625353Y-146250000D01*
X347425000Y-144750000D02*
X347425000Y-144049647D01*
X347425000Y-144750000D02*
X347425000Y-145450353D01*
X343981066Y-143893345D02*
G75*
G02*
X344024976Y-144049647I-256066J-156255D01*
G01*
X343981066Y-143893345D02*
G75*
G02*
X344668345Y-143206066I426774J260505D01*
G01*
X344025000Y-145450353D02*
G75*
G02*
X343981065Y-145606654I-299680J-87D01*
G01*
X344668345Y-146293934D02*
G75*
G02*
X343981066Y-145606655I-260505J426774D01*
G01*
X344668345Y-146293934D02*
G75*
G02*
X344824647Y-146250024I156255J-256066D01*
G01*
X344824647Y-143250000D02*
G75*
G02*
X344668344Y-143206067I3J300020D01*
G01*
X346625353Y-146250000D02*
G75*
G02*
X346781655Y-146293934I3J-299992D01*
G01*
X346781655Y-143206066D02*
G75*
G02*
X346625353Y-143250000I-156299J256058D01*
G01*
X346781655Y-143206066D02*
G75*
G02*
X347468934Y-143893345I260503J-426776D01*
G01*
X347425000Y-144049647D02*
G75*
G02*
X347468934Y-143893345I299992J3D01*
G01*
X347468934Y-145606655D02*
G75*
G02*
X346781655Y-146293934I-426776J-260503D01*
G01*
X347468934Y-145606655D02*
G75*
G02*
X347425000Y-145450353I256058J156299D01*
G01*
%TO.C,LED16*%
X344025000Y-87750000D02*
X344025000Y-87049647D01*
X344025000Y-87750000D02*
X344025000Y-88450353D01*
X345725000Y-86250000D02*
X344824647Y-86250000D01*
X345725000Y-86250000D02*
X346625353Y-86250000D01*
X345725000Y-89250000D02*
X344824647Y-89250000D01*
X345725000Y-89250000D02*
X346625353Y-89250000D01*
X347425000Y-87750000D02*
X347425000Y-87049647D01*
X347425000Y-87750000D02*
X347425000Y-88450353D01*
X343981066Y-86893345D02*
G75*
G02*
X344024976Y-87049647I-256066J-156255D01*
G01*
X343981066Y-86893345D02*
G75*
G02*
X344668345Y-86206066I426774J260505D01*
G01*
X344025000Y-88450353D02*
G75*
G02*
X343981065Y-88606654I-299680J-87D01*
G01*
X344668345Y-89293934D02*
G75*
G02*
X343981066Y-88606655I-260505J426774D01*
G01*
X344668345Y-89293934D02*
G75*
G02*
X344824647Y-89250024I156255J-256066D01*
G01*
X344824647Y-86250000D02*
G75*
G02*
X344668344Y-86206067I3J300020D01*
G01*
X346625353Y-89250000D02*
G75*
G02*
X346781655Y-89293934I3J-299992D01*
G01*
X346781655Y-86206066D02*
G75*
G02*
X346625353Y-86250000I-156299J256058D01*
G01*
X346781655Y-86206066D02*
G75*
G02*
X347468934Y-86893345I260503J-426776D01*
G01*
X347425000Y-87049647D02*
G75*
G02*
X347468934Y-86893345I299992J3D01*
G01*
X347468934Y-88606655D02*
G75*
G02*
X346781655Y-89293934I-426776J-260503D01*
G01*
X347468934Y-88606655D02*
G75*
G02*
X347425000Y-88450353I256058J156299D01*
G01*
%TO.C,LED1*%
X57800000Y-87500000D02*
X57800000Y-86799647D01*
X57800000Y-87500000D02*
X57800000Y-88200353D01*
X59500000Y-86000000D02*
X58599647Y-86000000D01*
X59500000Y-86000000D02*
X60400353Y-86000000D01*
X59500000Y-89000000D02*
X58599647Y-89000000D01*
X59500000Y-89000000D02*
X60400353Y-89000000D01*
X61200000Y-87500000D02*
X61200000Y-86799647D01*
X61200000Y-87500000D02*
X61200000Y-88200353D01*
X57756066Y-86643345D02*
G75*
G02*
X57799976Y-86799647I-256066J-156255D01*
G01*
X57756066Y-86643345D02*
G75*
G02*
X58443345Y-85956066I426774J260505D01*
G01*
X57800000Y-88200353D02*
G75*
G02*
X57756065Y-88356654I-299680J-87D01*
G01*
X58443345Y-89043934D02*
G75*
G02*
X57756066Y-88356655I-260505J426774D01*
G01*
X58443345Y-89043934D02*
G75*
G02*
X58599647Y-89000024I156255J-256066D01*
G01*
X58599647Y-86000000D02*
G75*
G02*
X58443344Y-85956067I3J300020D01*
G01*
X60400353Y-89000000D02*
G75*
G02*
X60556655Y-89043934I3J-299992D01*
G01*
X60556655Y-85956066D02*
G75*
G02*
X60400353Y-86000000I-156299J256058D01*
G01*
X60556655Y-85956066D02*
G75*
G02*
X61243934Y-86643345I260503J-426776D01*
G01*
X61200000Y-86799647D02*
G75*
G02*
X61243934Y-86643345I299992J3D01*
G01*
X61243934Y-88356655D02*
G75*
G02*
X60556655Y-89043934I-426776J-260503D01*
G01*
X61243934Y-88356655D02*
G75*
G02*
X61200000Y-88200353I256058J156299D01*
G01*
%TO.C,LED66*%
X177300000Y-164000000D02*
X177300000Y-163299647D01*
X177300000Y-164000000D02*
X177300000Y-164700353D01*
X179000000Y-162500000D02*
X178099647Y-162500000D01*
X179000000Y-162500000D02*
X179900353Y-162500000D01*
X179000000Y-165500000D02*
X178099647Y-165500000D01*
X179000000Y-165500000D02*
X179900353Y-165500000D01*
X180700000Y-164000000D02*
X180700000Y-163299647D01*
X180700000Y-164000000D02*
X180700000Y-164700353D01*
X177256066Y-163143345D02*
G75*
G02*
X177299976Y-163299647I-256066J-156255D01*
G01*
X177256066Y-163143345D02*
G75*
G02*
X177943345Y-162456066I426774J260505D01*
G01*
X177300000Y-164700353D02*
G75*
G02*
X177256065Y-164856654I-299680J-87D01*
G01*
X177943345Y-165543934D02*
G75*
G02*
X177256066Y-164856655I-260505J426774D01*
G01*
X177943345Y-165543934D02*
G75*
G02*
X178099647Y-165500024I156255J-256066D01*
G01*
X178099647Y-162500000D02*
G75*
G02*
X177943344Y-162456067I3J300020D01*
G01*
X179900353Y-165500000D02*
G75*
G02*
X180056655Y-165543934I3J-299992D01*
G01*
X180056655Y-162456066D02*
G75*
G02*
X179900353Y-162500000I-156299J256058D01*
G01*
X180056655Y-162456066D02*
G75*
G02*
X180743934Y-163143345I260503J-426776D01*
G01*
X180700000Y-163299647D02*
G75*
G02*
X180743934Y-163143345I299992J3D01*
G01*
X180743934Y-164856655D02*
G75*
G02*
X180056655Y-165543934I-426776J-260503D01*
G01*
X180743934Y-164856655D02*
G75*
G02*
X180700000Y-164700353I256058J156299D01*
G01*
%TO.C,LED6*%
X153254999Y-87750000D02*
X153254999Y-87049647D01*
X153254999Y-87750000D02*
X153254999Y-88450353D01*
X154954999Y-86250000D02*
X154054646Y-86250000D01*
X154954999Y-86250000D02*
X155855352Y-86250000D01*
X154954999Y-89250000D02*
X154054646Y-89250000D01*
X154954999Y-89250000D02*
X155855352Y-89250000D01*
X156654999Y-87750000D02*
X156654999Y-87049647D01*
X156654999Y-87750000D02*
X156654999Y-88450353D01*
X153211065Y-86893345D02*
G75*
G02*
X153254975Y-87049647I-256066J-156255D01*
G01*
X153211065Y-86893345D02*
G75*
G02*
X153898344Y-86206066I426774J260505D01*
G01*
X153254999Y-88450353D02*
G75*
G02*
X153211064Y-88606654I-299680J-87D01*
G01*
X153898344Y-89293934D02*
G75*
G02*
X153211065Y-88606655I-260505J426774D01*
G01*
X153898344Y-89293934D02*
G75*
G02*
X154054646Y-89250024I156255J-256066D01*
G01*
X154054646Y-86250000D02*
G75*
G02*
X153898343Y-86206067I3J300020D01*
G01*
X155855352Y-89250000D02*
G75*
G02*
X156011654Y-89293934I3J-299992D01*
G01*
X156011654Y-86206066D02*
G75*
G02*
X155855352Y-86250000I-156299J256058D01*
G01*
X156011654Y-86206066D02*
G75*
G02*
X156698933Y-86893345I260503J-426776D01*
G01*
X156654999Y-87049647D02*
G75*
G02*
X156698933Y-86893345I299992J3D01*
G01*
X156698933Y-88606655D02*
G75*
G02*
X156011654Y-89293934I-426776J-260503D01*
G01*
X156698933Y-88606655D02*
G75*
G02*
X156654999Y-88450353I256058J156299D01*
G01*
%TO.C,LED56*%
X243800000Y-145000000D02*
X243800000Y-144299647D01*
X243800000Y-145000000D02*
X243800000Y-145700353D01*
X245500000Y-143500000D02*
X244599647Y-143500000D01*
X245500000Y-143500000D02*
X246400353Y-143500000D01*
X245500000Y-146500000D02*
X244599647Y-146500000D01*
X245500000Y-146500000D02*
X246400353Y-146500000D01*
X247200000Y-145000000D02*
X247200000Y-144299647D01*
X247200000Y-145000000D02*
X247200000Y-145700353D01*
X243756066Y-144143345D02*
G75*
G02*
X243799976Y-144299647I-256066J-156255D01*
G01*
X243756066Y-144143345D02*
G75*
G02*
X244443345Y-143456066I426774J260505D01*
G01*
X243800000Y-145700353D02*
G75*
G02*
X243756065Y-145856654I-299680J-87D01*
G01*
X244443345Y-146543934D02*
G75*
G02*
X243756066Y-145856655I-260505J426774D01*
G01*
X244443345Y-146543934D02*
G75*
G02*
X244599647Y-146500024I156255J-256066D01*
G01*
X244599647Y-143500000D02*
G75*
G02*
X244443344Y-143456067I3J300020D01*
G01*
X246400353Y-146500000D02*
G75*
G02*
X246556655Y-146543934I3J-299992D01*
G01*
X246556655Y-143456066D02*
G75*
G02*
X246400353Y-143500000I-156299J256058D01*
G01*
X246556655Y-143456066D02*
G75*
G02*
X247243934Y-144143345I260503J-426776D01*
G01*
X247200000Y-144299647D02*
G75*
G02*
X247243934Y-144143345I299992J3D01*
G01*
X247243934Y-145856655D02*
G75*
G02*
X246556655Y-146543934I-426776J-260503D01*
G01*
X247243934Y-145856655D02*
G75*
G02*
X247200000Y-145700353I256058J156299D01*
G01*
%TO.C,LED35*%
X124680000Y-125750000D02*
X124680000Y-125049647D01*
X124680000Y-125750000D02*
X124680000Y-126450353D01*
X126380000Y-124250000D02*
X125479647Y-124250000D01*
X126380000Y-124250000D02*
X127280353Y-124250000D01*
X126380000Y-127250000D02*
X125479647Y-127250000D01*
X126380000Y-127250000D02*
X127280353Y-127250000D01*
X128080000Y-125750000D02*
X128080000Y-125049647D01*
X128080000Y-125750000D02*
X128080000Y-126450353D01*
X124636066Y-124893345D02*
G75*
G02*
X124679976Y-125049647I-256066J-156255D01*
G01*
X124636066Y-124893345D02*
G75*
G02*
X125323345Y-124206066I426774J260505D01*
G01*
X124680000Y-126450353D02*
G75*
G02*
X124636065Y-126606654I-299680J-87D01*
G01*
X125323345Y-127293934D02*
G75*
G02*
X124636066Y-126606655I-260505J426774D01*
G01*
X125323345Y-127293934D02*
G75*
G02*
X125479647Y-127250024I156255J-256066D01*
G01*
X125479647Y-124250000D02*
G75*
G02*
X125323344Y-124206067I3J300020D01*
G01*
X127280353Y-127250000D02*
G75*
G02*
X127436655Y-127293934I3J-299992D01*
G01*
X127436655Y-124206066D02*
G75*
G02*
X127280353Y-124250000I-156299J256058D01*
G01*
X127436655Y-124206066D02*
G75*
G02*
X128123934Y-124893345I260503J-426776D01*
G01*
X128080000Y-125049647D02*
G75*
G02*
X128123934Y-124893345I299992J3D01*
G01*
X128123934Y-126606655D02*
G75*
G02*
X127436655Y-127293934I-426776J-260503D01*
G01*
X128123934Y-126606655D02*
G75*
G02*
X128080000Y-126450353I256058J156299D01*
G01*
%TO.C,LED68*%
X215300000Y-164000000D02*
X215300000Y-163299647D01*
X215300000Y-164000000D02*
X215300000Y-164700353D01*
X217000000Y-162500000D02*
X216099647Y-162500000D01*
X217000000Y-162500000D02*
X217900353Y-162500000D01*
X217000000Y-165500000D02*
X216099647Y-165500000D01*
X217000000Y-165500000D02*
X217900353Y-165500000D01*
X218700000Y-164000000D02*
X218700000Y-163299647D01*
X218700000Y-164000000D02*
X218700000Y-164700353D01*
X215256066Y-163143345D02*
G75*
G02*
X215299976Y-163299647I-256066J-156255D01*
G01*
X215256066Y-163143345D02*
G75*
G02*
X215943345Y-162456066I426774J260505D01*
G01*
X215300000Y-164700353D02*
G75*
G02*
X215256065Y-164856654I-299680J-87D01*
G01*
X215943345Y-165543934D02*
G75*
G02*
X215256066Y-164856655I-260505J426774D01*
G01*
X215943345Y-165543934D02*
G75*
G02*
X216099647Y-165500024I156255J-256066D01*
G01*
X216099647Y-162500000D02*
G75*
G02*
X215943344Y-162456067I3J300020D01*
G01*
X217900353Y-165500000D02*
G75*
G02*
X218056655Y-165543934I3J-299992D01*
G01*
X218056655Y-162456066D02*
G75*
G02*
X217900353Y-162500000I-156299J256058D01*
G01*
X218056655Y-162456066D02*
G75*
G02*
X218743934Y-163143345I260503J-426776D01*
G01*
X218700000Y-163299647D02*
G75*
G02*
X218743934Y-163143345I299992J3D01*
G01*
X218743934Y-164856655D02*
G75*
G02*
X218056655Y-165543934I-426776J-260503D01*
G01*
X218743934Y-164856655D02*
G75*
G02*
X218700000Y-164700353I256058J156299D01*
G01*
%TD*%
M02*
