M48
; DRILL file KiCad 10.0.0 date 2026-05-02T13:30:20
; FORMAT={-:-/ absolute / metric / decimal}
; #@! TF.CreationDate,2026-05-02T13:30:20+05:00
; #@! TF.GenerationSoftware,Kicad,Pcbnew,10.0.0
; #@! TF.FileFunction,Plated,1,2,PTH
FMAT,2
METRIC
; #@! TA.AperFunction,Plated,PTH,ViaDrill
T1C0.300
; #@! TA.AperFunction,Plated,PTH,ComponentDrill
T2C0.600
; #@! TA.AperFunction,Plated,PTH,ComponentDrill
T3C0.750
; #@! TA.AperFunction,Plated,PTH,ComponentDrill
T4C1.000
; #@! TA.AperFunction,Plated,PTH,ComponentDrill
T5C1.092
; #@! TA.AperFunction,Plated,PTH,ComponentDrill
T6C1.500
%
G90
G05
T1
X44.5Y-77.0
X44.5Y-99.0
X44.5Y-114.0
X44.5Y-127.5
X45.0Y-143.5
X45.0Y-155.5
X45.0Y-177.0
X45.5Y-163.5
X46.5Y-52.0
X47.243Y-74.743
X47.8Y-74.0
X48.5Y-113.0
X48.765Y-72.689
X49.0Y-76.5
X50.0Y-69.0
X50.5Y-72.5
X50.5Y-100.0
X50.6Y-76.5
X51.5Y-86.0
X51.5Y-181.0
X53.5Y-105.0
X54.0Y-86.5
X54.0Y-113.0
X55.0Y-113.0
X55.5Y-53.5
X55.5Y-119.0
X55.9Y-149.0
X55.9Y-150.0
X56.0Y-131.5
X57.1Y-149.5
X57.5Y-122.5
X57.5Y-128.5
X57.5Y-181.0
X58.0Y-104.5
X58.0Y-143.5
X61.0Y-150.0
X61.0Y-161.5
X61.051Y-74.6
X61.826Y-73.826
X62.0Y-92.5
X62.0Y-144.0
X62.434Y-73.1
X62.5Y-190.0
X63.0Y-72.5
X63.121Y-93.621
X65.0Y-89.0
X65.63Y-63.0
X66.0Y-104.5
X66.0Y-109.05
X66.0Y-111.1
X66.0Y-162.5
X66.5Y-60.0
X66.5Y-72.5
X66.5Y-131.5
X67.0Y-91.4
X67.0Y-104.95
X67.5Y-92.6
X67.5Y-109.1
X68.0Y-104.4
X68.5Y-85.5
X68.5Y-109.0
X69.0Y-72.396
X69.0Y-96.5
X69.0Y-104.5
X69.0Y-111.419
X69.5Y-112.619
X71.0Y-93.1
X72.0Y-91.4
X72.0Y-123.5
X73.0Y-86.5
X73.0Y-105.5
X73.0Y-121.95
X73.0Y-123.05
X73.5Y-110.95
X74.9Y-147.5
X75.0Y-113.5
X75.0Y-123.1
X75.0Y-180.0
X75.5Y-141.6
X76.1Y-147.5
X77.0Y-57.0
X77.5Y-71.0
X77.5Y-122.6
X77.5Y-140.45
X77.5Y-141.55
X77.5Y-143.55
X77.5Y-148.791
X77.5Y-150.291
X78.0Y-128.5
X78.5Y-55.0
X80.522Y-72.396
X81.0Y-181.0
X81.0Y-190.0
X81.5Y-128.5
X82.5Y-83.0
X82.5Y-142.4
X83.0Y-66.3
X83.0Y-85.5
X83.0Y-124.5
X83.4Y-70.0
X84.0Y-65.0
X84.0Y-71.0
X84.0Y-160.0
X84.5Y-89.5
X84.5Y-91.2
X84.5Y-93.05
X84.6Y-70.0
X85.0Y-105.0
X85.0Y-161.9
X85.5Y-71.796
X85.5Y-109.0
X87.0Y-111.419
X87.0Y-167.0
X87.5Y-55.0
X87.5Y-84.6
X87.5Y-104.5
X87.5Y-143.0
X89.0Y-158.0
X91.0Y-91.5
X91.0Y-102.0
X91.5Y-103.9
X92.0Y-122.25
X92.5Y-86.5
X92.5Y-89.0
X92.5Y-105.1
X92.5Y-161.5
X92.5Y-167.0
X92.826Y-123.826
X93.0Y-106.5
X93.5Y-109.2
X93.5Y-111.419
X93.5Y-112.619
X94.0Y-190.0
X94.5Y-170.5
X96.0Y-123.5
X96.5Y-131.1
X96.5Y-162.5
X96.9Y-148.0
X97.0Y-123.5
X97.0Y-141.3
X97.334Y-142.834
X97.6Y-130.0
X98.1Y-148.0
X98.5Y-179.6
X99.5Y-71.0
X99.5Y-128.5
X101.0Y-73.0
X102.0Y-105.1
X102.0Y-124.5
X102.0Y-142.1
X103.0Y-90.0
X103.0Y-91.4
X103.251Y-85.35
X104.0Y-109.2
X104.0Y-111.419
X104.0Y-112.619
X105.0Y-70.0
X105.0Y-181.5
X105.5Y-84.85
X105.5Y-86.0
X105.5Y-91.5
X105.5Y-93.5
X106.5Y-84.6
X106.5Y-103.1
X106.5Y-143.5
X107.0Y-151.0
X108.0Y-190.0
X109.5Y-151.0
X109.5Y-167.0
X110.0Y-149.519
X110.0Y-161.3
X111.0Y-86.0
X111.0Y-105.5
X111.0Y-166.5
X111.775Y-161.1
X112.0Y-109.0
X112.0Y-111.1
X112.0Y-112.619
X112.0Y-124.0
X112.0Y-169.5
X114.0Y-103.4
X114.0Y-104.6
X114.0Y-132.0
X114.5Y-131.1
X115.0Y-123.5
X115.5Y-162.5
X115.9Y-147.5
X116.0Y-141.3
X116.0Y-169.05
X116.5Y-128.5
X116.5Y-130.0
X116.5Y-142.5
X116.8Y-124.0
X117.0Y-52.2
X117.1Y-147.5
X118.0Y-52.426
X118.0Y-55.05
X118.0Y-93.5
X118.6Y-150.4
X118.734Y-53.083
X119.0Y-128.5
X119.0Y-167.5
X119.174Y-51.826
X119.417Y-53.766
X119.5Y-87.5
X120.001Y-52.087
X120.088Y-54.437
X120.5Y-85.5
X121.0Y-124.5
X121.0Y-142.3
X121.174Y-52.326
X122.0Y-52.5
X122.0Y-85.5
X122.5Y-89.9
X122.5Y-91.1
X122.795Y-52.815
X123.0Y-104.0
X123.0Y-109.0
X123.5Y-62.5
X123.5Y-111.419
X123.5Y-112.619
X124.0Y-148.0
X124.5Y-84.55
X125.0Y-86.5
X125.0Y-91.05
X125.0Y-93.5
X125.0Y-104.0
X125.4Y-103.0
X125.4Y-105.5
X125.5Y-84.6
X125.5Y-143.5
X125.5Y-151.0
X126.6Y-103.0
X126.6Y-105.5
X127.0Y-93.5
X129.0Y-143.0
X129.0Y-149.6
X130.5Y-86.5
X130.5Y-105.5
X130.5Y-124.0
X130.5Y-160.6
X131.0Y-183.0
X132.0Y-109.0
X132.0Y-111.419
X132.0Y-112.619
X132.5Y-103.0
X133.0Y-104.5
X133.374Y-128.626
X134.5Y-123.6
X134.5Y-141.0
X135.0Y-131.1
X135.5Y-70.0
X135.5Y-124.4
X135.5Y-162.5
X136.0Y-142.5
X136.5Y-153.5
X136.5Y-190.0
X137.0Y-149.0
X137.5Y-143.0
X137.97Y-149.519
X138.0Y-94.0
X138.0Y-128.5
X138.5Y-74.0
X138.5Y-143.4
X138.5Y-150.9
X138.781Y-148.067
X139.3Y-143.4
X140.0Y-124.5
X140.0Y-142.5
X140.5Y-89.9
X140.932Y-85.394
X141.0Y-104.5
X141.5Y-92.9
X142.5Y-109.05
X144.0Y-72.0
X144.0Y-111.419
X144.5Y-85.0
X144.5Y-103.1
X144.5Y-144.0
X145.5Y-131.4
X145.5Y-151.0
X146.0Y-112.5
X148.0Y-132.0
X148.5Y-124.0
X149.0Y-105.0
X149.0Y-122.25
X149.0Y-151.0
X149.0Y-161.3
X149.5Y-86.5
X150.0Y-124.0
X150.5Y-109.0
X150.5Y-111.419
X151.0Y-112.619
X151.826Y-147.326
X152.0Y-104.5
X152.5Y-103.0
X153.5Y-123.45
X153.5Y-141.0
X154.0Y-131.1
X154.0Y-162.5
X154.459Y-142.959
X154.5Y-123.5
X155.0Y-128.5
X155.059Y-147.5
X155.5Y-129.9
X155.5Y-132.0
X156.5Y-131.1
X157.242Y-131.4
X157.5Y-85.0
X157.5Y-128.5
X157.5Y-142.1
X159.0Y-92.6
X159.0Y-124.5
X159.0Y-142.9
X159.416Y-104.916
X159.5Y-85.5
X160.0Y-90.0
X161.0Y-109.05
X161.5Y-111.419
X163.0Y-143.5
X163.5Y-84.6
X163.5Y-103.6
X163.5Y-190.0
X164.5Y-151.0
X165.5Y-163.5
X165.5Y-167.5
X165.5Y-169.05
X166.5Y-133.5
X166.5Y-161.0
X167.5Y-101.5
X168.0Y-86.0
X168.0Y-161.5
X168.5Y-122.25
X168.5Y-124.0
X168.5Y-185.5
X169.0Y-105.5
X170.0Y-109.0
X170.0Y-111.419
X170.0Y-112.619
X170.0Y-179.0
X170.5Y-103.0
X171.0Y-104.5
X171.5Y-121.5
X171.5Y-123.9
X172.0Y-132.2
X172.5Y-123.45
X172.9Y-147.5
X173.0Y-141.5
X173.5Y-123.5
X173.5Y-128.5
X173.5Y-131.1
X173.5Y-143.0
X173.5Y-163.0
X174.1Y-147.5
X174.674Y-131.826
X175.0Y-149.5
X176.5Y-128.5
X176.5Y-181.0
X177.5Y-141.6
X178.0Y-74.5
X178.0Y-92.6
X178.0Y-124.5
X178.0Y-131.4
X178.5Y-85.5
X178.649Y-87.649
X179.0Y-104.5
X179.5Y-190.0
X180.5Y-109.0
X180.5Y-111.419
X182.5Y-84.6
X182.5Y-103.6
X182.5Y-143.5
X182.5Y-151.0
X183.5Y-112.5
X184.0Y-100.0
X185.5Y-140.0
X187.0Y-122.9
X187.0Y-161.0
X187.453Y-124.453
X187.5Y-86.5
X187.5Y-105.5
X189.0Y-109.0
X189.0Y-111.419
X189.0Y-112.619
X189.5Y-190.0
X190.0Y-104.5
X190.5Y-103.2
X191.0Y-68.5
X191.0Y-121.5
X191.4Y-147.5
X191.5Y-131.1
X191.6Y-128.5
X192.0Y-121.5
X192.0Y-123.9
X192.0Y-141.3
X192.0Y-162.5
X192.018Y-119.482
X192.125Y-131.6
X192.5Y-137.5
X193.0Y-143.0
X193.5Y-54.5
X193.6Y-147.5
X194.0Y-123.625
X194.9Y-129.0
X195.0Y-142.5
X195.5Y-72.0
X195.5Y-92.9
X196.5Y-74.0
X196.5Y-142.5
X196.5Y-150.95
X196.807Y-131.4
X197.5Y-124.5
X197.976Y-85.805
X198.0Y-90.05
X198.425Y-105.226
X200.5Y-58.95
X200.5Y-60.05
X201.0Y-109.05
X201.0Y-111.419
X201.5Y-85.5
X201.5Y-97.5
X201.5Y-103.6
X201.5Y-151.0
X202.0Y-143.5
X202.0Y-155.5
X202.5Y-65.0
X203.5Y-133.5
X204.0Y-65.5
X204.0Y-165.5
X204.0Y-185.5
X204.0Y-189.5
X204.5Y-161.85
X205.5Y-62.0
X206.5Y-87.0
X206.5Y-105.5
X206.5Y-161.5
X207.0Y-122.4
X207.0Y-124.0
X208.0Y-108.9
X208.0Y-110.1
X208.5Y-112.619
X208.5Y-148.95
X209.5Y-103.2
X209.5Y-104.5
X210.174Y-122.326
X210.5Y-131.1
X210.9Y-147.5
X211.0Y-141.0
X211.0Y-163.0
X211.349Y-123.651
X211.5Y-117.0
X211.5Y-143.0
X212.1Y-148.5
X212.361Y-150.639
X212.431Y-123.62
X212.5Y-112.5
X212.5Y-129.5
X213.0Y-70.5
X213.0Y-92.9
X213.5Y-62.5
X213.5Y-123.9
X213.5Y-129.5
X214.0Y-53.5
X214.0Y-142.3
X214.0Y-148.0
X214.9Y-140.4
X215.0Y-73.5
X215.5Y-63.0
X215.5Y-131.9
X215.5Y-134.0
X215.5Y-142.0
X216.0Y-190.0
X216.257Y-64.257
X216.5Y-86.0
X216.5Y-124.5
X216.75Y-104.75
X218.0Y-88.0
X218.0Y-151.239
X218.5Y-108.9
X219.5Y-69.5
X219.5Y-111.419
X220.0Y-123.5
X220.5Y-85.35
X220.5Y-103.6
X221.0Y-143.5
X222.0Y-161.0
X222.5Y-61.5
X222.5Y-150.05
X223.0Y-52.5
X223.0Y-60.5
X223.0Y-162.5
X223.187Y-68.187
X223.5Y-118.5
X223.5Y-161.0
X223.5Y-167.5
X223.5Y-169.5
X224.0Y-134.5
X224.0Y-149.519
X224.0Y-151.5
X225.0Y-69.5
X225.0Y-87.0
X225.4Y-160.6
X225.5Y-105.5
X225.5Y-122.4
X225.6Y-132.0
X225.888Y-119.16
X226.28Y-160.97
X226.5Y-113.5
X226.5Y-124.0
X226.5Y-126.5
X226.5Y-133.5
X227.0Y-190.0
X227.5Y-109.0
X227.5Y-111.419
X227.5Y-112.619
X228.0Y-131.1
X228.0Y-151.5
X228.0Y-165.5
X228.5Y-104.6
X229.0Y-123.1
X229.0Y-128.5
X229.0Y-143.5
X229.5Y-95.0
X229.5Y-112.5
X229.5Y-118.0
X229.5Y-141.0
X229.9Y-148.0
X229.95Y-148.899
X230.0Y-121.9
X230.0Y-129.5
X230.0Y-130.4
X230.0Y-138.5
X230.0Y-151.5
X230.0Y-162.5
X230.5Y-143.0
X230.6Y-127.5
X230.811Y-123.118
X231.05Y-148.45
X231.1Y-147.5
X231.5Y-132.0
X231.5Y-153.0
X232.0Y-118.0
X232.0Y-123.9
X232.0Y-127.5
X232.0Y-129.5
X232.5Y-136.95
X232.5Y-138.5
X233.0Y-142.35
X233.0Y-143.5
X233.0Y-148.5
X234.5Y-72.5
X234.5Y-92.9
X235.0Y-141.6
X235.5Y-124.5
X236.0Y-86.1
X236.0Y-91.0
X236.25Y-104.35
X237.5Y-109.05
X237.5Y-111.419
X239.0Y-180.0
X239.5Y-103.1
X239.5Y-151.0
X240.0Y-84.6
X240.0Y-143.5
X241.5Y-189.5
X243.0Y-167.0
X243.5Y-160.6
X244.0Y-105.0
X244.0Y-150.5
X244.0Y-153.5
X244.482Y-119.993
X244.5Y-86.5
X244.5Y-132.0
X244.5Y-161.0
X244.5Y-166.5
X245.0Y-122.25
X245.0Y-181.0
X245.492Y-112.108
X245.5Y-124.0
X245.5Y-129.0
X246.0Y-108.5
X246.5Y-111.419
X246.5Y-112.619
X247.5Y-103.0
X247.5Y-104.5
X247.561Y-112.1
X248.0Y-123.5
X248.0Y-148.5
X248.5Y-113.019
X249.4Y-148.0
X249.5Y-124.0
X249.5Y-129.0
X249.5Y-141.0
X250.0Y-132.0
X250.0Y-142.6
X250.0Y-162.5
X250.6Y-148.0
X250.624Y-130.276
X251.0Y-136.45
X251.0Y-137.55
X251.0Y-144.5
X251.5Y-141.95
X252.5Y-190.0
X253.5Y-141.6
X254.5Y-92.9
X254.5Y-124.5
X254.5Y-139.5
X255.5Y-171.0
X256.0Y-90.0
X256.0Y-105.0
X256.0Y-108.5
X256.5Y-85.8
X257.0Y-111.419
X257.5Y-179.6
X257.9Y-178.0
X258.0Y-151.0
X258.5Y-104.0
X258.5Y-179.6
X259.0Y-84.6
X259.0Y-143.0
X263.0Y-122.25
X263.0Y-161.3
X263.0Y-167.9
X263.5Y-120.0
X263.716Y-160.942
X263.949Y-132.6
X263.992Y-112.108
X264.0Y-87.0
X264.0Y-105.5
X264.0Y-123.5
X264.5Y-181.0
X264.9Y-129.0
X265.0Y-109.0
X265.0Y-111.419
X265.0Y-112.619
X265.0Y-189.5
X265.5Y-167.5
X266.0Y-131.1
X266.008Y-112.108
X266.5Y-103.0
X266.5Y-104.4
X267.0Y-123.5
X267.5Y-141.0
X267.5Y-166.5
X268.4Y-147.5
X268.5Y-131.6
X268.5Y-162.5
X268.6Y-128.5
X268.65Y-123.45
X269.0Y-143.0
X269.107Y-132.393
X269.5Y-136.5
X269.6Y-147.5
X270.0Y-142.088
X270.449Y-131.6
X271.0Y-92.9
X271.0Y-140.987
X271.0Y-147.0
X271.5Y-132.1
X273.0Y-124.5
X273.0Y-142.137
X273.5Y-86.1
X273.5Y-89.5
X274.0Y-170.0
X274.5Y-104.5
X275.0Y-134.0
X275.0Y-155.5
X275.149Y-105.649
X276.0Y-111.419
X276.5Y-170.0
X277.5Y-103.5
X277.5Y-151.0
X278.0Y-84.6
X278.0Y-143.5
X278.0Y-180.4
X278.0Y-189.5
X282.5Y-86.5
X282.5Y-122.0
X282.5Y-153.5
X282.953Y-123.953
X283.0Y-105.0
X283.0Y-129.0
X283.0Y-181.0
X283.492Y-112.108
X284.4Y-161.9
X284.5Y-109.0
X284.5Y-111.419
X284.5Y-112.619
X285.5Y-104.6
X285.508Y-112.108
X286.0Y-103.4
X286.0Y-124.0
X286.298Y-131.6
X287.0Y-131.1
X287.0Y-141.0
X287.207Y-128.293
X287.4Y-148.0
X287.6Y-123.45
X288.0Y-143.0
X289.0Y-131.6
X289.174Y-149.326
X289.5Y-161.0
X290.0Y-92.9
X290.0Y-136.5
X290.0Y-166.5
X290.5Y-169.1
X292.0Y-142.1
X292.5Y-124.5
X292.5Y-136.5
X292.6Y-148.0
X292.804Y-86.323
X293.0Y-90.05
X293.0Y-166.5
X294.5Y-162.5
X294.5Y-189.0
X295.0Y-113.0
X295.0Y-142.0
X296.5Y-180.1
X297.0Y-84.6
X299.0Y-104.9
X300.5Y-109.05
X300.5Y-113.0
X302.0Y-87.0
X302.5Y-111.419
X303.0Y-181.5
X304.0Y-142.0
X304.4Y-128.5
X304.5Y-151.5
X305.0Y-123.5
X305.5Y-103.4
X305.5Y-104.6
X306.5Y-104.5
X306.5Y-114.0
X307.5Y-122.25
X308.0Y-123.9
X308.666Y-112.7
X309.0Y-143.5
X309.5Y-161.0
X310.0Y-92.5
X310.5Y-123.5
X311.5Y-105.5
X311.5Y-129.0
X312.0Y-85.5
X312.5Y-90.0
X312.5Y-169.05
X313.5Y-189.0
X315.5Y-161.0
X316.0Y-84.6
X316.0Y-124.0
X316.0Y-180.0
X316.5Y-166.5
X317.0Y-140.5
X318.0Y-140.4
X318.4Y-148.0
X318.5Y-132.0
X318.5Y-141.6
X319.0Y-143.0
X319.5Y-166.5
X319.6Y-147.5
X320.5Y-142.15
X320.5Y-143.5
X321.0Y-86.5
X321.0Y-150.05
X321.0Y-162.5
X322.0Y-181.0
X322.5Y-148.5
X323.0Y-104.9
X325.457Y-112.5
X326.0Y-66.5
X326.36Y-145.232
X327.0Y-112.5
X327.0Y-152.0
X328.0Y-145.0
X329.5Y-113.5
X329.5Y-120.0
X330.0Y-65.0
X330.0Y-151.5
X331.0Y-189.5
X332.0Y-103.3
X332.0Y-104.6
X332.5Y-71.0
X332.5Y-92.9
X332.5Y-161.0
X332.5Y-169.5
X332.9Y-147.5
X333.0Y-85.8
X333.0Y-90.0
X333.5Y-129.0
X333.5Y-140.4
X333.5Y-142.3
X333.5Y-149.6
X333.5Y-161.4
X333.9Y-159.4
X334.1Y-147.5
X334.5Y-122.25
X334.5Y-123.45
X334.5Y-142.0
X334.5Y-161.4
X334.5Y-180.1
X334.938Y-163.062
X335.0Y-84.6
X335.0Y-150.4
X335.296Y-123.53
X335.5Y-104.6
X335.5Y-128.5
X336.0Y-62.5
X336.5Y-65.5
X336.5Y-131.1
X336.5Y-167.9
X336.575Y-165.0
X337.574Y-131.774
X339.0Y-52.0
X340.0Y-124.0
X340.0Y-141.0
X340.0Y-143.5
X340.5Y-87.0
X340.5Y-104.5
X340.5Y-161.5
X340.5Y-181.0
X349.088Y-131.412
X349.5Y-189.0
X350.0Y-150.5
X353.4Y-99.0
X354.6Y-99.0
X355.5Y-54.0
X356.0Y-70.5
X356.5Y-106.0
X356.5Y-113.5
X357.0Y-80.0
X357.0Y-91.0
X357.0Y-99.0
X357.5Y-173.0
T3
X324.5Y-57.8
X326.5Y-57.8
T4
X339.0Y-59.0
X339.0Y-61.5
X339.0Y-64.0
X353.5Y-59.0
X353.5Y-64.0
T5
X47.3Y-55.38
X47.3Y-70.62
X49.84Y-55.38
X49.84Y-70.62
X52.38Y-55.38
X52.38Y-70.62
X54.92Y-55.38
X54.92Y-70.62
X57.46Y-55.38
X57.46Y-70.62
X60.0Y-55.38
X60.0Y-70.62
X62.54Y-55.38
X62.54Y-70.62
X65.08Y-55.38
X65.08Y-70.62
X67.62Y-55.38
X67.62Y-70.62
X70.16Y-55.38
X70.16Y-63.0
X70.16Y-65.54
X70.16Y-68.08
X70.16Y-70.62
X72.7Y-55.38
X72.7Y-70.62
X75.24Y-55.38
X75.24Y-70.62
T2
G00X196.54Y-52.645
M15
G01X196.54Y-51.845
M16
G05
G00X196.54Y-56.975
M15
G01X196.54Y-55.875
M16
G05
G00X205.18Y-52.645
M15
G01X205.18Y-51.845
M16
G05
G00X205.18Y-56.975
M15
G01X205.18Y-55.875
M16
G05
T6
G00X345.85Y-55.9
M15
G01X347.15Y-55.9
M16
G05
G00X345.85Y-67.1
M15
G01X347.15Y-67.1
M16
G05
M30
