%TF.GenerationSoftware,KiCad,Pcbnew,10.0.0*%
%TF.CreationDate,2026-05-02T13:29:55+05:00*%
%TF.ProjectId,Ghoost Board,47686f6f-7374-4204-926f-6172642e6b69,rev?*%
%TF.SameCoordinates,Original*%
%TF.FileFunction,Paste,Bot*%
%TF.FilePolarity,Positive*%
%FSLAX46Y46*%
G04 Gerber Fmt 4.6, Leading zero omitted, Abs format (unit mm)*
G04 Created by KiCad (PCBNEW 10.0.0) date 2026-05-02 13:29:55*
%MOMM*%
%LPD*%
G01*
G04 APERTURE LIST*
G04 Aperture macros list*
%AMRoundRect*
0 Rectangle with rounded corners*
0 $1 Rounding radius*
0 $2 $3 $4 $5 $6 $7 $8 $9 X,Y pos of 4 corners*
0 Add a 4 corners polygon primitive as box body*
4,1,4,$2,$3,$4,$5,$6,$7,$8,$9,$2,$3,0*
0 Add four circle primitives for the rounded corners*
1,1,$1+$1,$2,$3*
1,1,$1+$1,$4,$5*
1,1,$1+$1,$6,$7*
1,1,$1+$1,$8,$9*
0 Add four rect primitives between the rounded corners*
20,1,$1+$1,$2,$3,$4,$5,0*
20,1,$1+$1,$4,$5,$6,$7,0*
20,1,$1+$1,$6,$7,$8,$9,0*
20,1,$1+$1,$8,$9,$2,$3,0*%
G04 Aperture macros list end*
%ADD10RoundRect,0.250000X-1.025000X-1.000000X1.025000X-1.000000X1.025000X1.000000X-1.025000X1.000000X0*%
%ADD11RoundRect,0.205000X0.470000X0.205000X-0.470000X0.205000X-0.470000X-0.205000X0.470000X-0.205000X0*%
G04 APERTURE END LIST*
D10*
%TO.C,SW44*%
X290745000Y-117960000D03*
X303672000Y-115420000D03*
%TD*%
%TO.C,SW27*%
X243120000Y-98910000D03*
X256047000Y-96370000D03*
%TD*%
%TO.C,SW36*%
X138345000Y-117960000D03*
X151272000Y-115420000D03*
%TD*%
%TO.C,SW7*%
X166920000Y-79860000D03*
X179847000Y-77320000D03*
%TD*%
%TO.C,SW3*%
X90720000Y-79860000D03*
X103647000Y-77320000D03*
%TD*%
%TO.C,SW71*%
X266932500Y-156059999D03*
X279859500Y-153519999D03*
%TD*%
%TO.C,SW19*%
X90720000Y-98910000D03*
X103647000Y-96370000D03*
%TD*%
%TO.C,SW37*%
X157395000Y-117960000D03*
X170322000Y-115420000D03*
%TD*%
%TO.C,SW81*%
X281220000Y-175109999D03*
X294147000Y-172569999D03*
%TD*%
%TO.C,SW25*%
X205020000Y-98910000D03*
X217947000Y-96370000D03*
%TD*%
%TO.C,SW18*%
X71669999Y-98910000D03*
X84596999Y-96370000D03*
%TD*%
%TO.C,SW55*%
X219307500Y-137009999D03*
X232234500Y-134469999D03*
%TD*%
%TO.C,SW39*%
X195495000Y-117960000D03*
X208422000Y-115420000D03*
%TD*%
%TO.C,SW58*%
X276457500Y-137009999D03*
X289384500Y-134469999D03*
%TD*%
%TO.C,SW20*%
X109770000Y-98910000D03*
X122697000Y-96370000D03*
%TD*%
%TO.C,SW32*%
X57382500Y-117960000D03*
X70309500Y-115420000D03*
%TD*%
%TO.C,SW72*%
X293126250Y-156059999D03*
X306053250Y-153519999D03*
%TD*%
%TO.C,SW46*%
X338370000Y-117960000D03*
X351297000Y-115420000D03*
%TD*%
%TO.C,SW29*%
X281220000Y-98910000D03*
X294147000Y-96370000D03*
%TD*%
%TO.C,SW73*%
X319320000Y-156059999D03*
X332247000Y-153519999D03*
%TD*%
%TO.C,SW83*%
X319320000Y-175109999D03*
X332247000Y-172569999D03*
%TD*%
%TO.C,SW69*%
X228832500Y-156059999D03*
X241759500Y-153519999D03*
%TD*%
%TO.C,SW54*%
X200257500Y-137009999D03*
X213184500Y-134469999D03*
%TD*%
%TO.C,SW34*%
X100245000Y-117960000D03*
X113172000Y-115420000D03*
%TD*%
%TO.C,SW21*%
X128820000Y-98910000D03*
X141747000Y-96370000D03*
%TD*%
%TO.C,SW33*%
X81195000Y-117960000D03*
X94122000Y-115420000D03*
%TD*%
%TO.C,SW38*%
X176445000Y-117960000D03*
X189372000Y-115420000D03*
%TD*%
%TO.C,SW47*%
X59763750Y-137009999D03*
X72690750Y-134469999D03*
%TD*%
%TO.C,SW14*%
X300270000Y-79860000D03*
X313197000Y-77320000D03*
%TD*%
%TO.C,SW2*%
X71669999Y-79860000D03*
X84596999Y-77320000D03*
%TD*%
%TO.C,SW82*%
X300270000Y-175109999D03*
X313197000Y-172569999D03*
%TD*%
%TO.C,SW62*%
X95482500Y-156059999D03*
X108409500Y-153519999D03*
%TD*%
%TO.C,SW75*%
X55001250Y-175109999D03*
X67928250Y-172569999D03*
%TD*%
%TO.C,SW49*%
X105007500Y-137009999D03*
X117934500Y-134469999D03*
%TD*%
%TO.C,SW51*%
X143107499Y-137009999D03*
X156034499Y-134469999D03*
%TD*%
%TO.C,SW79*%
X243120000Y-175109999D03*
X256047000Y-172569999D03*
%TD*%
%TO.C,SW17*%
X52620000Y-98910000D03*
X65547000Y-96370000D03*
%TD*%
%TO.C,SW59*%
X307413750Y-137009999D03*
X320340750Y-134469999D03*
%TD*%
%TO.C,SW68*%
X209782500Y-156059999D03*
X222709500Y-153519999D03*
%TD*%
%TO.C,SW74*%
X338370000Y-156059999D03*
X351297000Y-153519999D03*
%TD*%
%TO.C,SW4*%
X109770000Y-79860000D03*
X122697000Y-77320000D03*
%TD*%
%TO.C,SW66*%
X171682500Y-156059999D03*
X184609500Y-153519999D03*
%TD*%
%TO.C,SW67*%
X190732500Y-156059999D03*
X203659500Y-153519999D03*
%TD*%
%TO.C,SW57*%
X257407500Y-137009999D03*
X270334500Y-134469999D03*
%TD*%
%TO.C,SW6*%
X147869999Y-79860000D03*
X160796999Y-77320000D03*
%TD*%
%TO.C,SW31*%
X338370000Y-98910000D03*
X351297000Y-96370000D03*
%TD*%
%TO.C,SW13*%
X281220000Y-79860000D03*
X294147000Y-77320000D03*
%TD*%
%TO.C,SW12*%
X262170000Y-79860000D03*
X275097000Y-77320000D03*
%TD*%
%TO.C,SW5*%
X128820000Y-79860000D03*
X141747000Y-77320000D03*
%TD*%
%TO.C,SW22*%
X147869999Y-98910000D03*
X160796999Y-96370000D03*
%TD*%
%TO.C,SW60*%
X338370000Y-137009999D03*
X351297000Y-134469999D03*
%TD*%
%TO.C,SW42*%
X252645000Y-117960000D03*
X265572000Y-115420000D03*
%TD*%
%TO.C,SW24*%
X185970000Y-98910000D03*
X198897000Y-96370000D03*
%TD*%
%TO.C,SW23*%
X166920000Y-98910000D03*
X179847000Y-96370000D03*
%TD*%
%TO.C,SW77*%
X102626250Y-175109999D03*
X115553250Y-172569999D03*
%TD*%
%TO.C,SW63*%
X114532500Y-156059999D03*
X127459500Y-153519999D03*
%TD*%
%TO.C,SW53*%
X181207500Y-137009999D03*
X194134500Y-134469999D03*
%TD*%
%TO.C,SW65*%
X152632500Y-156059999D03*
X165559500Y-153519999D03*
%TD*%
%TO.C,SW76*%
X78813750Y-175109999D03*
X91740750Y-172569999D03*
%TD*%
%TO.C,SW80*%
X262170000Y-175109999D03*
X275097000Y-172569999D03*
%TD*%
%TO.C,SW28*%
X262170000Y-98910000D03*
X275097000Y-96370000D03*
%TD*%
%TO.C,SW41*%
X233595000Y-117960000D03*
X246522000Y-115420000D03*
%TD*%
%TO.C,SW16*%
X338370000Y-79860000D03*
X351297000Y-77320000D03*
%TD*%
%TO.C,SW35*%
X119295000Y-117960000D03*
X132222000Y-115420000D03*
%TD*%
%TO.C,SW70*%
X247882500Y-156059999D03*
X260809500Y-153519999D03*
%TD*%
%TO.C,SW1*%
X52620000Y-79860000D03*
X65547000Y-77320000D03*
%TD*%
%TO.C,SW8*%
X185970000Y-79860000D03*
X198897000Y-77320000D03*
%TD*%
%TO.C,SW56*%
X238357500Y-137009999D03*
X251284500Y-134469999D03*
%TD*%
%TO.C,SW15*%
X319320000Y-79860000D03*
X332247000Y-77320000D03*
%TD*%
%TO.C,SW48*%
X85957500Y-137009999D03*
X98884500Y-134469999D03*
%TD*%
%TO.C,SW64*%
X133582500Y-156059999D03*
X146509500Y-153519999D03*
%TD*%
%TO.C,SW61*%
X64526250Y-156059999D03*
X77453250Y-153519999D03*
%TD*%
%TO.C,SW9*%
X205020000Y-79860000D03*
X217947000Y-77320000D03*
%TD*%
%TO.C,SW43*%
X271695000Y-117960000D03*
X284622000Y-115420000D03*
%TD*%
%TO.C,SW52*%
X162157500Y-137009999D03*
X175084500Y-134469999D03*
%TD*%
%TO.C,SW45*%
X314557500Y-117960000D03*
X327484500Y-115420000D03*
%TD*%
%TO.C,SW40*%
X214545000Y-117960000D03*
X227472000Y-115420000D03*
%TD*%
%TO.C,SW30*%
X309795000Y-98910000D03*
X322722000Y-96370000D03*
%TD*%
%TO.C,SW11*%
X243120000Y-79860000D03*
X256047000Y-77320000D03*
%TD*%
%TO.C,SW26*%
X224070000Y-98910000D03*
X236997000Y-96370000D03*
%TD*%
%TO.C,SW50*%
X124057500Y-137009999D03*
X136984500Y-134469999D03*
%TD*%
%TO.C,SW84*%
X338370000Y-175109999D03*
X351297000Y-172569999D03*
%TD*%
%TO.C,SW10*%
X224070000Y-79860000D03*
X236997000Y-77320000D03*
%TD*%
%TO.C,SW78*%
X174063750Y-175109999D03*
X186990750Y-172569999D03*
%TD*%
D11*
%TO.C,LED10*%
X234450000Y-88500000D03*
X234450000Y-87000000D03*
X229000000Y-87000000D03*
X229000000Y-88500000D03*
%TD*%
%TO.C,LED20*%
X119580000Y-107500000D03*
X119580000Y-106000000D03*
X114130000Y-106000000D03*
X114130000Y-107500000D03*
%TD*%
%TO.C,LED61*%
X74225000Y-164750000D03*
X74225000Y-163250000D03*
X68775000Y-163250000D03*
X68775000Y-164750000D03*
%TD*%
%TO.C,LED39*%
X205725000Y-126250000D03*
X205725000Y-124750000D03*
X200275000Y-124750000D03*
X200275000Y-126250000D03*
%TD*%
%TO.C,LED48*%
X95767500Y-145250000D03*
X95767500Y-143750000D03*
X90317500Y-143750000D03*
X90317500Y-145250000D03*
%TD*%
%TO.C,LED4*%
X119950000Y-88500000D03*
X119950000Y-87000000D03*
X114500000Y-87000000D03*
X114500000Y-88500000D03*
%TD*%
%TO.C,LED22*%
X157679999Y-107500000D03*
X157679999Y-106000000D03*
X152229999Y-106000000D03*
X152229999Y-107500000D03*
%TD*%
%TO.C,LED24*%
X195950000Y-107500000D03*
X195950000Y-106000000D03*
X190500000Y-106000000D03*
X190500000Y-107500000D03*
%TD*%
%TO.C,LED15*%
X329450000Y-88500000D03*
X329450000Y-87000000D03*
X324000000Y-87000000D03*
X324000000Y-88500000D03*
%TD*%
%TO.C,LED57*%
X267225000Y-145750000D03*
X267225000Y-144250000D03*
X261775000Y-144250000D03*
X261775000Y-145750000D03*
%TD*%
%TO.C,LED53*%
X191225000Y-145750000D03*
X191225000Y-144250000D03*
X185775000Y-144250000D03*
X185775000Y-145750000D03*
%TD*%
%TO.C,LED38*%
X186255000Y-126500000D03*
X186255000Y-125000000D03*
X180805000Y-125000000D03*
X180805000Y-126500000D03*
%TD*%
%TO.C,LED59*%
X317225000Y-145750000D03*
X317225000Y-144250000D03*
X311775000Y-144250000D03*
X311775000Y-145750000D03*
%TD*%
%TO.C,LED2*%
X81450000Y-88500000D03*
X81450000Y-87000000D03*
X76000000Y-87000000D03*
X76000000Y-88500000D03*
%TD*%
%TO.C,LED42*%
X262725000Y-126250000D03*
X262725000Y-124750000D03*
X257275000Y-124750000D03*
X257275000Y-126250000D03*
%TD*%
%TO.C,LED41*%
X243950000Y-126500000D03*
X243950000Y-125000000D03*
X238500000Y-125000000D03*
X238500000Y-126500000D03*
%TD*%
%TO.C,LED67*%
X200542500Y-164750000D03*
X200542500Y-163250000D03*
X195092500Y-163250000D03*
X195092500Y-164750000D03*
%TD*%
%TO.C,LED69*%
X238642500Y-164750000D03*
X238642500Y-163250000D03*
X233192500Y-163250000D03*
X233192500Y-164750000D03*
%TD*%
%TO.C,LED23*%
X177000000Y-107500000D03*
X177000000Y-106000000D03*
X171550000Y-106000000D03*
X171550000Y-107500000D03*
%TD*%
%TO.C,LED37*%
X167205000Y-126500000D03*
X167205000Y-125000000D03*
X161755000Y-125000000D03*
X161755000Y-126500000D03*
%TD*%
%TO.C,LED33*%
X91000000Y-126500000D03*
X91000000Y-125000000D03*
X85550000Y-125000000D03*
X85550000Y-126500000D03*
%TD*%
%TO.C,LED18*%
X81950000Y-107500000D03*
X81950000Y-106000000D03*
X76500000Y-106000000D03*
X76500000Y-107500000D03*
%TD*%
%TO.C,LED34*%
X110450000Y-126500000D03*
X110450000Y-125000000D03*
X105000000Y-125000000D03*
X105000000Y-126500000D03*
%TD*%
%TO.C,LED77*%
X112225000Y-183750000D03*
X112225000Y-182250000D03*
X106775000Y-182250000D03*
X106775000Y-183750000D03*
%TD*%
%TO.C,LED50*%
X134450000Y-145500000D03*
X134450000Y-144000000D03*
X129000000Y-144000000D03*
X129000000Y-145500000D03*
%TD*%
%TO.C,LED21*%
X138950000Y-107500000D03*
X138950000Y-106000000D03*
X133500000Y-106000000D03*
X133500000Y-107500000D03*
%TD*%
%TO.C,LED8*%
X195950000Y-88500000D03*
X195950000Y-87000000D03*
X190500000Y-87000000D03*
X190500000Y-88500000D03*
%TD*%
%TO.C,LED52*%
X171967500Y-145450000D03*
X171967500Y-143950000D03*
X166517500Y-143950000D03*
X166517500Y-145450000D03*
%TD*%
%TO.C,LED25*%
X214950000Y-107500000D03*
X214950000Y-106000000D03*
X209500000Y-106000000D03*
X209500000Y-107500000D03*
%TD*%
%TO.C,LED63*%
X124342500Y-164750000D03*
X124342500Y-163250000D03*
X118892500Y-163250000D03*
X118892500Y-164750000D03*
%TD*%
%TO.C,LED64*%
X143392500Y-164350000D03*
X143392500Y-162850000D03*
X137942500Y-162850000D03*
X137942500Y-164350000D03*
%TD*%
%TO.C,LED32*%
X67192500Y-126500000D03*
X67192500Y-125000000D03*
X61742500Y-125000000D03*
X61742500Y-126500000D03*
%TD*%
%TO.C,LED70*%
X257692500Y-164750000D03*
X257692500Y-163250000D03*
X252242500Y-163250000D03*
X252242500Y-164750000D03*
%TD*%
%TO.C,LED11*%
X253000000Y-88500000D03*
X253000000Y-87000000D03*
X247550000Y-87000000D03*
X247550000Y-88500000D03*
%TD*%
%TO.C,LED83*%
X329130000Y-183750000D03*
X329130000Y-182250000D03*
X323680000Y-182250000D03*
X323680000Y-183750000D03*
%TD*%
%TO.C,LED72*%
X302725000Y-164750000D03*
X302725000Y-163250000D03*
X297275000Y-163250000D03*
X297275000Y-164750000D03*
%TD*%
%TO.C,LED80*%
X271980000Y-183750000D03*
X271980000Y-182250000D03*
X266530000Y-182250000D03*
X266530000Y-183750000D03*
%TD*%
%TO.C,LED54*%
X210067500Y-145750000D03*
X210067500Y-144250000D03*
X204617500Y-144250000D03*
X204617500Y-145750000D03*
%TD*%
%TO.C,LED3*%
X100950000Y-88500000D03*
X100950000Y-87000000D03*
X95500000Y-87000000D03*
X95500000Y-88500000D03*
%TD*%
%TO.C,LED74*%
X348225000Y-164750000D03*
X348225000Y-163250000D03*
X342775000Y-163250000D03*
X342775000Y-164750000D03*
%TD*%
%TO.C,LED75*%
X64811250Y-183750000D03*
X64811250Y-182250000D03*
X59361250Y-182250000D03*
X59361250Y-183750000D03*
%TD*%
%TO.C,LED40*%
X224950000Y-126500000D03*
X224950000Y-125000000D03*
X219500000Y-125000000D03*
X219500000Y-126500000D03*
%TD*%
%TO.C,LED30*%
X319950000Y-107500000D03*
X319950000Y-106000000D03*
X314500000Y-106000000D03*
X314500000Y-107500000D03*
%TD*%
%TO.C,LED13*%
X291225000Y-88750000D03*
X291225000Y-87250000D03*
X285775000Y-87250000D03*
X285775000Y-88750000D03*
%TD*%
%TO.C,LED58*%
X286225000Y-145750000D03*
X286225000Y-144250000D03*
X280775000Y-144250000D03*
X280775000Y-145750000D03*
%TD*%
%TO.C,LED73*%
X329225000Y-164750000D03*
X329225000Y-163250000D03*
X323775000Y-163250000D03*
X323775000Y-164750000D03*
%TD*%
%TO.C,LED17*%
X62450000Y-107500000D03*
X62450000Y-106000000D03*
X57000000Y-106000000D03*
X57000000Y-107500000D03*
%TD*%
%TO.C,LED84*%
X348450000Y-183500000D03*
X348450000Y-182000000D03*
X343000000Y-182000000D03*
X343000000Y-183500000D03*
%TD*%
%TO.C,LED82*%
X310225000Y-183750000D03*
X310225000Y-182250000D03*
X304775000Y-182250000D03*
X304775000Y-183750000D03*
%TD*%
%TO.C,LED79*%
X252725000Y-183750000D03*
X252725000Y-182250000D03*
X247275000Y-182250000D03*
X247275000Y-183750000D03*
%TD*%
%TO.C,LED5*%
X138655000Y-88500000D03*
X138655000Y-87000000D03*
X133205000Y-87000000D03*
X133205000Y-88500000D03*
%TD*%
%TO.C,LED47*%
X69573750Y-145250000D03*
X69573750Y-143750000D03*
X64123750Y-143750000D03*
X64123750Y-145250000D03*
%TD*%
%TO.C,LED45*%
X324725000Y-126500000D03*
X324725000Y-125000000D03*
X319275000Y-125000000D03*
X319275000Y-126500000D03*
%TD*%
%TO.C,LED55*%
X229117500Y-145750000D03*
X229117500Y-144250000D03*
X223667500Y-144250000D03*
X223667500Y-145750000D03*
%TD*%
%TO.C,LED9*%
X214950000Y-88500000D03*
X214950000Y-87000000D03*
X209500000Y-87000000D03*
X209500000Y-88500000D03*
%TD*%
%TO.C,LED19*%
X100450000Y-107500000D03*
X100450000Y-106000000D03*
X95000000Y-106000000D03*
X95000000Y-107500000D03*
%TD*%
%TO.C,LED78*%
X183873750Y-183500000D03*
X183873750Y-182000000D03*
X178423750Y-182000000D03*
X178423750Y-183500000D03*
%TD*%
%TO.C,LED27*%
X252950000Y-107500000D03*
X252950000Y-106000000D03*
X247500000Y-106000000D03*
X247500000Y-107500000D03*
%TD*%
%TO.C,LED62*%
X105292500Y-164750000D03*
X105292500Y-163250000D03*
X99842500Y-163250000D03*
X99842500Y-164750000D03*
%TD*%
%TO.C,LED36*%
X148450000Y-126500000D03*
X148450000Y-125000000D03*
X143000000Y-125000000D03*
X143000000Y-126500000D03*
%TD*%
%TO.C,LED46*%
X348180000Y-126250000D03*
X348180000Y-124750000D03*
X342730000Y-124750000D03*
X342730000Y-126250000D03*
%TD*%
%TO.C,LED71*%
X276742500Y-164750000D03*
X276742500Y-163250000D03*
X271292500Y-163250000D03*
X271292500Y-164750000D03*
%TD*%
%TO.C,LED76*%
X88225000Y-183750000D03*
X88225000Y-182250000D03*
X82775000Y-182250000D03*
X82775000Y-183750000D03*
%TD*%
%TO.C,LED28*%
X272450000Y-107500000D03*
X272450000Y-106000000D03*
X267000000Y-106000000D03*
X267000000Y-107500000D03*
%TD*%
%TO.C,LED26*%
X233950000Y-107500000D03*
X233950000Y-106000000D03*
X228500000Y-106000000D03*
X228500000Y-107500000D03*
%TD*%
%TO.C,LED7*%
X176950000Y-88500000D03*
X176950000Y-87000000D03*
X171500000Y-87000000D03*
X171500000Y-88500000D03*
%TD*%
%TO.C,LED12*%
X271950000Y-88500000D03*
X271950000Y-87000000D03*
X266500000Y-87000000D03*
X266500000Y-88500000D03*
%TD*%
%TO.C,LED43*%
X281505000Y-126250000D03*
X281505000Y-124750000D03*
X276055000Y-124750000D03*
X276055000Y-126250000D03*
%TD*%
%TO.C,LED81*%
X290725000Y-183750000D03*
X290725000Y-182250000D03*
X285275000Y-182250000D03*
X285275000Y-183750000D03*
%TD*%
%TO.C,LED49*%
X114817500Y-145250000D03*
X114817500Y-143750000D03*
X109367500Y-143750000D03*
X109367500Y-145250000D03*
%TD*%
%TO.C,LED14*%
X310450000Y-88500000D03*
X310450000Y-87000000D03*
X305000000Y-87000000D03*
X305000000Y-88500000D03*
%TD*%
%TO.C,LED29*%
X291450000Y-107500000D03*
X291450000Y-106000000D03*
X286000000Y-106000000D03*
X286000000Y-107500000D03*
%TD*%
%TO.C,LED31*%
X348180000Y-107250000D03*
X348180000Y-105750000D03*
X342730000Y-105750000D03*
X342730000Y-107250000D03*
%TD*%
%TO.C,LED65*%
X162442500Y-164750000D03*
X162442500Y-163250000D03*
X156992500Y-163250000D03*
X156992500Y-164750000D03*
%TD*%
%TO.C,LED44*%
X300950000Y-126500000D03*
X300950000Y-125000000D03*
X295500000Y-125000000D03*
X295500000Y-126500000D03*
%TD*%
%TO.C,LED51*%
X152917499Y-145350000D03*
X152917499Y-143850000D03*
X147467499Y-143850000D03*
X147467499Y-145350000D03*
%TD*%
%TO.C,LED60*%
X348450000Y-145500000D03*
X348450000Y-144000000D03*
X343000000Y-144000000D03*
X343000000Y-145500000D03*
%TD*%
%TO.C,LED16*%
X348450000Y-88500000D03*
X348450000Y-87000000D03*
X343000000Y-87000000D03*
X343000000Y-88500000D03*
%TD*%
%TO.C,LED1*%
X62225000Y-88250000D03*
X62225000Y-86750000D03*
X56775000Y-86750000D03*
X56775000Y-88250000D03*
%TD*%
%TO.C,LED66*%
X181725000Y-164750000D03*
X181725000Y-163250000D03*
X176275000Y-163250000D03*
X176275000Y-164750000D03*
%TD*%
%TO.C,LED6*%
X157679999Y-88500000D03*
X157679999Y-87000000D03*
X152229999Y-87000000D03*
X152229999Y-88500000D03*
%TD*%
%TO.C,LED56*%
X248225000Y-145750000D03*
X248225000Y-144250000D03*
X242775000Y-144250000D03*
X242775000Y-145750000D03*
%TD*%
%TO.C,LED35*%
X129105000Y-126500000D03*
X129105000Y-125000000D03*
X123655000Y-125000000D03*
X123655000Y-126500000D03*
%TD*%
%TO.C,LED68*%
X219725000Y-164750000D03*
X219725000Y-163250000D03*
X214275000Y-163250000D03*
X214275000Y-164750000D03*
%TD*%
M02*
