%TF.GenerationSoftware,KiCad,Pcbnew,10.0.0*%
%TF.CreationDate,2026-05-02T13:29:56+05:00*%
%TF.ProjectId,Ghoost Board,47686f6f-7374-4204-926f-6172642e6b69,rev?*%
%TF.SameCoordinates,Original*%
%TF.FileFunction,Soldermask,Top*%
%TF.FilePolarity,Negative*%
%FSLAX46Y46*%
G04 Gerber Fmt 4.6, Leading zero omitted, Abs format (unit mm)*
G04 Created by KiCad (PCBNEW 10.0.0) date 2026-05-02 13:29:56*
%MOMM*%
%LPD*%
G01*
G04 APERTURE LIST*
G04 Aperture macros list*
%AMRoundRect*
0 Rectangle with rounded corners*
0 $1 Rounding radius*
0 $2 $3 $4 $5 $6 $7 $8 $9 X,Y pos of 4 corners*
0 Add a 4 corners polygon primitive as box body*
4,1,4,$2,$3,$4,$5,$6,$7,$8,$9,$2,$3,0*
0 Add four circle primitives for the rounded corners*
1,1,$1+$1,$2,$3*
1,1,$1+$1,$4,$5*
1,1,$1+$1,$6,$7*
1,1,$1+$1,$8,$9*
0 Add four rect primitives between the rounded corners*
20,1,$1+$1,$2,$3,$4,$5,0*
20,1,$1+$1,$4,$5,$6,$7,0*
20,1,$1+$1,$6,$7,$8,$9,0*
20,1,$1+$1,$8,$9,$2,$3,0*%
G04 Aperture macros list end*
%ADD10C,3.200000*%
%ADD11RoundRect,0.250000X-0.337500X-0.475000X0.337500X-0.475000X0.337500X0.475000X-0.337500X0.475000X0*%
%ADD12C,1.750000*%
%ADD13C,3.050000*%
%ADD14C,4.000000*%
%ADD15RoundRect,0.225000X0.375000X-0.225000X0.375000X0.225000X-0.375000X0.225000X-0.375000X-0.225000X0*%
%ADD16RoundRect,0.250000X0.475000X-0.337500X0.475000X0.337500X-0.475000X0.337500X-0.475000X-0.337500X0*%
%ADD17O,2.200000X1.600000*%
%ADD18C,2.100000*%
%ADD19R,2.000000X2.000000*%
%ADD20C,2.000000*%
%ADD21R,3.200000X2.000000*%
%ADD22RoundRect,0.237500X-0.250000X-0.237500X0.250000X-0.237500X0.250000X0.237500X-0.250000X0.237500X0*%
%ADD23C,3.048000*%
%ADD24C,3.987800*%
%ADD25RoundRect,0.237500X0.237500X-0.250000X0.237500X0.250000X-0.237500X0.250000X-0.237500X-0.250000X0*%
%ADD26RoundRect,0.100000X-0.637500X-0.100000X0.637500X-0.100000X0.637500X0.100000X-0.637500X0.100000X0*%
%ADD27RoundRect,0.250000X-0.250000X-0.475000X0.250000X-0.475000X0.250000X0.475000X-0.250000X0.475000X0*%
%ADD28RoundRect,0.150000X-0.512500X-0.150000X0.512500X-0.150000X0.512500X0.150000X-0.512500X0.150000X0*%
%ADD29R,0.900000X1.000000*%
%ADD30C,0.650000*%
%ADD31RoundRect,0.150000X0.150000X0.425000X-0.150000X0.425000X-0.150000X-0.425000X0.150000X-0.425000X0*%
%ADD32RoundRect,0.075000X0.075000X0.500000X-0.075000X0.500000X-0.075000X-0.500000X0.075000X-0.500000X0*%
%ADD33O,1.000000X2.100000*%
%ADD34O,1.000000X1.800000*%
%ADD35RoundRect,0.250000X-0.375000X-0.625000X0.375000X-0.625000X0.375000X0.625000X-0.375000X0.625000X0*%
%ADD36RoundRect,0.062500X0.337500X0.062500X-0.337500X0.062500X-0.337500X-0.062500X0.337500X-0.062500X0*%
%ADD37R,1.700000X1.400000*%
%ADD38C,1.752600*%
%ADD39RoundRect,0.250000X0.350000X0.625000X-0.350000X0.625000X-0.350000X-0.625000X0.350000X-0.625000X0*%
%ADD40O,1.200000X1.750000*%
G04 APERTURE END LIST*
D10*
%TO.C,REF\u002A\u002A*%
X239000000Y-60000000D03*
%TD*%
%TO.C,REF\u002A\u002A*%
X171500000Y-60000000D03*
%TD*%
%TO.C,REF\u002A\u002A*%
X357000000Y-187500000D03*
%TD*%
%TO.C,REF\u002A\u002A*%
X47000000Y-187500000D03*
%TD*%
D11*
%TO.C,C17*%
X218962500Y-62000000D03*
X221037500Y-62000000D03*
%TD*%
D12*
%TO.C,SW44*%
X292750000Y-120500000D03*
D13*
X294020000Y-117960000D03*
D14*
X297830000Y-120500000D03*
D13*
X300370000Y-115420000D03*
D12*
X302910000Y-120500000D03*
%TD*%
D15*
%TO.C,D28*%
X260600000Y-109650000D03*
X260600000Y-106350000D03*
%TD*%
%TO.C,D13*%
X280000000Y-90650000D03*
X280000000Y-87350000D03*
%TD*%
D16*
%TO.C,C72*%
X275000000Y-141537500D03*
X275000000Y-139462500D03*
%TD*%
D12*
%TO.C,SW27*%
X245125000Y-101450000D03*
D13*
X246395000Y-98910000D03*
D14*
X250205000Y-101450000D03*
D13*
X252745000Y-96370000D03*
D12*
X255285000Y-101450000D03*
%TD*%
D15*
%TO.C,D8*%
X184850000Y-90650000D03*
X184850000Y-87350000D03*
%TD*%
%TO.C,D79*%
X241500000Y-185650000D03*
X241500000Y-182350000D03*
%TD*%
%TO.C,D24*%
X184500000Y-109650000D03*
X184500000Y-106350000D03*
%TD*%
D16*
%TO.C,C95*%
X280000000Y-179537500D03*
X280000000Y-177462500D03*
%TD*%
D12*
%TO.C,SW36*%
X140350000Y-120500000D03*
D13*
X141620000Y-117960000D03*
D14*
X145430000Y-120500000D03*
D13*
X147970000Y-115420000D03*
D12*
X150510000Y-120500000D03*
%TD*%
D16*
%TO.C,C39*%
X203500000Y-103537500D03*
X203500000Y-101462500D03*
%TD*%
D15*
%TO.C,D59*%
X306000000Y-147650000D03*
X306000000Y-144350000D03*
%TD*%
D12*
%TO.C,SW7*%
X168925000Y-82400000D03*
D13*
X170195000Y-79860000D03*
D14*
X174005000Y-82400000D03*
D13*
X176545000Y-77320000D03*
D12*
X179085000Y-82400000D03*
%TD*%
D17*
%TO.C,ENC1*%
X342000000Y-61500000D03*
D18*
X346500000Y-61500000D03*
D19*
X339000000Y-59000000D03*
D20*
X339000000Y-64000000D03*
X339000000Y-61500000D03*
D21*
X346500000Y-55900000D03*
X346500000Y-67100000D03*
D20*
X353500000Y-64000000D03*
X353500000Y-59000000D03*
%TD*%
D16*
%TO.C,C61*%
X58500000Y-142075000D03*
X58500000Y-140000000D03*
%TD*%
D15*
%TO.C,D74*%
X337000000Y-166650000D03*
X337000000Y-163350000D03*
%TD*%
%TO.C,D41*%
X232000000Y-128500000D03*
X232000000Y-125200000D03*
%TD*%
D16*
%TO.C,C56*%
X251000000Y-122537500D03*
X251000000Y-120462500D03*
%TD*%
D12*
%TO.C,SW3*%
X92725000Y-82400000D03*
D13*
X93995000Y-79860000D03*
D14*
X97805000Y-82400000D03*
D13*
X100345000Y-77320000D03*
D12*
X102885000Y-82400000D03*
%TD*%
D16*
%TO.C,C92*%
X172500000Y-179537500D03*
X172500000Y-177462500D03*
%TD*%
%TO.C,C71*%
X256000000Y-141537500D03*
X256000000Y-139462500D03*
%TD*%
%TO.C,C89*%
X53500000Y-179575000D03*
X53500000Y-177500000D03*
%TD*%
D15*
%TO.C,D80*%
X260500000Y-185500000D03*
X260500000Y-182200000D03*
%TD*%
D12*
%TO.C,SW71*%
X268937500Y-158599999D03*
D13*
X270207500Y-156059999D03*
D14*
X274017500Y-158599999D03*
D13*
X276557500Y-153519999D03*
D12*
X279097500Y-158599999D03*
%TD*%
D16*
%TO.C,C64*%
X122500000Y-141575000D03*
X122500000Y-139500000D03*
%TD*%
D15*
%TO.C,D47*%
X58000000Y-147800000D03*
X58000000Y-144500000D03*
%TD*%
%TO.C,D60*%
X337000000Y-147650000D03*
X337000000Y-144350000D03*
%TD*%
D16*
%TO.C,C85*%
X265500000Y-160537500D03*
X265500000Y-158462500D03*
%TD*%
%TO.C,C55*%
X232000000Y-122537500D03*
X232000000Y-120462500D03*
%TD*%
D12*
%TO.C,SW19*%
X92725000Y-101450000D03*
D13*
X93995000Y-98910000D03*
D14*
X97805000Y-101450000D03*
D13*
X100345000Y-96370000D03*
D12*
X102885000Y-101450000D03*
%TD*%
D15*
%TO.C,D20*%
X108500000Y-109800000D03*
X108500000Y-106500000D03*
%TD*%
D22*
%TO.C,R7*%
X194087500Y-61500000D03*
X195912500Y-61500000D03*
%TD*%
D16*
%TO.C,C23*%
X203500000Y-84537500D03*
X203500000Y-82462500D03*
%TD*%
%TO.C,C96*%
X299000000Y-180075000D03*
X299000000Y-178000000D03*
%TD*%
D15*
%TO.C,D68*%
X208000000Y-166650000D03*
X208000000Y-163350000D03*
%TD*%
D16*
%TO.C,C15*%
X108500000Y-84500000D03*
X108500000Y-82425000D03*
%TD*%
D11*
%TO.C,C1*%
X81462500Y-59000000D03*
X83537500Y-59000000D03*
%TD*%
D15*
%TO.C,D66*%
X170000000Y-166650000D03*
X170000000Y-163350000D03*
%TD*%
%TO.C,D84*%
X337000000Y-185650000D03*
X337000000Y-182350000D03*
%TD*%
D12*
%TO.C,SW37*%
X159400000Y-120500000D03*
D13*
X160670000Y-117960000D03*
D14*
X164480000Y-120500000D03*
D13*
X167020000Y-115420000D03*
D12*
X169560000Y-120500000D03*
%TD*%
D23*
%TO.C,REF\u002A\u002A*%
X59673250Y-151614999D03*
D24*
X59673250Y-166824999D03*
D23*
X83549250Y-151614999D03*
D24*
X83549250Y-166824999D03*
%TD*%
D12*
%TO.C,SW81*%
X283225000Y-177649999D03*
D13*
X284495000Y-175109999D03*
D14*
X288305000Y-177649999D03*
D13*
X290845000Y-172569999D03*
D12*
X293385000Y-177649999D03*
%TD*%
D15*
%TO.C,D64*%
X132000000Y-166650000D03*
X132000000Y-163350000D03*
%TD*%
D16*
%TO.C,C60*%
X337000000Y-122575000D03*
X337000000Y-120500000D03*
%TD*%
D12*
%TO.C,SW25*%
X207025000Y-101450000D03*
D13*
X208295000Y-98910000D03*
D14*
X212105000Y-101450000D03*
D13*
X214645000Y-96370000D03*
D12*
X217185000Y-101450000D03*
%TD*%
D16*
%TO.C,C35*%
X127500000Y-103575000D03*
X127500000Y-101500000D03*
%TD*%
%TO.C,C32*%
X70500000Y-103575000D03*
X70500000Y-101500000D03*
%TD*%
D15*
%TO.C,D83*%
X318000000Y-185650000D03*
X318000000Y-182350000D03*
%TD*%
%TO.C,D51*%
X141500000Y-147500000D03*
X141500000Y-144200000D03*
%TD*%
D16*
%TO.C,C45*%
X337000000Y-103537500D03*
X337000000Y-101462500D03*
%TD*%
D15*
%TO.C,D57*%
X256000000Y-147650000D03*
X256000000Y-144350000D03*
%TD*%
D16*
%TO.C,C48*%
X99000000Y-122575000D03*
X99000000Y-120500000D03*
%TD*%
D15*
%TO.C,D81*%
X279600000Y-185650000D03*
X279600000Y-182350000D03*
%TD*%
D22*
%TO.C,R9*%
X184550000Y-61500000D03*
X186375000Y-61500000D03*
%TD*%
D12*
%TO.C,SW18*%
X73674999Y-101450000D03*
D13*
X74944999Y-98910000D03*
D14*
X78754999Y-101450000D03*
D13*
X81294999Y-96370000D03*
D12*
X83834999Y-101450000D03*
%TD*%
D16*
%TO.C,C65*%
X141500000Y-141537500D03*
X141500000Y-139462500D03*
%TD*%
D15*
%TO.C,D82*%
X298600000Y-185650000D03*
X298600000Y-182350000D03*
%TD*%
D16*
%TO.C,C63*%
X103500000Y-141537500D03*
X103500000Y-139462500D03*
%TD*%
%TO.C,C12*%
X51200000Y-84537500D03*
X51200000Y-82462500D03*
%TD*%
%TO.C,C44*%
X308500000Y-103537500D03*
X308500000Y-101462500D03*
%TD*%
D15*
%TO.C,D22*%
X146500000Y-109500000D03*
X146500000Y-106200000D03*
%TD*%
%TO.C,D9*%
X203500000Y-90650000D03*
X203500000Y-87350000D03*
%TD*%
D16*
%TO.C,C97*%
X318000000Y-179537500D03*
X318000000Y-177462500D03*
%TD*%
D12*
%TO.C,SW55*%
X221312500Y-139549999D03*
D13*
X222582500Y-137009999D03*
D14*
X226392500Y-139549999D03*
D13*
X228932500Y-134469999D03*
D12*
X231472500Y-139549999D03*
%TD*%
D15*
%TO.C,D72*%
X291500000Y-166150000D03*
X291500000Y-162850000D03*
%TD*%
%TO.C,D52*%
X160500000Y-147650000D03*
X160500000Y-144350000D03*
%TD*%
D23*
%TO.C,REF\u002A\u002A*%
X302560750Y-132564999D03*
D24*
X302560750Y-147774999D03*
D23*
X326436750Y-132564999D03*
D24*
X326436750Y-147774999D03*
%TD*%
D12*
%TO.C,SW39*%
X197500000Y-120500000D03*
D13*
X198770000Y-117960000D03*
D14*
X202580000Y-120500000D03*
D13*
X205120000Y-115420000D03*
D12*
X207660000Y-120500000D03*
%TD*%
%TO.C,SW58*%
X278462500Y-139549999D03*
D13*
X279732500Y-137009999D03*
D14*
X283542500Y-139549999D03*
D13*
X286082500Y-134469999D03*
D12*
X288622500Y-139549999D03*
%TD*%
D16*
%TO.C,C19*%
X127500000Y-84537500D03*
X127500000Y-82462500D03*
%TD*%
D15*
%TO.C,D27*%
X241500000Y-109150000D03*
X241500000Y-105850000D03*
%TD*%
D12*
%TO.C,SW20*%
X111775000Y-101450000D03*
D13*
X113045000Y-98910000D03*
D14*
X116855000Y-101450000D03*
D13*
X119395000Y-96370000D03*
D12*
X121935000Y-101450000D03*
%TD*%
D23*
%TO.C,REF\u002A\u002A*%
X304942000Y-94465000D03*
D24*
X304942000Y-109675000D03*
D23*
X328818000Y-94465000D03*
D24*
X328818000Y-109675000D03*
%TD*%
D12*
%TO.C,SW32*%
X59387500Y-120500000D03*
D13*
X60657500Y-117960000D03*
D14*
X64467500Y-120500000D03*
D13*
X67007500Y-115420000D03*
D12*
X69547500Y-120500000D03*
%TD*%
D15*
%TO.C,D71*%
X265500000Y-166150000D03*
X265500000Y-162850000D03*
%TD*%
%TO.C,D38*%
X175000000Y-128150000D03*
X175000000Y-124850000D03*
%TD*%
%TO.C,D54*%
X198600000Y-147650000D03*
X198600000Y-144350000D03*
%TD*%
%TO.C,D31*%
X337000000Y-109150000D03*
X337000000Y-105850000D03*
%TD*%
%TO.C,D1*%
X51000000Y-90150000D03*
X51000000Y-86850000D03*
%TD*%
D12*
%TO.C,SW72*%
X295131250Y-158599999D03*
D13*
X296401250Y-156059999D03*
D14*
X300211250Y-158599999D03*
D13*
X302751250Y-153519999D03*
D12*
X305291250Y-158599999D03*
%TD*%
D16*
%TO.C,C27*%
X280000000Y-84537500D03*
X280000000Y-82462500D03*
%TD*%
D15*
%TO.C,D17*%
X51000000Y-109800000D03*
X51000000Y-106500000D03*
%TD*%
D12*
%TO.C,SW46*%
X340375000Y-120500000D03*
D13*
X341645000Y-117960000D03*
D14*
X345455000Y-120500000D03*
D13*
X347995000Y-115420000D03*
D12*
X350535000Y-120500000D03*
%TD*%
D16*
%TO.C,C30*%
X337000000Y-84575000D03*
X337000000Y-82500000D03*
%TD*%
D15*
%TO.C,D43*%
X270000000Y-128650000D03*
X270000000Y-125350000D03*
%TD*%
%TO.C,D42*%
X251000000Y-128650000D03*
X251000000Y-125350000D03*
%TD*%
D12*
%TO.C,SW29*%
X283225000Y-101450000D03*
D13*
X284495000Y-98910000D03*
D14*
X288305000Y-101450000D03*
D13*
X290845000Y-96370000D03*
D12*
X293385000Y-101450000D03*
%TD*%
D15*
%TO.C,D70*%
X246500000Y-166650000D03*
X246500000Y-163350000D03*
%TD*%
D16*
%TO.C,C58*%
X289000000Y-122575000D03*
X289000000Y-120500000D03*
%TD*%
D12*
%TO.C,SW73*%
X321325000Y-158599999D03*
D13*
X322595000Y-156059999D03*
D14*
X326405000Y-158599999D03*
D13*
X328945000Y-153519999D03*
D12*
X331485000Y-158599999D03*
%TD*%
D16*
%TO.C,C73*%
X306000000Y-141537500D03*
X306000000Y-139462500D03*
%TD*%
D12*
%TO.C,SW83*%
X321325000Y-177649999D03*
D13*
X322595000Y-175109999D03*
D14*
X326405000Y-177649999D03*
D13*
X328945000Y-172569999D03*
D12*
X331485000Y-177649999D03*
%TD*%
D16*
%TO.C,C79*%
X151000000Y-160537500D03*
X151000000Y-158462500D03*
%TD*%
D12*
%TO.C,SW69*%
X230837500Y-158599999D03*
D13*
X232107500Y-156059999D03*
D14*
X235917500Y-158599999D03*
D13*
X238457500Y-153519999D03*
D12*
X240997500Y-158599999D03*
%TD*%
D15*
%TO.C,D58*%
X275000000Y-147650000D03*
X275000000Y-144350000D03*
%TD*%
D12*
%TO.C,SW54*%
X202262500Y-139549999D03*
D13*
X203532500Y-137009999D03*
D14*
X207342500Y-139549999D03*
D13*
X209882500Y-134469999D03*
D12*
X212422500Y-139549999D03*
%TD*%
D25*
%TO.C,C75*%
X63500000Y-160500000D03*
X63500000Y-158675000D03*
%TD*%
D16*
%TO.C,C13*%
X70000000Y-84500000D03*
X70000000Y-82425000D03*
%TD*%
D12*
%TO.C,SW34*%
X102250000Y-120500000D03*
D13*
X103520000Y-117960000D03*
D14*
X107330000Y-120500000D03*
D13*
X109870000Y-115420000D03*
D12*
X112410000Y-120500000D03*
%TD*%
D16*
%TO.C,C83*%
X227500000Y-160537500D03*
X227500000Y-158462500D03*
%TD*%
D15*
%TO.C,D23*%
X165500000Y-109650000D03*
X165500000Y-106350000D03*
%TD*%
D22*
%TO.C,R3*%
X82175000Y-68500000D03*
X84000000Y-68500000D03*
%TD*%
D12*
%TO.C,SW21*%
X130825000Y-101450000D03*
D13*
X132095000Y-98910000D03*
D14*
X135905000Y-101450000D03*
D13*
X138445000Y-96370000D03*
D12*
X140985000Y-101450000D03*
%TD*%
D16*
%TO.C,C91*%
X101000000Y-179575000D03*
X101000000Y-177500000D03*
%TD*%
D23*
%TO.C,REF\u002A\u002A*%
X131148750Y-170664999D03*
D24*
X131148750Y-185874999D03*
D23*
X231148750Y-170664999D03*
D24*
X231148750Y-185874999D03*
%TD*%
D12*
%TO.C,SW33*%
X83200000Y-120500000D03*
D13*
X84470000Y-117960000D03*
D14*
X88280000Y-120500000D03*
D13*
X90820000Y-115420000D03*
D12*
X93360000Y-120500000D03*
%TD*%
D15*
%TO.C,D21*%
X127500000Y-109650000D03*
X127500000Y-106350000D03*
%TD*%
D26*
%TO.C,U2*%
X86225000Y-65050000D03*
X86225000Y-65700000D03*
X86225000Y-66350000D03*
X86225000Y-67000000D03*
X86225000Y-67650000D03*
X86225000Y-68300000D03*
X86225000Y-68950000D03*
X91950000Y-68950000D03*
X91950000Y-68300000D03*
X91950000Y-67650000D03*
X91950000Y-67000000D03*
X91950000Y-66350000D03*
X91950000Y-65700000D03*
X91950000Y-65050000D03*
%TD*%
D12*
%TO.C,SW38*%
X178450000Y-120500000D03*
D13*
X179720000Y-117960000D03*
D14*
X183530000Y-120500000D03*
D13*
X186070000Y-115420000D03*
D12*
X188610000Y-120500000D03*
%TD*%
D15*
%TO.C,D44*%
X289000000Y-128650000D03*
X289000000Y-125350000D03*
%TD*%
D16*
%TO.C,C77*%
X113000000Y-160537500D03*
X113000000Y-158462500D03*
%TD*%
D11*
%TO.C,C18*%
X219000000Y-67500000D03*
X221075000Y-67500000D03*
%TD*%
D16*
%TO.C,C37*%
X165500000Y-103037500D03*
X165500000Y-100962500D03*
%TD*%
D12*
%TO.C,SW47*%
X61768750Y-139549999D03*
D13*
X63038750Y-137009999D03*
D14*
X66848750Y-139549999D03*
D13*
X69388750Y-134469999D03*
D12*
X71928750Y-139549999D03*
%TD*%
D27*
%TO.C,C_RF1*%
X95500000Y-69500000D03*
X97400000Y-69500000D03*
%TD*%
D12*
%TO.C,SW14*%
X302275000Y-82400000D03*
D13*
X303545000Y-79860000D03*
D14*
X307355000Y-82400000D03*
D13*
X309895000Y-77320000D03*
D12*
X312435000Y-82400000D03*
%TD*%
D15*
%TO.C,D50*%
X122500000Y-147150000D03*
X122500000Y-143850000D03*
%TD*%
D12*
%TO.C,SW2*%
X73674999Y-82400000D03*
D13*
X74944999Y-79860000D03*
D14*
X78754999Y-82400000D03*
D13*
X81294999Y-77320000D03*
D12*
X83834999Y-82400000D03*
%TD*%
D15*
%TO.C,D2*%
X70000000Y-90150000D03*
X70000000Y-86850000D03*
%TD*%
D12*
%TO.C,SW82*%
X302275000Y-177649999D03*
D13*
X303545000Y-175109999D03*
D14*
X307355000Y-177649999D03*
D13*
X309895000Y-172569999D03*
D12*
X312435000Y-177649999D03*
%TD*%
%TO.C,SW62*%
X97487500Y-158599999D03*
D13*
X98757500Y-156059999D03*
D14*
X102567500Y-158599999D03*
D13*
X105107500Y-153519999D03*
D12*
X107647500Y-158599999D03*
%TD*%
%TO.C,SW75*%
X57006250Y-177649999D03*
D13*
X58276250Y-175109999D03*
D14*
X62086250Y-177649999D03*
D13*
X64626250Y-172569999D03*
D12*
X67166250Y-177649999D03*
%TD*%
%TO.C,SW49*%
X107012500Y-139549999D03*
D13*
X108282500Y-137009999D03*
D14*
X112092500Y-139549999D03*
D13*
X114632500Y-134469999D03*
D12*
X117172500Y-139549999D03*
%TD*%
D11*
%TO.C,C2*%
X87550000Y-59000000D03*
X89625000Y-59000000D03*
%TD*%
D15*
%TO.C,D33*%
X79500000Y-128650000D03*
X79500000Y-125350000D03*
%TD*%
D16*
%TO.C,C86*%
X291500000Y-160537500D03*
X291500000Y-158462500D03*
%TD*%
%TO.C,C70*%
X237000000Y-141537500D03*
X237000000Y-139462500D03*
%TD*%
%TO.C,C51*%
X156000000Y-122537500D03*
X156000000Y-120462500D03*
%TD*%
D12*
%TO.C,SW51*%
X145112499Y-139549999D03*
D13*
X146382499Y-137009999D03*
D14*
X150192499Y-139549999D03*
D13*
X152732499Y-134469999D03*
D12*
X155272499Y-139549999D03*
%TD*%
%TO.C,SW79*%
X245125000Y-177649999D03*
D13*
X246395000Y-175109999D03*
D14*
X250205000Y-177649999D03*
D13*
X252745000Y-172569999D03*
D12*
X255285000Y-177649999D03*
%TD*%
D15*
%TO.C,D16*%
X337000000Y-90650000D03*
X337000000Y-87350000D03*
%TD*%
D12*
%TO.C,SW17*%
X54625000Y-101450000D03*
D13*
X55895000Y-98910000D03*
D14*
X59705000Y-101450000D03*
D13*
X62245000Y-96370000D03*
D12*
X64785000Y-101450000D03*
%TD*%
D16*
%TO.C,C36*%
X146500000Y-103537500D03*
X146500000Y-101462500D03*
%TD*%
%TO.C,C93*%
X241500000Y-180037500D03*
X241500000Y-177962500D03*
%TD*%
%TO.C,C42*%
X261000000Y-103537500D03*
X261000000Y-101462500D03*
%TD*%
D28*
%TO.C,U4*%
X210000000Y-59100000D03*
X210000000Y-60050000D03*
X210000000Y-61000000D03*
X212275000Y-61000000D03*
X212275000Y-59100000D03*
%TD*%
D15*
%TO.C,D61*%
X63000000Y-166150000D03*
X63000000Y-162850000D03*
%TD*%
D12*
%TO.C,SW59*%
X309418750Y-139549999D03*
D13*
X310688750Y-137009999D03*
D14*
X314498750Y-139549999D03*
D13*
X317038750Y-134469999D03*
D12*
X319578750Y-139549999D03*
%TD*%
%TO.C,SW68*%
X211787500Y-158599999D03*
D13*
X213057500Y-156059999D03*
D14*
X216867500Y-158599999D03*
D13*
X219407500Y-153519999D03*
D12*
X221947500Y-158599999D03*
%TD*%
D15*
%TO.C,D37*%
X156000000Y-128650000D03*
X156000000Y-125350000D03*
%TD*%
%TO.C,D15*%
X318000000Y-90650000D03*
X318000000Y-87350000D03*
%TD*%
D16*
%TO.C,C34*%
X108500000Y-103575000D03*
X108500000Y-101500000D03*
%TD*%
D12*
%TO.C,SW74*%
X340375000Y-158599999D03*
D13*
X341645000Y-156059999D03*
D14*
X345455000Y-158599999D03*
D13*
X347995000Y-153519999D03*
D12*
X350535000Y-158599999D03*
%TD*%
D15*
%TO.C,D12*%
X261000000Y-90150000D03*
X261000000Y-86850000D03*
%TD*%
%TO.C,D62*%
X94000000Y-166650000D03*
X94000000Y-163350000D03*
%TD*%
%TO.C,D7*%
X165500000Y-90800000D03*
X165500000Y-87500000D03*
%TD*%
D16*
%TO.C,C24*%
X222500000Y-84537500D03*
X222500000Y-82462500D03*
%TD*%
D12*
%TO.C,SW4*%
X111775000Y-82400000D03*
D13*
X113045000Y-79860000D03*
D14*
X116855000Y-82400000D03*
D13*
X119395000Y-77320000D03*
D12*
X121935000Y-82400000D03*
%TD*%
D15*
%TO.C,D30*%
X308200000Y-109650000D03*
X308200000Y-106350000D03*
%TD*%
D16*
%TO.C,C14*%
X89000000Y-84575000D03*
X89000000Y-82500000D03*
%TD*%
D12*
%TO.C,SW66*%
X173687500Y-158599999D03*
D13*
X174957500Y-156059999D03*
D14*
X178767500Y-158599999D03*
D13*
X181307500Y-153519999D03*
D12*
X183847500Y-158599999D03*
%TD*%
%TO.C,SW67*%
X192737500Y-158599999D03*
D13*
X194007500Y-156059999D03*
D14*
X197817500Y-158599999D03*
D13*
X200357500Y-153519999D03*
D12*
X202897500Y-158599999D03*
%TD*%
D15*
%TO.C,D63*%
X113000000Y-166150000D03*
X113000000Y-162850000D03*
%TD*%
D12*
%TO.C,SW57*%
X259412500Y-139549999D03*
D13*
X260682500Y-137009999D03*
D14*
X264492500Y-139549999D03*
D13*
X267032500Y-134469999D03*
D12*
X269572500Y-139549999D03*
%TD*%
D15*
%TO.C,D39*%
X194000000Y-128650000D03*
X194000000Y-125350000D03*
%TD*%
D16*
%TO.C,C78*%
X132000000Y-160537500D03*
X132000000Y-158462500D03*
%TD*%
D12*
%TO.C,SW6*%
X149874999Y-82400000D03*
D13*
X151144999Y-79860000D03*
D14*
X154954999Y-82400000D03*
D13*
X157494999Y-77320000D03*
D12*
X160034999Y-82400000D03*
%TD*%
D15*
%TO.C,D56*%
X237000000Y-147650000D03*
X237000000Y-144350000D03*
%TD*%
D16*
%TO.C,C76*%
X94000000Y-160537500D03*
X94000000Y-158462500D03*
%TD*%
D15*
%TO.C,D29*%
X279500000Y-109650000D03*
X279500000Y-106350000D03*
%TD*%
D22*
%TO.C,R5*%
X332490000Y-59500000D03*
X334315000Y-59500000D03*
%TD*%
D15*
%TO.C,D11*%
X241500000Y-90650000D03*
X241500000Y-87350000D03*
%TD*%
D16*
%TO.C,C53*%
X194000000Y-122537500D03*
X194000000Y-120462500D03*
%TD*%
D12*
%TO.C,SW31*%
X340375000Y-101450000D03*
D13*
X341645000Y-98910000D03*
D14*
X345455000Y-101450000D03*
D13*
X347995000Y-96370000D03*
D12*
X350535000Y-101450000D03*
%TD*%
D15*
%TO.C,D34*%
X98500000Y-128650000D03*
X98500000Y-125350000D03*
%TD*%
D12*
%TO.C,SW13*%
X283225000Y-82400000D03*
D13*
X284495000Y-79860000D03*
D14*
X288305000Y-82400000D03*
D13*
X290845000Y-77320000D03*
D12*
X293385000Y-82400000D03*
%TD*%
D29*
%TO.C,BTN1*%
X93450000Y-57200000D03*
X97550000Y-57200000D03*
X93450000Y-58800000D03*
X97550000Y-58800000D03*
%TD*%
D12*
%TO.C,SW12*%
X264175000Y-82400000D03*
D13*
X265445000Y-79860000D03*
D14*
X269255000Y-82400000D03*
D13*
X271795000Y-77320000D03*
D12*
X274335000Y-82400000D03*
%TD*%
%TO.C,SW5*%
X130825000Y-82400000D03*
D13*
X132095000Y-79860000D03*
D14*
X135905000Y-82400000D03*
D13*
X138445000Y-77320000D03*
D12*
X140985000Y-82400000D03*
%TD*%
%TO.C,SW22*%
X149874999Y-101450000D03*
D13*
X151144999Y-98910000D03*
D14*
X154954999Y-101450000D03*
D13*
X157494999Y-96370000D03*
D12*
X160034999Y-101450000D03*
%TD*%
D15*
%TO.C,D77*%
X101000000Y-185650000D03*
X101000000Y-182350000D03*
%TD*%
%TO.C,D49*%
X103500000Y-147650000D03*
X103500000Y-144350000D03*
%TD*%
%TO.C,D69*%
X227500000Y-166650000D03*
X227500000Y-163350000D03*
%TD*%
%TO.C,D4*%
X108500000Y-90650000D03*
X108500000Y-87350000D03*
%TD*%
D12*
%TO.C,SW60*%
X340375000Y-139549999D03*
D13*
X341645000Y-137009999D03*
D14*
X345455000Y-139549999D03*
D13*
X347995000Y-134469999D03*
D12*
X350535000Y-139549999D03*
%TD*%
D15*
%TO.C,D73*%
X318000000Y-166150000D03*
X318000000Y-162850000D03*
%TD*%
D30*
%TO.C,J1*%
X203750000Y-55925000D03*
X197970000Y-55925000D03*
D31*
X204060000Y-57000000D03*
X203260000Y-57000000D03*
D32*
X202110000Y-57000000D03*
X201110000Y-57000000D03*
X200610000Y-57000000D03*
X199610000Y-57000000D03*
D31*
X198460000Y-57000000D03*
X197660000Y-57000000D03*
X197660000Y-57000000D03*
X198460000Y-57000000D03*
D32*
X199110000Y-57000000D03*
X200110000Y-57000000D03*
X201610000Y-57000000D03*
X202610000Y-57000000D03*
D31*
X203260000Y-57000000D03*
X204060000Y-57000000D03*
D33*
X205180000Y-56425000D03*
D34*
X205180000Y-52245000D03*
D33*
X196540000Y-56425000D03*
D34*
X196540000Y-52245000D03*
%TD*%
D16*
%TO.C,C28*%
X299000000Y-84537500D03*
X299000000Y-82462500D03*
%TD*%
%TO.C,C69*%
X218000000Y-141537500D03*
X218000000Y-139462500D03*
%TD*%
D15*
%TO.C,D65*%
X151000000Y-166650000D03*
X151000000Y-163350000D03*
%TD*%
D12*
%TO.C,SW42*%
X254650000Y-120500000D03*
D13*
X255920000Y-117960000D03*
D14*
X259730000Y-120500000D03*
D13*
X262270000Y-115420000D03*
D12*
X264810000Y-120500000D03*
%TD*%
D15*
%TO.C,D40*%
X213000000Y-128500000D03*
X213000000Y-125200000D03*
%TD*%
D12*
%TO.C,SW24*%
X187975000Y-101450000D03*
D13*
X189245000Y-98910000D03*
D14*
X193055000Y-101450000D03*
D13*
X195595000Y-96370000D03*
D12*
X198135000Y-101450000D03*
%TD*%
D16*
%TO.C,C31*%
X51500000Y-103537500D03*
X51500000Y-101462500D03*
%TD*%
D12*
%TO.C,SW23*%
X168925000Y-101450000D03*
D13*
X170195000Y-98910000D03*
D14*
X174005000Y-101450000D03*
D13*
X176545000Y-96370000D03*
D12*
X179085000Y-101450000D03*
%TD*%
D16*
%TO.C,C29*%
X318000000Y-84537500D03*
X318000000Y-82462500D03*
%TD*%
D12*
%TO.C,SW77*%
X104631250Y-177649999D03*
D13*
X105901250Y-175109999D03*
D14*
X109711250Y-177649999D03*
D13*
X112251250Y-172569999D03*
D12*
X114791250Y-177649999D03*
%TD*%
D15*
%TO.C,D19*%
X89000000Y-109650000D03*
X89000000Y-106350000D03*
%TD*%
D16*
%TO.C,C82*%
X208000000Y-160537500D03*
X208000000Y-158462500D03*
%TD*%
D28*
%TO.C,D_ESD1*%
X193362500Y-66550000D03*
X193362500Y-67500000D03*
X193362500Y-68450000D03*
X195637500Y-68450000D03*
X195637500Y-67500000D03*
X195637500Y-66550000D03*
%TD*%
D12*
%TO.C,SW63*%
X116537500Y-158599999D03*
D13*
X117807500Y-156059999D03*
D14*
X121617500Y-158599999D03*
D13*
X124157500Y-153519999D03*
D12*
X126697500Y-158599999D03*
%TD*%
D15*
%TO.C,D67*%
X189000000Y-166500000D03*
X189000000Y-163200000D03*
%TD*%
D22*
%TO.C,R_RST1*%
X326087500Y-65000000D03*
X327912500Y-65000000D03*
%TD*%
D15*
%TO.C,D48*%
X84500000Y-147500000D03*
X84500000Y-144200000D03*
%TD*%
%TO.C,D78*%
X172500000Y-185500000D03*
X172500000Y-182200000D03*
%TD*%
D12*
%TO.C,SW53*%
X183212500Y-139549999D03*
D13*
X184482500Y-137009999D03*
D14*
X188292500Y-139549999D03*
D13*
X190832500Y-134469999D03*
D12*
X193372500Y-139549999D03*
%TD*%
D16*
%TO.C,C43*%
X279500000Y-103537500D03*
X279500000Y-101462500D03*
%TD*%
D12*
%TO.C,SW65*%
X154637500Y-158599999D03*
D13*
X155907500Y-156059999D03*
D14*
X159717500Y-158599999D03*
D13*
X162257500Y-153519999D03*
D12*
X164797500Y-158599999D03*
%TD*%
D16*
%TO.C,C33*%
X89500000Y-103537500D03*
X89500000Y-101462500D03*
%TD*%
D12*
%TO.C,SW76*%
X80818750Y-177649999D03*
D13*
X82088750Y-175109999D03*
D14*
X85898750Y-177649999D03*
D13*
X88438750Y-172569999D03*
D12*
X90978750Y-177649999D03*
%TD*%
D16*
%TO.C,C74*%
X337000000Y-141537500D03*
X337000000Y-139462500D03*
%TD*%
%TO.C,C26*%
X261000000Y-84575000D03*
X261000000Y-82500000D03*
%TD*%
D12*
%TO.C,SW80*%
X264175000Y-177649999D03*
D13*
X265445000Y-175109999D03*
D14*
X269255000Y-177649999D03*
D13*
X271795000Y-172569999D03*
D12*
X274335000Y-177649999D03*
%TD*%
%TO.C,SW28*%
X264175000Y-101450000D03*
D13*
X265445000Y-98910000D03*
D14*
X269255000Y-101450000D03*
D13*
X271795000Y-96370000D03*
D12*
X274335000Y-101450000D03*
%TD*%
D15*
%TO.C,D76*%
X77500000Y-185650000D03*
X77500000Y-182350000D03*
%TD*%
D12*
%TO.C,SW41*%
X235600000Y-120500000D03*
D13*
X236870000Y-117960000D03*
D14*
X240680000Y-120500000D03*
D13*
X243220000Y-115420000D03*
D12*
X245760000Y-120500000D03*
%TD*%
D16*
%TO.C,C54*%
X213000000Y-122537500D03*
X213000000Y-120462500D03*
%TD*%
D12*
%TO.C,SW16*%
X340375000Y-82400000D03*
D13*
X341645000Y-79860000D03*
D14*
X345455000Y-82400000D03*
D13*
X347995000Y-77320000D03*
D12*
X350535000Y-82400000D03*
%TD*%
%TO.C,SW35*%
X121300000Y-120500000D03*
D13*
X122570000Y-117960000D03*
D14*
X126380000Y-120500000D03*
D13*
X128920000Y-115420000D03*
D12*
X131460000Y-120500000D03*
%TD*%
D15*
%TO.C,D6*%
X146500000Y-90500000D03*
X146500000Y-87200000D03*
%TD*%
%TO.C,D75*%
X53500000Y-185650000D03*
X53500000Y-182350000D03*
%TD*%
D16*
%TO.C,C84*%
X246500000Y-160537500D03*
X246500000Y-158462500D03*
%TD*%
D35*
%TO.C,F1*%
X201600000Y-67500000D03*
X204400000Y-67500000D03*
%TD*%
D16*
%TO.C,C22*%
X184500000Y-84537500D03*
X184500000Y-82462500D03*
%TD*%
%TO.C,C98*%
X337000000Y-180037500D03*
X337000000Y-177962500D03*
%TD*%
D15*
%TO.C,D35*%
X117500000Y-128650000D03*
X117500000Y-125350000D03*
%TD*%
D12*
%TO.C,SW70*%
X249887500Y-158599999D03*
D13*
X251157500Y-156059999D03*
D14*
X254967500Y-158599999D03*
D13*
X257507500Y-153519999D03*
D12*
X260047500Y-158599999D03*
%TD*%
D16*
%TO.C,C52*%
X175000000Y-122575000D03*
X175000000Y-120500000D03*
%TD*%
%TO.C,C94*%
X260500000Y-179575000D03*
X260500000Y-177500000D03*
%TD*%
D12*
%TO.C,SW1*%
X54625000Y-82400000D03*
D13*
X55895000Y-79860000D03*
D14*
X59705000Y-82400000D03*
D13*
X62245000Y-77320000D03*
D12*
X64785000Y-82400000D03*
%TD*%
%TO.C,SW8*%
X187975000Y-82400000D03*
D13*
X189245000Y-79860000D03*
D14*
X193055000Y-82400000D03*
D13*
X195595000Y-77320000D03*
D12*
X198135000Y-82400000D03*
%TD*%
D16*
%TO.C,C67*%
X179500000Y-141537500D03*
X179500000Y-139462500D03*
%TD*%
D12*
%TO.C,SW56*%
X240362500Y-139549999D03*
D13*
X241632500Y-137009999D03*
D14*
X245442500Y-139549999D03*
D13*
X247982500Y-134469999D03*
D12*
X250522500Y-139549999D03*
%TD*%
%TO.C,SW15*%
X321325000Y-82400000D03*
D13*
X322595000Y-79860000D03*
D14*
X326405000Y-82400000D03*
D13*
X328945000Y-77320000D03*
D12*
X331485000Y-82400000D03*
%TD*%
%TO.C,SW48*%
X87962500Y-139549999D03*
D13*
X89232500Y-137009999D03*
D14*
X93042500Y-139549999D03*
D13*
X95582500Y-134469999D03*
D12*
X98122500Y-139549999D03*
%TD*%
%TO.C,SW64*%
X135587500Y-158599999D03*
D13*
X136857500Y-156059999D03*
D14*
X140667500Y-158599999D03*
D13*
X143207500Y-153519999D03*
D12*
X145747500Y-158599999D03*
%TD*%
D36*
%TO.C,U3*%
X212525000Y-68500000D03*
X212525000Y-68000000D03*
X212525000Y-67500000D03*
X212525000Y-67000000D03*
X209625000Y-67000000D03*
X209625000Y-67500000D03*
X209625000Y-68000000D03*
X209625000Y-68500000D03*
D37*
X211075000Y-67750000D03*
%TD*%
D12*
%TO.C,SW61*%
X66531250Y-158599999D03*
D13*
X67801250Y-156059999D03*
D14*
X71611250Y-158599999D03*
D13*
X74151250Y-153519999D03*
D12*
X76691250Y-158599999D03*
%TD*%
D15*
%TO.C,D5*%
X127500000Y-90500000D03*
X127500000Y-87200000D03*
%TD*%
D16*
%TO.C,C81*%
X189000000Y-160537500D03*
X189000000Y-158462500D03*
%TD*%
D15*
%TO.C,D46*%
X337000000Y-128650000D03*
X337000000Y-125350000D03*
%TD*%
D16*
%TO.C,C40*%
X222500000Y-103575000D03*
X222500000Y-101500000D03*
%TD*%
D15*
%TO.C,D10*%
X222500000Y-90650000D03*
X222500000Y-87350000D03*
%TD*%
%TO.C,D55*%
X218000000Y-147650000D03*
X218000000Y-144350000D03*
%TD*%
D12*
%TO.C,SW9*%
X207025000Y-82400000D03*
D13*
X208295000Y-79860000D03*
D14*
X212105000Y-82400000D03*
D13*
X214645000Y-77320000D03*
D12*
X217185000Y-82400000D03*
%TD*%
D38*
%TO.C,U1*%
X47300000Y-70620000D03*
X49840000Y-70620000D03*
X52380000Y-70620000D03*
X54920000Y-70620000D03*
X57460000Y-70620000D03*
X60000000Y-70620000D03*
X62540000Y-70620000D03*
X65080000Y-70620000D03*
X67620000Y-70620000D03*
X70160000Y-70620000D03*
X72700000Y-70620000D03*
X75240000Y-70620000D03*
X75240000Y-55380000D03*
X72700000Y-55380000D03*
X70160000Y-55380000D03*
X67620000Y-55380000D03*
X65080000Y-55380000D03*
X62540000Y-55380000D03*
X60000000Y-55380000D03*
X57460000Y-55380000D03*
X54920000Y-55380000D03*
X52380000Y-55380000D03*
X49840000Y-55380000D03*
X47300000Y-55380000D03*
X70160000Y-68080000D03*
X70160000Y-65540000D03*
X70160000Y-63000000D03*
%TD*%
D12*
%TO.C,SW43*%
X273700000Y-120500000D03*
D13*
X274970000Y-117960000D03*
D14*
X278780000Y-120500000D03*
D13*
X281320000Y-115420000D03*
D12*
X283860000Y-120500000D03*
%TD*%
D16*
%TO.C,C57*%
X270000000Y-122537500D03*
X270000000Y-120462500D03*
%TD*%
D11*
%TO.C,C16*%
X218982500Y-56500000D03*
X221057500Y-56500000D03*
%TD*%
D12*
%TO.C,SW52*%
X164162500Y-139549999D03*
D13*
X165432500Y-137009999D03*
D14*
X169242500Y-139549999D03*
D13*
X171782500Y-134469999D03*
D12*
X174322500Y-139549999D03*
%TD*%
D15*
%TO.C,D3*%
X89150000Y-90650000D03*
X89150000Y-87350000D03*
%TD*%
D16*
%TO.C,C49*%
X118000000Y-122537500D03*
X118000000Y-120462500D03*
%TD*%
%TO.C,C68*%
X198500000Y-141537500D03*
X198500000Y-139462500D03*
%TD*%
D22*
%TO.C,R4*%
X332587500Y-64500000D03*
X334412500Y-64500000D03*
%TD*%
D15*
%TO.C,D26*%
X222500000Y-109650000D03*
X222500000Y-106350000D03*
%TD*%
D12*
%TO.C,SW45*%
X316562500Y-120500000D03*
D13*
X317832500Y-117960000D03*
D14*
X321642500Y-120500000D03*
D13*
X324182500Y-115420000D03*
D12*
X326722500Y-120500000D03*
%TD*%
D16*
%TO.C,C62*%
X84500000Y-141075000D03*
X84500000Y-139000000D03*
%TD*%
%TO.C,C80*%
X170000000Y-160575000D03*
X170000000Y-158500000D03*
%TD*%
D12*
%TO.C,SW40*%
X216550000Y-120500000D03*
D13*
X217820000Y-117960000D03*
D14*
X221630000Y-120500000D03*
D13*
X224170000Y-115420000D03*
D12*
X226710000Y-120500000D03*
%TD*%
D16*
%TO.C,C21*%
X165500000Y-84500000D03*
X165500000Y-82425000D03*
%TD*%
%TO.C,C25*%
X241500000Y-84575000D03*
X241500000Y-82500000D03*
%TD*%
D15*
%TO.C,D25*%
X203500000Y-109500000D03*
X203500000Y-106200000D03*
%TD*%
D22*
%TO.C,R8*%
X189500000Y-61500000D03*
X191325000Y-61500000D03*
%TD*%
D12*
%TO.C,SW30*%
X311800000Y-101450000D03*
D13*
X313070000Y-98910000D03*
D14*
X316880000Y-101450000D03*
D13*
X319420000Y-96370000D03*
D12*
X321960000Y-101450000D03*
%TD*%
D16*
%TO.C,C90*%
X77000000Y-179537500D03*
X77000000Y-177462500D03*
%TD*%
D11*
%TO.C,C3*%
X95412500Y-64000000D03*
X97487500Y-64000000D03*
%TD*%
D12*
%TO.C,SW11*%
X245125000Y-82400000D03*
D13*
X246395000Y-79860000D03*
D14*
X250205000Y-82400000D03*
D13*
X252745000Y-77320000D03*
D12*
X255285000Y-82400000D03*
%TD*%
%TO.C,SW26*%
X226075000Y-101450000D03*
D13*
X227345000Y-98910000D03*
D14*
X231155000Y-101450000D03*
D13*
X233695000Y-96370000D03*
D12*
X236235000Y-101450000D03*
%TD*%
D16*
%TO.C,C41*%
X241500000Y-103537500D03*
X241500000Y-101462500D03*
%TD*%
D12*
%TO.C,SW50*%
X126062500Y-139549999D03*
D13*
X127332500Y-137009999D03*
D14*
X131142500Y-139549999D03*
D13*
X133682500Y-134469999D03*
D12*
X136222500Y-139549999D03*
%TD*%
D16*
%TO.C,C46*%
X56000000Y-122575000D03*
X56000000Y-120500000D03*
%TD*%
D15*
%TO.C,D53*%
X179500000Y-147150000D03*
X179500000Y-143850000D03*
%TD*%
D16*
%TO.C,C59*%
X313000000Y-122575000D03*
X313000000Y-120500000D03*
%TD*%
D12*
%TO.C,SW84*%
X340375000Y-177649999D03*
D13*
X341645000Y-175109999D03*
D14*
X345455000Y-177649999D03*
D13*
X347995000Y-172569999D03*
D12*
X350535000Y-177649999D03*
%TD*%
D16*
%TO.C,C20*%
X146500000Y-84500000D03*
X146500000Y-82425000D03*
%TD*%
%TO.C,C66*%
X160500000Y-141575000D03*
X160500000Y-139500000D03*
%TD*%
D15*
%TO.C,D36*%
X136500000Y-128800000D03*
X136500000Y-125500000D03*
%TD*%
%TO.C,D45*%
X313000000Y-128650000D03*
X313000000Y-125350000D03*
%TD*%
D12*
%TO.C,SW10*%
X226075000Y-82400000D03*
D13*
X227345000Y-79860000D03*
D14*
X231155000Y-82400000D03*
D13*
X233695000Y-77320000D03*
D12*
X236235000Y-82400000D03*
%TD*%
D15*
%TO.C,D14*%
X299000000Y-90650000D03*
X299000000Y-87350000D03*
%TD*%
D16*
%TO.C,C88*%
X337000000Y-160537500D03*
X337000000Y-158462500D03*
%TD*%
D12*
%TO.C,SW78*%
X176068750Y-177649999D03*
D13*
X177338750Y-175109999D03*
D14*
X181148750Y-177649999D03*
D13*
X183688750Y-172569999D03*
D12*
X186228750Y-177649999D03*
%TD*%
D16*
%TO.C,C47*%
X79500000Y-122537500D03*
X79500000Y-120462500D03*
%TD*%
%TO.C,C38*%
X184500000Y-103575000D03*
X184500000Y-101500000D03*
%TD*%
%TO.C,C50*%
X137000000Y-122575000D03*
X137000000Y-120500000D03*
%TD*%
D15*
%TO.C,D18*%
X70500000Y-109650000D03*
X70500000Y-106350000D03*
%TD*%
D16*
%TO.C,C87*%
X317500000Y-160537500D03*
X317500000Y-158462500D03*
%TD*%
D15*
%TO.C,D32*%
X56000000Y-128650000D03*
X56000000Y-125350000D03*
%TD*%
D39*
%TO.C,J2*%
X326500000Y-57800000D03*
D40*
X324500000Y-57800000D03*
%TD*%
M02*
