%TF.GenerationSoftware,KiCad,Pcbnew,10.0.0*%
%TF.CreationDate,2026-05-02T13:29:56+05:00*%
%TF.ProjectId,Ghoost Board,47686f6f-7374-4204-926f-6172642e6b69,rev?*%
%TF.SameCoordinates,Original*%
%TF.FileFunction,Soldermask,Bot*%
%TF.FilePolarity,Negative*%
%FSLAX46Y46*%
G04 Gerber Fmt 4.6, Leading zero omitted, Abs format (unit mm)*
G04 Created by KiCad (PCBNEW 10.0.0) date 2026-05-02 13:29:56*
%MOMM*%
%LPD*%
G01*
G04 APERTURE LIST*
G04 Aperture macros list*
%AMRoundRect*
0 Rectangle with rounded corners*
0 $1 Rounding radius*
0 $2 $3 $4 $5 $6 $7 $8 $9 X,Y pos of 4 corners*
0 Add a 4 corners polygon primitive as box body*
4,1,4,$2,$3,$4,$5,$6,$7,$8,$9,$2,$3,0*
0 Add four circle primitives for the rounded corners*
1,1,$1+$1,$2,$3*
1,1,$1+$1,$4,$5*
1,1,$1+$1,$6,$7*
1,1,$1+$1,$8,$9*
0 Add four rect primitives between the rounded corners*
20,1,$1+$1,$2,$3,$4,$5,0*
20,1,$1+$1,$4,$5,$6,$7,0*
20,1,$1+$1,$6,$7,$8,$9,0*
20,1,$1+$1,$8,$9,$2,$3,0*%
G04 Aperture macros list end*
%ADD10C,3.200000*%
%ADD11C,1.750000*%
%ADD12C,3.050000*%
%ADD13C,4.000000*%
%ADD14RoundRect,0.250000X-1.025000X-1.000000X1.025000X-1.000000X1.025000X1.000000X-1.025000X1.000000X0*%
%ADD15O,2.200000X1.600000*%
%ADD16C,2.100000*%
%ADD17R,2.000000X2.000000*%
%ADD18C,2.000000*%
%ADD19R,3.200000X2.000000*%
%ADD20C,3.048000*%
%ADD21C,3.987800*%
%ADD22C,0.650000*%
%ADD23O,1.000000X2.100000*%
%ADD24O,1.000000X1.800000*%
%ADD25C,1.752600*%
%ADD26RoundRect,0.250000X0.350000X0.625000X-0.350000X0.625000X-0.350000X-0.625000X0.350000X-0.625000X0*%
%ADD27O,1.200000X1.750000*%
%ADD28RoundRect,0.205000X0.470000X0.205000X-0.470000X0.205000X-0.470000X-0.205000X0.470000X-0.205000X0*%
G04 APERTURE END LIST*
D10*
%TO.C,REF\u002A\u002A*%
X239000000Y-60000000D03*
%TD*%
%TO.C,REF\u002A\u002A*%
X171500000Y-60000000D03*
%TD*%
%TO.C,REF\u002A\u002A*%
X357000000Y-187500000D03*
%TD*%
%TO.C,REF\u002A\u002A*%
X47000000Y-187500000D03*
%TD*%
D11*
%TO.C,SW44*%
X292750000Y-120500000D03*
D12*
X294020000Y-117960000D03*
D13*
X297830000Y-120500000D03*
D12*
X300370000Y-115420000D03*
D11*
X302910000Y-120500000D03*
D14*
X290745000Y-117960000D03*
X303672000Y-115420000D03*
%TD*%
D11*
%TO.C,SW27*%
X245125000Y-101450000D03*
D12*
X246395000Y-98910000D03*
D13*
X250205000Y-101450000D03*
D12*
X252745000Y-96370000D03*
D11*
X255285000Y-101450000D03*
D14*
X243120000Y-98910000D03*
X256047000Y-96370000D03*
%TD*%
D11*
%TO.C,SW36*%
X140350000Y-120500000D03*
D12*
X141620000Y-117960000D03*
D13*
X145430000Y-120500000D03*
D12*
X147970000Y-115420000D03*
D11*
X150510000Y-120500000D03*
D14*
X138345000Y-117960000D03*
X151272000Y-115420000D03*
%TD*%
D11*
%TO.C,SW7*%
X168925000Y-82400000D03*
D12*
X170195000Y-79860000D03*
D13*
X174005000Y-82400000D03*
D12*
X176545000Y-77320000D03*
D11*
X179085000Y-82400000D03*
D14*
X166920000Y-79860000D03*
X179847000Y-77320000D03*
%TD*%
D15*
%TO.C,ENC1*%
X342000000Y-61500000D03*
D16*
X346500000Y-61500000D03*
D17*
X339000000Y-59000000D03*
D18*
X339000000Y-64000000D03*
X339000000Y-61500000D03*
D19*
X346500000Y-55900000D03*
X346500000Y-67100000D03*
D18*
X353500000Y-64000000D03*
X353500000Y-59000000D03*
%TD*%
D11*
%TO.C,SW3*%
X92725000Y-82400000D03*
D12*
X93995000Y-79860000D03*
D13*
X97805000Y-82400000D03*
D12*
X100345000Y-77320000D03*
D11*
X102885000Y-82400000D03*
D14*
X90720000Y-79860000D03*
X103647000Y-77320000D03*
%TD*%
D11*
%TO.C,SW71*%
X268937500Y-158599999D03*
D12*
X270207500Y-156059999D03*
D13*
X274017500Y-158599999D03*
D12*
X276557500Y-153519999D03*
D11*
X279097500Y-158599999D03*
D14*
X266932500Y-156059999D03*
X279859500Y-153519999D03*
%TD*%
D11*
%TO.C,SW19*%
X92725000Y-101450000D03*
D12*
X93995000Y-98910000D03*
D13*
X97805000Y-101450000D03*
D12*
X100345000Y-96370000D03*
D11*
X102885000Y-101450000D03*
D14*
X90720000Y-98910000D03*
X103647000Y-96370000D03*
%TD*%
D11*
%TO.C,SW37*%
X159400000Y-120500000D03*
D12*
X160670000Y-117960000D03*
D13*
X164480000Y-120500000D03*
D12*
X167020000Y-115420000D03*
D11*
X169560000Y-120500000D03*
D14*
X157395000Y-117960000D03*
X170322000Y-115420000D03*
%TD*%
D20*
%TO.C,REF\u002A\u002A*%
X59673250Y-151614999D03*
D21*
X59673250Y-166824999D03*
D20*
X83549250Y-151614999D03*
D21*
X83549250Y-166824999D03*
%TD*%
D11*
%TO.C,SW81*%
X283225000Y-177649999D03*
D12*
X284495000Y-175109999D03*
D13*
X288305000Y-177649999D03*
D12*
X290845000Y-172569999D03*
D11*
X293385000Y-177649999D03*
D14*
X281220000Y-175109999D03*
X294147000Y-172569999D03*
%TD*%
D11*
%TO.C,SW25*%
X207025000Y-101450000D03*
D12*
X208295000Y-98910000D03*
D13*
X212105000Y-101450000D03*
D12*
X214645000Y-96370000D03*
D11*
X217185000Y-101450000D03*
D14*
X205020000Y-98910000D03*
X217947000Y-96370000D03*
%TD*%
D11*
%TO.C,SW18*%
X73674999Y-101450000D03*
D12*
X74944999Y-98910000D03*
D13*
X78754999Y-101450000D03*
D12*
X81294999Y-96370000D03*
D11*
X83834999Y-101450000D03*
D14*
X71669999Y-98910000D03*
X84596999Y-96370000D03*
%TD*%
D11*
%TO.C,SW55*%
X221312500Y-139549999D03*
D12*
X222582500Y-137009999D03*
D13*
X226392500Y-139549999D03*
D12*
X228932500Y-134469999D03*
D11*
X231472500Y-139549999D03*
D14*
X219307500Y-137009999D03*
X232234500Y-134469999D03*
%TD*%
D20*
%TO.C,REF\u002A\u002A*%
X302560750Y-132564999D03*
D21*
X302560750Y-147774999D03*
D20*
X326436750Y-132564999D03*
D21*
X326436750Y-147774999D03*
%TD*%
D11*
%TO.C,SW39*%
X197500000Y-120500000D03*
D12*
X198770000Y-117960000D03*
D13*
X202580000Y-120500000D03*
D12*
X205120000Y-115420000D03*
D11*
X207660000Y-120500000D03*
D14*
X195495000Y-117960000D03*
X208422000Y-115420000D03*
%TD*%
D11*
%TO.C,SW58*%
X278462500Y-139549999D03*
D12*
X279732500Y-137009999D03*
D13*
X283542500Y-139549999D03*
D12*
X286082500Y-134469999D03*
D11*
X288622500Y-139549999D03*
D14*
X276457500Y-137009999D03*
X289384500Y-134469999D03*
%TD*%
D11*
%TO.C,SW20*%
X111775000Y-101450000D03*
D12*
X113045000Y-98910000D03*
D13*
X116855000Y-101450000D03*
D12*
X119395000Y-96370000D03*
D11*
X121935000Y-101450000D03*
D14*
X109770000Y-98910000D03*
X122697000Y-96370000D03*
%TD*%
D20*
%TO.C,REF\u002A\u002A*%
X304942000Y-94465000D03*
D21*
X304942000Y-109675000D03*
D20*
X328818000Y-94465000D03*
D21*
X328818000Y-109675000D03*
%TD*%
D11*
%TO.C,SW32*%
X59387500Y-120500000D03*
D12*
X60657500Y-117960000D03*
D13*
X64467500Y-120500000D03*
D12*
X67007500Y-115420000D03*
D11*
X69547500Y-120500000D03*
D14*
X57382500Y-117960000D03*
X70309500Y-115420000D03*
%TD*%
D11*
%TO.C,SW72*%
X295131250Y-158599999D03*
D12*
X296401250Y-156059999D03*
D13*
X300211250Y-158599999D03*
D12*
X302751250Y-153519999D03*
D11*
X305291250Y-158599999D03*
D14*
X293126250Y-156059999D03*
X306053250Y-153519999D03*
%TD*%
D11*
%TO.C,SW46*%
X340375000Y-120500000D03*
D12*
X341645000Y-117960000D03*
D13*
X345455000Y-120500000D03*
D12*
X347995000Y-115420000D03*
D11*
X350535000Y-120500000D03*
D14*
X338370000Y-117960000D03*
X351297000Y-115420000D03*
%TD*%
D11*
%TO.C,SW29*%
X283225000Y-101450000D03*
D12*
X284495000Y-98910000D03*
D13*
X288305000Y-101450000D03*
D12*
X290845000Y-96370000D03*
D11*
X293385000Y-101450000D03*
D14*
X281220000Y-98910000D03*
X294147000Y-96370000D03*
%TD*%
D11*
%TO.C,SW73*%
X321325000Y-158599999D03*
D12*
X322595000Y-156059999D03*
D13*
X326405000Y-158599999D03*
D12*
X328945000Y-153519999D03*
D11*
X331485000Y-158599999D03*
D14*
X319320000Y-156059999D03*
X332247000Y-153519999D03*
%TD*%
D11*
%TO.C,SW83*%
X321325000Y-177649999D03*
D12*
X322595000Y-175109999D03*
D13*
X326405000Y-177649999D03*
D12*
X328945000Y-172569999D03*
D11*
X331485000Y-177649999D03*
D14*
X319320000Y-175109999D03*
X332247000Y-172569999D03*
%TD*%
D11*
%TO.C,SW69*%
X230837500Y-158599999D03*
D12*
X232107500Y-156059999D03*
D13*
X235917500Y-158599999D03*
D12*
X238457500Y-153519999D03*
D11*
X240997500Y-158599999D03*
D14*
X228832500Y-156059999D03*
X241759500Y-153519999D03*
%TD*%
D11*
%TO.C,SW54*%
X202262500Y-139549999D03*
D12*
X203532500Y-137009999D03*
D13*
X207342500Y-139549999D03*
D12*
X209882500Y-134469999D03*
D11*
X212422500Y-139549999D03*
D14*
X200257500Y-137009999D03*
X213184500Y-134469999D03*
%TD*%
D11*
%TO.C,SW34*%
X102250000Y-120500000D03*
D12*
X103520000Y-117960000D03*
D13*
X107330000Y-120500000D03*
D12*
X109870000Y-115420000D03*
D11*
X112410000Y-120500000D03*
D14*
X100245000Y-117960000D03*
X113172000Y-115420000D03*
%TD*%
D11*
%TO.C,SW21*%
X130825000Y-101450000D03*
D12*
X132095000Y-98910000D03*
D13*
X135905000Y-101450000D03*
D12*
X138445000Y-96370000D03*
D11*
X140985000Y-101450000D03*
D14*
X128820000Y-98910000D03*
X141747000Y-96370000D03*
%TD*%
D20*
%TO.C,REF\u002A\u002A*%
X131148750Y-170664999D03*
D21*
X131148750Y-185874999D03*
D20*
X231148750Y-170664999D03*
D21*
X231148750Y-185874999D03*
%TD*%
D11*
%TO.C,SW33*%
X83200000Y-120500000D03*
D12*
X84470000Y-117960000D03*
D13*
X88280000Y-120500000D03*
D12*
X90820000Y-115420000D03*
D11*
X93360000Y-120500000D03*
D14*
X81195000Y-117960000D03*
X94122000Y-115420000D03*
%TD*%
D11*
%TO.C,SW38*%
X178450000Y-120500000D03*
D12*
X179720000Y-117960000D03*
D13*
X183530000Y-120500000D03*
D12*
X186070000Y-115420000D03*
D11*
X188610000Y-120500000D03*
D14*
X176445000Y-117960000D03*
X189372000Y-115420000D03*
%TD*%
D11*
%TO.C,SW47*%
X61768750Y-139549999D03*
D12*
X63038750Y-137009999D03*
D13*
X66848750Y-139549999D03*
D12*
X69388750Y-134469999D03*
D11*
X71928750Y-139549999D03*
D14*
X59763750Y-137009999D03*
X72690750Y-134469999D03*
%TD*%
D11*
%TO.C,SW14*%
X302275000Y-82400000D03*
D12*
X303545000Y-79860000D03*
D13*
X307355000Y-82400000D03*
D12*
X309895000Y-77320000D03*
D11*
X312435000Y-82400000D03*
D14*
X300270000Y-79860000D03*
X313197000Y-77320000D03*
%TD*%
D11*
%TO.C,SW2*%
X73674999Y-82400000D03*
D12*
X74944999Y-79860000D03*
D13*
X78754999Y-82400000D03*
D12*
X81294999Y-77320000D03*
D11*
X83834999Y-82400000D03*
D14*
X71669999Y-79860000D03*
X84596999Y-77320000D03*
%TD*%
D11*
%TO.C,SW82*%
X302275000Y-177649999D03*
D12*
X303545000Y-175109999D03*
D13*
X307355000Y-177649999D03*
D12*
X309895000Y-172569999D03*
D11*
X312435000Y-177649999D03*
D14*
X300270000Y-175109999D03*
X313197000Y-172569999D03*
%TD*%
D11*
%TO.C,SW62*%
X97487500Y-158599999D03*
D12*
X98757500Y-156059999D03*
D13*
X102567500Y-158599999D03*
D12*
X105107500Y-153519999D03*
D11*
X107647500Y-158599999D03*
D14*
X95482500Y-156059999D03*
X108409500Y-153519999D03*
%TD*%
D11*
%TO.C,SW75*%
X57006250Y-177649999D03*
D12*
X58276250Y-175109999D03*
D13*
X62086250Y-177649999D03*
D12*
X64626250Y-172569999D03*
D11*
X67166250Y-177649999D03*
D14*
X55001250Y-175109999D03*
X67928250Y-172569999D03*
%TD*%
D11*
%TO.C,SW49*%
X107012500Y-139549999D03*
D12*
X108282500Y-137009999D03*
D13*
X112092500Y-139549999D03*
D12*
X114632500Y-134469999D03*
D11*
X117172500Y-139549999D03*
D14*
X105007500Y-137009999D03*
X117934500Y-134469999D03*
%TD*%
D11*
%TO.C,SW51*%
X145112499Y-139549999D03*
D12*
X146382499Y-137009999D03*
D13*
X150192499Y-139549999D03*
D12*
X152732499Y-134469999D03*
D11*
X155272499Y-139549999D03*
D14*
X143107499Y-137009999D03*
X156034499Y-134469999D03*
%TD*%
D11*
%TO.C,SW79*%
X245125000Y-177649999D03*
D12*
X246395000Y-175109999D03*
D13*
X250205000Y-177649999D03*
D12*
X252745000Y-172569999D03*
D11*
X255285000Y-177649999D03*
D14*
X243120000Y-175109999D03*
X256047000Y-172569999D03*
%TD*%
D11*
%TO.C,SW17*%
X54625000Y-101450000D03*
D12*
X55895000Y-98910000D03*
D13*
X59705000Y-101450000D03*
D12*
X62245000Y-96370000D03*
D11*
X64785000Y-101450000D03*
D14*
X52620000Y-98910000D03*
X65547000Y-96370000D03*
%TD*%
D11*
%TO.C,SW59*%
X309418750Y-139549999D03*
D12*
X310688750Y-137009999D03*
D13*
X314498750Y-139549999D03*
D12*
X317038750Y-134469999D03*
D11*
X319578750Y-139549999D03*
D14*
X307413750Y-137009999D03*
X320340750Y-134469999D03*
%TD*%
D11*
%TO.C,SW68*%
X211787500Y-158599999D03*
D12*
X213057500Y-156059999D03*
D13*
X216867500Y-158599999D03*
D12*
X219407500Y-153519999D03*
D11*
X221947500Y-158599999D03*
D14*
X209782500Y-156059999D03*
X222709500Y-153519999D03*
%TD*%
D11*
%TO.C,SW74*%
X340375000Y-158599999D03*
D12*
X341645000Y-156059999D03*
D13*
X345455000Y-158599999D03*
D12*
X347995000Y-153519999D03*
D11*
X350535000Y-158599999D03*
D14*
X338370000Y-156059999D03*
X351297000Y-153519999D03*
%TD*%
D11*
%TO.C,SW4*%
X111775000Y-82400000D03*
D12*
X113045000Y-79860000D03*
D13*
X116855000Y-82400000D03*
D12*
X119395000Y-77320000D03*
D11*
X121935000Y-82400000D03*
D14*
X109770000Y-79860000D03*
X122697000Y-77320000D03*
%TD*%
D11*
%TO.C,SW66*%
X173687500Y-158599999D03*
D12*
X174957500Y-156059999D03*
D13*
X178767500Y-158599999D03*
D12*
X181307500Y-153519999D03*
D11*
X183847500Y-158599999D03*
D14*
X171682500Y-156059999D03*
X184609500Y-153519999D03*
%TD*%
D11*
%TO.C,SW67*%
X192737500Y-158599999D03*
D12*
X194007500Y-156059999D03*
D13*
X197817500Y-158599999D03*
D12*
X200357500Y-153519999D03*
D11*
X202897500Y-158599999D03*
D14*
X190732500Y-156059999D03*
X203659500Y-153519999D03*
%TD*%
D11*
%TO.C,SW57*%
X259412500Y-139549999D03*
D12*
X260682500Y-137009999D03*
D13*
X264492500Y-139549999D03*
D12*
X267032500Y-134469999D03*
D11*
X269572500Y-139549999D03*
D14*
X257407500Y-137009999D03*
X270334500Y-134469999D03*
%TD*%
D11*
%TO.C,SW6*%
X149874999Y-82400000D03*
D12*
X151144999Y-79860000D03*
D13*
X154954999Y-82400000D03*
D12*
X157494999Y-77320000D03*
D11*
X160034999Y-82400000D03*
D14*
X147869999Y-79860000D03*
X160796999Y-77320000D03*
%TD*%
D11*
%TO.C,SW31*%
X340375000Y-101450000D03*
D12*
X341645000Y-98910000D03*
D13*
X345455000Y-101450000D03*
D12*
X347995000Y-96370000D03*
D11*
X350535000Y-101450000D03*
D14*
X338370000Y-98910000D03*
X351297000Y-96370000D03*
%TD*%
D11*
%TO.C,SW13*%
X283225000Y-82400000D03*
D12*
X284495000Y-79860000D03*
D13*
X288305000Y-82400000D03*
D12*
X290845000Y-77320000D03*
D11*
X293385000Y-82400000D03*
D14*
X281220000Y-79860000D03*
X294147000Y-77320000D03*
%TD*%
D11*
%TO.C,SW12*%
X264175000Y-82400000D03*
D12*
X265445000Y-79860000D03*
D13*
X269255000Y-82400000D03*
D12*
X271795000Y-77320000D03*
D11*
X274335000Y-82400000D03*
D14*
X262170000Y-79860000D03*
X275097000Y-77320000D03*
%TD*%
D11*
%TO.C,SW5*%
X130825000Y-82400000D03*
D12*
X132095000Y-79860000D03*
D13*
X135905000Y-82400000D03*
D12*
X138445000Y-77320000D03*
D11*
X140985000Y-82400000D03*
D14*
X128820000Y-79860000D03*
X141747000Y-77320000D03*
%TD*%
D11*
%TO.C,SW22*%
X149874999Y-101450000D03*
D12*
X151144999Y-98910000D03*
D13*
X154954999Y-101450000D03*
D12*
X157494999Y-96370000D03*
D11*
X160034999Y-101450000D03*
D14*
X147869999Y-98910000D03*
X160796999Y-96370000D03*
%TD*%
D11*
%TO.C,SW60*%
X340375000Y-139549999D03*
D12*
X341645000Y-137009999D03*
D13*
X345455000Y-139549999D03*
D12*
X347995000Y-134469999D03*
D11*
X350535000Y-139549999D03*
D14*
X338370000Y-137009999D03*
X351297000Y-134469999D03*
%TD*%
D22*
%TO.C,J1*%
X203750000Y-55925000D03*
X197970000Y-55925000D03*
D23*
X205180000Y-56425000D03*
D24*
X205180000Y-52245000D03*
D23*
X196540000Y-56425000D03*
D24*
X196540000Y-52245000D03*
%TD*%
D11*
%TO.C,SW42*%
X254650000Y-120500000D03*
D12*
X255920000Y-117960000D03*
D13*
X259730000Y-120500000D03*
D12*
X262270000Y-115420000D03*
D11*
X264810000Y-120500000D03*
D14*
X252645000Y-117960000D03*
X265572000Y-115420000D03*
%TD*%
D11*
%TO.C,SW24*%
X187975000Y-101450000D03*
D12*
X189245000Y-98910000D03*
D13*
X193055000Y-101450000D03*
D12*
X195595000Y-96370000D03*
D11*
X198135000Y-101450000D03*
D14*
X185970000Y-98910000D03*
X198897000Y-96370000D03*
%TD*%
D11*
%TO.C,SW23*%
X168925000Y-101450000D03*
D12*
X170195000Y-98910000D03*
D13*
X174005000Y-101450000D03*
D12*
X176545000Y-96370000D03*
D11*
X179085000Y-101450000D03*
D14*
X166920000Y-98910000D03*
X179847000Y-96370000D03*
%TD*%
D11*
%TO.C,SW77*%
X104631250Y-177649999D03*
D12*
X105901250Y-175109999D03*
D13*
X109711250Y-177649999D03*
D12*
X112251250Y-172569999D03*
D11*
X114791250Y-177649999D03*
D14*
X102626250Y-175109999D03*
X115553250Y-172569999D03*
%TD*%
D11*
%TO.C,SW63*%
X116537500Y-158599999D03*
D12*
X117807500Y-156059999D03*
D13*
X121617500Y-158599999D03*
D12*
X124157500Y-153519999D03*
D11*
X126697500Y-158599999D03*
D14*
X114532500Y-156059999D03*
X127459500Y-153519999D03*
%TD*%
D11*
%TO.C,SW53*%
X183212500Y-139549999D03*
D12*
X184482500Y-137009999D03*
D13*
X188292500Y-139549999D03*
D12*
X190832500Y-134469999D03*
D11*
X193372500Y-139549999D03*
D14*
X181207500Y-137009999D03*
X194134500Y-134469999D03*
%TD*%
D11*
%TO.C,SW65*%
X154637500Y-158599999D03*
D12*
X155907500Y-156059999D03*
D13*
X159717500Y-158599999D03*
D12*
X162257500Y-153519999D03*
D11*
X164797500Y-158599999D03*
D14*
X152632500Y-156059999D03*
X165559500Y-153519999D03*
%TD*%
D11*
%TO.C,SW76*%
X80818750Y-177649999D03*
D12*
X82088750Y-175109999D03*
D13*
X85898750Y-177649999D03*
D12*
X88438750Y-172569999D03*
D11*
X90978750Y-177649999D03*
D14*
X78813750Y-175109999D03*
X91740750Y-172569999D03*
%TD*%
D11*
%TO.C,SW80*%
X264175000Y-177649999D03*
D12*
X265445000Y-175109999D03*
D13*
X269255000Y-177649999D03*
D12*
X271795000Y-172569999D03*
D11*
X274335000Y-177649999D03*
D14*
X262170000Y-175109999D03*
X275097000Y-172569999D03*
%TD*%
D11*
%TO.C,SW28*%
X264175000Y-101450000D03*
D12*
X265445000Y-98910000D03*
D13*
X269255000Y-101450000D03*
D12*
X271795000Y-96370000D03*
D11*
X274335000Y-101450000D03*
D14*
X262170000Y-98910000D03*
X275097000Y-96370000D03*
%TD*%
D11*
%TO.C,SW41*%
X235600000Y-120500000D03*
D12*
X236870000Y-117960000D03*
D13*
X240680000Y-120500000D03*
D12*
X243220000Y-115420000D03*
D11*
X245760000Y-120500000D03*
D14*
X233595000Y-117960000D03*
X246522000Y-115420000D03*
%TD*%
D11*
%TO.C,SW16*%
X340375000Y-82400000D03*
D12*
X341645000Y-79860000D03*
D13*
X345455000Y-82400000D03*
D12*
X347995000Y-77320000D03*
D11*
X350535000Y-82400000D03*
D14*
X338370000Y-79860000D03*
X351297000Y-77320000D03*
%TD*%
D11*
%TO.C,SW35*%
X121300000Y-120500000D03*
D12*
X122570000Y-117960000D03*
D13*
X126380000Y-120500000D03*
D12*
X128920000Y-115420000D03*
D11*
X131460000Y-120500000D03*
D14*
X119295000Y-117960000D03*
X132222000Y-115420000D03*
%TD*%
D11*
%TO.C,SW70*%
X249887500Y-158599999D03*
D12*
X251157500Y-156059999D03*
D13*
X254967500Y-158599999D03*
D12*
X257507500Y-153519999D03*
D11*
X260047500Y-158599999D03*
D14*
X247882500Y-156059999D03*
X260809500Y-153519999D03*
%TD*%
D11*
%TO.C,SW1*%
X54625000Y-82400000D03*
D12*
X55895000Y-79860000D03*
D13*
X59705000Y-82400000D03*
D12*
X62245000Y-77320000D03*
D11*
X64785000Y-82400000D03*
D14*
X52620000Y-79860000D03*
X65547000Y-77320000D03*
%TD*%
D11*
%TO.C,SW8*%
X187975000Y-82400000D03*
D12*
X189245000Y-79860000D03*
D13*
X193055000Y-82400000D03*
D12*
X195595000Y-77320000D03*
D11*
X198135000Y-82400000D03*
D14*
X185970000Y-79860000D03*
X198897000Y-77320000D03*
%TD*%
D11*
%TO.C,SW56*%
X240362500Y-139549999D03*
D12*
X241632500Y-137009999D03*
D13*
X245442500Y-139549999D03*
D12*
X247982500Y-134469999D03*
D11*
X250522500Y-139549999D03*
D14*
X238357500Y-137009999D03*
X251284500Y-134469999D03*
%TD*%
D11*
%TO.C,SW15*%
X321325000Y-82400000D03*
D12*
X322595000Y-79860000D03*
D13*
X326405000Y-82400000D03*
D12*
X328945000Y-77320000D03*
D11*
X331485000Y-82400000D03*
D14*
X319320000Y-79860000D03*
X332247000Y-77320000D03*
%TD*%
D11*
%TO.C,SW48*%
X87962500Y-139549999D03*
D12*
X89232500Y-137009999D03*
D13*
X93042500Y-139549999D03*
D12*
X95582500Y-134469999D03*
D11*
X98122500Y-139549999D03*
D14*
X85957500Y-137009999D03*
X98884500Y-134469999D03*
%TD*%
D11*
%TO.C,SW64*%
X135587500Y-158599999D03*
D12*
X136857500Y-156059999D03*
D13*
X140667500Y-158599999D03*
D12*
X143207500Y-153519999D03*
D11*
X145747500Y-158599999D03*
D14*
X133582500Y-156059999D03*
X146509500Y-153519999D03*
%TD*%
D11*
%TO.C,SW61*%
X66531250Y-158599999D03*
D12*
X67801250Y-156059999D03*
D13*
X71611250Y-158599999D03*
D12*
X74151250Y-153519999D03*
D11*
X76691250Y-158599999D03*
D14*
X64526250Y-156059999D03*
X77453250Y-153519999D03*
%TD*%
D11*
%TO.C,SW9*%
X207025000Y-82400000D03*
D12*
X208295000Y-79860000D03*
D13*
X212105000Y-82400000D03*
D12*
X214645000Y-77320000D03*
D11*
X217185000Y-82400000D03*
D14*
X205020000Y-79860000D03*
X217947000Y-77320000D03*
%TD*%
D25*
%TO.C,U1*%
X47300000Y-70620000D03*
X49840000Y-70620000D03*
X52380000Y-70620000D03*
X54920000Y-70620000D03*
X57460000Y-70620000D03*
X60000000Y-70620000D03*
X62540000Y-70620000D03*
X65080000Y-70620000D03*
X67620000Y-70620000D03*
X70160000Y-70620000D03*
X72700000Y-70620000D03*
X75240000Y-70620000D03*
X75240000Y-55380000D03*
X72700000Y-55380000D03*
X70160000Y-55380000D03*
X67620000Y-55380000D03*
X65080000Y-55380000D03*
X62540000Y-55380000D03*
X60000000Y-55380000D03*
X57460000Y-55380000D03*
X54920000Y-55380000D03*
X52380000Y-55380000D03*
X49840000Y-55380000D03*
X47300000Y-55380000D03*
X70160000Y-68080000D03*
X70160000Y-65540000D03*
X70160000Y-63000000D03*
%TD*%
D11*
%TO.C,SW43*%
X273700000Y-120500000D03*
D12*
X274970000Y-117960000D03*
D13*
X278780000Y-120500000D03*
D12*
X281320000Y-115420000D03*
D11*
X283860000Y-120500000D03*
D14*
X271695000Y-117960000D03*
X284622000Y-115420000D03*
%TD*%
D11*
%TO.C,SW52*%
X164162500Y-139549999D03*
D12*
X165432500Y-137009999D03*
D13*
X169242500Y-139549999D03*
D12*
X171782500Y-134469999D03*
D11*
X174322500Y-139549999D03*
D14*
X162157500Y-137009999D03*
X175084500Y-134469999D03*
%TD*%
D11*
%TO.C,SW45*%
X316562500Y-120500000D03*
D12*
X317832500Y-117960000D03*
D13*
X321642500Y-120500000D03*
D12*
X324182500Y-115420000D03*
D11*
X326722500Y-120500000D03*
D14*
X314557500Y-117960000D03*
X327484500Y-115420000D03*
%TD*%
D11*
%TO.C,SW40*%
X216550000Y-120500000D03*
D12*
X217820000Y-117960000D03*
D13*
X221630000Y-120500000D03*
D12*
X224170000Y-115420000D03*
D11*
X226710000Y-120500000D03*
D14*
X214545000Y-117960000D03*
X227472000Y-115420000D03*
%TD*%
D11*
%TO.C,SW30*%
X311800000Y-101450000D03*
D12*
X313070000Y-98910000D03*
D13*
X316880000Y-101450000D03*
D12*
X319420000Y-96370000D03*
D11*
X321960000Y-101450000D03*
D14*
X309795000Y-98910000D03*
X322722000Y-96370000D03*
%TD*%
D11*
%TO.C,SW11*%
X245125000Y-82400000D03*
D12*
X246395000Y-79860000D03*
D13*
X250205000Y-82400000D03*
D12*
X252745000Y-77320000D03*
D11*
X255285000Y-82400000D03*
D14*
X243120000Y-79860000D03*
X256047000Y-77320000D03*
%TD*%
D11*
%TO.C,SW26*%
X226075000Y-101450000D03*
D12*
X227345000Y-98910000D03*
D13*
X231155000Y-101450000D03*
D12*
X233695000Y-96370000D03*
D11*
X236235000Y-101450000D03*
D14*
X224070000Y-98910000D03*
X236997000Y-96370000D03*
%TD*%
D11*
%TO.C,SW50*%
X126062500Y-139549999D03*
D12*
X127332500Y-137009999D03*
D13*
X131142500Y-139549999D03*
D12*
X133682500Y-134469999D03*
D11*
X136222500Y-139549999D03*
D14*
X124057500Y-137009999D03*
X136984500Y-134469999D03*
%TD*%
D11*
%TO.C,SW84*%
X340375000Y-177649999D03*
D12*
X341645000Y-175109999D03*
D13*
X345455000Y-177649999D03*
D12*
X347995000Y-172569999D03*
D11*
X350535000Y-177649999D03*
D14*
X338370000Y-175109999D03*
X351297000Y-172569999D03*
%TD*%
D11*
%TO.C,SW10*%
X226075000Y-82400000D03*
D12*
X227345000Y-79860000D03*
D13*
X231155000Y-82400000D03*
D12*
X233695000Y-77320000D03*
D11*
X236235000Y-82400000D03*
D14*
X224070000Y-79860000D03*
X236997000Y-77320000D03*
%TD*%
D11*
%TO.C,SW78*%
X176068750Y-177649999D03*
D12*
X177338750Y-175109999D03*
D13*
X181148750Y-177649999D03*
D12*
X183688750Y-172569999D03*
D11*
X186228750Y-177649999D03*
D14*
X174063750Y-175109999D03*
X186990750Y-172569999D03*
%TD*%
D26*
%TO.C,J2*%
X326500000Y-57800000D03*
D27*
X324500000Y-57800000D03*
%TD*%
D28*
%TO.C,LED10*%
X234450000Y-88500000D03*
X234450000Y-87000000D03*
X229000000Y-87000000D03*
X229000000Y-88500000D03*
%TD*%
%TO.C,LED20*%
X119580000Y-107500000D03*
X119580000Y-106000000D03*
X114130000Y-106000000D03*
X114130000Y-107500000D03*
%TD*%
%TO.C,LED61*%
X74225000Y-164750000D03*
X74225000Y-163250000D03*
X68775000Y-163250000D03*
X68775000Y-164750000D03*
%TD*%
%TO.C,LED39*%
X205725000Y-126250000D03*
X205725000Y-124750000D03*
X200275000Y-124750000D03*
X200275000Y-126250000D03*
%TD*%
%TO.C,LED48*%
X95767500Y-145250000D03*
X95767500Y-143750000D03*
X90317500Y-143750000D03*
X90317500Y-145250000D03*
%TD*%
%TO.C,LED4*%
X119950000Y-88500000D03*
X119950000Y-87000000D03*
X114500000Y-87000000D03*
X114500000Y-88500000D03*
%TD*%
%TO.C,LED22*%
X157679999Y-107500000D03*
X157679999Y-106000000D03*
X152229999Y-106000000D03*
X152229999Y-107500000D03*
%TD*%
%TO.C,LED24*%
X195950000Y-107500000D03*
X195950000Y-106000000D03*
X190500000Y-106000000D03*
X190500000Y-107500000D03*
%TD*%
%TO.C,LED15*%
X329450000Y-88500000D03*
X329450000Y-87000000D03*
X324000000Y-87000000D03*
X324000000Y-88500000D03*
%TD*%
%TO.C,LED57*%
X267225000Y-145750000D03*
X267225000Y-144250000D03*
X261775000Y-144250000D03*
X261775000Y-145750000D03*
%TD*%
%TO.C,LED53*%
X191225000Y-145750000D03*
X191225000Y-144250000D03*
X185775000Y-144250000D03*
X185775000Y-145750000D03*
%TD*%
%TO.C,LED38*%
X186255000Y-126500000D03*
X186255000Y-125000000D03*
X180805000Y-125000000D03*
X180805000Y-126500000D03*
%TD*%
%TO.C,LED59*%
X317225000Y-145750000D03*
X317225000Y-144250000D03*
X311775000Y-144250000D03*
X311775000Y-145750000D03*
%TD*%
%TO.C,LED2*%
X81450000Y-88500000D03*
X81450000Y-87000000D03*
X76000000Y-87000000D03*
X76000000Y-88500000D03*
%TD*%
%TO.C,LED42*%
X262725000Y-126250000D03*
X262725000Y-124750000D03*
X257275000Y-124750000D03*
X257275000Y-126250000D03*
%TD*%
%TO.C,LED41*%
X243950000Y-126500000D03*
X243950000Y-125000000D03*
X238500000Y-125000000D03*
X238500000Y-126500000D03*
%TD*%
%TO.C,LED67*%
X200542500Y-164750000D03*
X200542500Y-163250000D03*
X195092500Y-163250000D03*
X195092500Y-164750000D03*
%TD*%
%TO.C,LED69*%
X238642500Y-164750000D03*
X238642500Y-163250000D03*
X233192500Y-163250000D03*
X233192500Y-164750000D03*
%TD*%
%TO.C,LED23*%
X177000000Y-107500000D03*
X177000000Y-106000000D03*
X171550000Y-106000000D03*
X171550000Y-107500000D03*
%TD*%
%TO.C,LED37*%
X167205000Y-126500000D03*
X167205000Y-125000000D03*
X161755000Y-125000000D03*
X161755000Y-126500000D03*
%TD*%
%TO.C,LED33*%
X91000000Y-126500000D03*
X91000000Y-125000000D03*
X85550000Y-125000000D03*
X85550000Y-126500000D03*
%TD*%
%TO.C,LED18*%
X81950000Y-107500000D03*
X81950000Y-106000000D03*
X76500000Y-106000000D03*
X76500000Y-107500000D03*
%TD*%
%TO.C,LED34*%
X110450000Y-126500000D03*
X110450000Y-125000000D03*
X105000000Y-125000000D03*
X105000000Y-126500000D03*
%TD*%
%TO.C,LED77*%
X112225000Y-183750000D03*
X112225000Y-182250000D03*
X106775000Y-182250000D03*
X106775000Y-183750000D03*
%TD*%
%TO.C,LED50*%
X134450000Y-145500000D03*
X134450000Y-144000000D03*
X129000000Y-144000000D03*
X129000000Y-145500000D03*
%TD*%
%TO.C,LED21*%
X138950000Y-107500000D03*
X138950000Y-106000000D03*
X133500000Y-106000000D03*
X133500000Y-107500000D03*
%TD*%
%TO.C,LED8*%
X195950000Y-88500000D03*
X195950000Y-87000000D03*
X190500000Y-87000000D03*
X190500000Y-88500000D03*
%TD*%
%TO.C,LED52*%
X171967500Y-145450000D03*
X171967500Y-143950000D03*
X166517500Y-143950000D03*
X166517500Y-145450000D03*
%TD*%
%TO.C,LED25*%
X214950000Y-107500000D03*
X214950000Y-106000000D03*
X209500000Y-106000000D03*
X209500000Y-107500000D03*
%TD*%
%TO.C,LED63*%
X124342500Y-164750000D03*
X124342500Y-163250000D03*
X118892500Y-163250000D03*
X118892500Y-164750000D03*
%TD*%
%TO.C,LED64*%
X143392500Y-164350000D03*
X143392500Y-162850000D03*
X137942500Y-162850000D03*
X137942500Y-164350000D03*
%TD*%
%TO.C,LED32*%
X67192500Y-126500000D03*
X67192500Y-125000000D03*
X61742500Y-125000000D03*
X61742500Y-126500000D03*
%TD*%
%TO.C,LED70*%
X257692500Y-164750000D03*
X257692500Y-163250000D03*
X252242500Y-163250000D03*
X252242500Y-164750000D03*
%TD*%
%TO.C,LED11*%
X253000000Y-88500000D03*
X253000000Y-87000000D03*
X247550000Y-87000000D03*
X247550000Y-88500000D03*
%TD*%
%TO.C,LED83*%
X329130000Y-183750000D03*
X329130000Y-182250000D03*
X323680000Y-182250000D03*
X323680000Y-183750000D03*
%TD*%
%TO.C,LED72*%
X302725000Y-164750000D03*
X302725000Y-163250000D03*
X297275000Y-163250000D03*
X297275000Y-164750000D03*
%TD*%
%TO.C,LED80*%
X271980000Y-183750000D03*
X271980000Y-182250000D03*
X266530000Y-182250000D03*
X266530000Y-183750000D03*
%TD*%
%TO.C,LED54*%
X210067500Y-145750000D03*
X210067500Y-144250000D03*
X204617500Y-144250000D03*
X204617500Y-145750000D03*
%TD*%
%TO.C,LED3*%
X100950000Y-88500000D03*
X100950000Y-87000000D03*
X95500000Y-87000000D03*
X95500000Y-88500000D03*
%TD*%
%TO.C,LED74*%
X348225000Y-164750000D03*
X348225000Y-163250000D03*
X342775000Y-163250000D03*
X342775000Y-164750000D03*
%TD*%
%TO.C,LED75*%
X64811250Y-183750000D03*
X64811250Y-182250000D03*
X59361250Y-182250000D03*
X59361250Y-183750000D03*
%TD*%
%TO.C,LED40*%
X224950000Y-126500000D03*
X224950000Y-125000000D03*
X219500000Y-125000000D03*
X219500000Y-126500000D03*
%TD*%
%TO.C,LED30*%
X319950000Y-107500000D03*
X319950000Y-106000000D03*
X314500000Y-106000000D03*
X314500000Y-107500000D03*
%TD*%
%TO.C,LED13*%
X291225000Y-88750000D03*
X291225000Y-87250000D03*
X285775000Y-87250000D03*
X285775000Y-88750000D03*
%TD*%
%TO.C,LED58*%
X286225000Y-145750000D03*
X286225000Y-144250000D03*
X280775000Y-144250000D03*
X280775000Y-145750000D03*
%TD*%
%TO.C,LED73*%
X329225000Y-164750000D03*
X329225000Y-163250000D03*
X323775000Y-163250000D03*
X323775000Y-164750000D03*
%TD*%
%TO.C,LED17*%
X62450000Y-107500000D03*
X62450000Y-106000000D03*
X57000000Y-106000000D03*
X57000000Y-107500000D03*
%TD*%
%TO.C,LED84*%
X348450000Y-183500000D03*
X348450000Y-182000000D03*
X343000000Y-182000000D03*
X343000000Y-183500000D03*
%TD*%
%TO.C,LED82*%
X310225000Y-183750000D03*
X310225000Y-182250000D03*
X304775000Y-182250000D03*
X304775000Y-183750000D03*
%TD*%
%TO.C,LED79*%
X252725000Y-183750000D03*
X252725000Y-182250000D03*
X247275000Y-182250000D03*
X247275000Y-183750000D03*
%TD*%
%TO.C,LED5*%
X138655000Y-88500000D03*
X138655000Y-87000000D03*
X133205000Y-87000000D03*
X133205000Y-88500000D03*
%TD*%
%TO.C,LED47*%
X69573750Y-145250000D03*
X69573750Y-143750000D03*
X64123750Y-143750000D03*
X64123750Y-145250000D03*
%TD*%
%TO.C,LED45*%
X324725000Y-126500000D03*
X324725000Y-125000000D03*
X319275000Y-125000000D03*
X319275000Y-126500000D03*
%TD*%
%TO.C,LED55*%
X229117500Y-145750000D03*
X229117500Y-144250000D03*
X223667500Y-144250000D03*
X223667500Y-145750000D03*
%TD*%
%TO.C,LED9*%
X214950000Y-88500000D03*
X214950000Y-87000000D03*
X209500000Y-87000000D03*
X209500000Y-88500000D03*
%TD*%
%TO.C,LED19*%
X100450000Y-107500000D03*
X100450000Y-106000000D03*
X95000000Y-106000000D03*
X95000000Y-107500000D03*
%TD*%
%TO.C,LED78*%
X183873750Y-183500000D03*
X183873750Y-182000000D03*
X178423750Y-182000000D03*
X178423750Y-183500000D03*
%TD*%
%TO.C,LED27*%
X252950000Y-107500000D03*
X252950000Y-106000000D03*
X247500000Y-106000000D03*
X247500000Y-107500000D03*
%TD*%
%TO.C,LED62*%
X105292500Y-164750000D03*
X105292500Y-163250000D03*
X99842500Y-163250000D03*
X99842500Y-164750000D03*
%TD*%
%TO.C,LED36*%
X148450000Y-126500000D03*
X148450000Y-125000000D03*
X143000000Y-125000000D03*
X143000000Y-126500000D03*
%TD*%
%TO.C,LED46*%
X348180000Y-126250000D03*
X348180000Y-124750000D03*
X342730000Y-124750000D03*
X342730000Y-126250000D03*
%TD*%
%TO.C,LED71*%
X276742500Y-164750000D03*
X276742500Y-163250000D03*
X271292500Y-163250000D03*
X271292500Y-164750000D03*
%TD*%
%TO.C,LED76*%
X88225000Y-183750000D03*
X88225000Y-182250000D03*
X82775000Y-182250000D03*
X82775000Y-183750000D03*
%TD*%
%TO.C,LED28*%
X272450000Y-107500000D03*
X272450000Y-106000000D03*
X267000000Y-106000000D03*
X267000000Y-107500000D03*
%TD*%
%TO.C,LED26*%
X233950000Y-107500000D03*
X233950000Y-106000000D03*
X228500000Y-106000000D03*
X228500000Y-107500000D03*
%TD*%
%TO.C,LED7*%
X176950000Y-88500000D03*
X176950000Y-87000000D03*
X171500000Y-87000000D03*
X171500000Y-88500000D03*
%TD*%
%TO.C,LED12*%
X271950000Y-88500000D03*
X271950000Y-87000000D03*
X266500000Y-87000000D03*
X266500000Y-88500000D03*
%TD*%
%TO.C,LED43*%
X281505000Y-126250000D03*
X281505000Y-124750000D03*
X276055000Y-124750000D03*
X276055000Y-126250000D03*
%TD*%
%TO.C,LED81*%
X290725000Y-183750000D03*
X290725000Y-182250000D03*
X285275000Y-182250000D03*
X285275000Y-183750000D03*
%TD*%
%TO.C,LED49*%
X114817500Y-145250000D03*
X114817500Y-143750000D03*
X109367500Y-143750000D03*
X109367500Y-145250000D03*
%TD*%
%TO.C,LED14*%
X310450000Y-88500000D03*
X310450000Y-87000000D03*
X305000000Y-87000000D03*
X305000000Y-88500000D03*
%TD*%
%TO.C,LED29*%
X291450000Y-107500000D03*
X291450000Y-106000000D03*
X286000000Y-106000000D03*
X286000000Y-107500000D03*
%TD*%
%TO.C,LED31*%
X348180000Y-107250000D03*
X348180000Y-105750000D03*
X342730000Y-105750000D03*
X342730000Y-107250000D03*
%TD*%
%TO.C,LED65*%
X162442500Y-164750000D03*
X162442500Y-163250000D03*
X156992500Y-163250000D03*
X156992500Y-164750000D03*
%TD*%
%TO.C,LED44*%
X300950000Y-126500000D03*
X300950000Y-125000000D03*
X295500000Y-125000000D03*
X295500000Y-126500000D03*
%TD*%
%TO.C,LED51*%
X152917499Y-145350000D03*
X152917499Y-143850000D03*
X147467499Y-143850000D03*
X147467499Y-145350000D03*
%TD*%
%TO.C,LED60*%
X348450000Y-145500000D03*
X348450000Y-144000000D03*
X343000000Y-144000000D03*
X343000000Y-145500000D03*
%TD*%
%TO.C,LED16*%
X348450000Y-88500000D03*
X348450000Y-87000000D03*
X343000000Y-87000000D03*
X343000000Y-88500000D03*
%TD*%
%TO.C,LED1*%
X62225000Y-88250000D03*
X62225000Y-86750000D03*
X56775000Y-86750000D03*
X56775000Y-88250000D03*
%TD*%
%TO.C,LED66*%
X181725000Y-164750000D03*
X181725000Y-163250000D03*
X176275000Y-163250000D03*
X176275000Y-164750000D03*
%TD*%
%TO.C,LED6*%
X157679999Y-88500000D03*
X157679999Y-87000000D03*
X152229999Y-87000000D03*
X152229999Y-88500000D03*
%TD*%
%TO.C,LED56*%
X248225000Y-145750000D03*
X248225000Y-144250000D03*
X242775000Y-144250000D03*
X242775000Y-145750000D03*
%TD*%
%TO.C,LED35*%
X129105000Y-126500000D03*
X129105000Y-125000000D03*
X123655000Y-125000000D03*
X123655000Y-126500000D03*
%TD*%
%TO.C,LED68*%
X219725000Y-164750000D03*
X219725000Y-163250000D03*
X214275000Y-163250000D03*
X214275000Y-164750000D03*
%TD*%
M02*
